<svg width="22" height="18" viewBox="0 0 22 18" fill="none" xmlns="http://www.w3.org/2000/svg">
<path d="M5.78484 0.873047C4.20594 0.898647 2.6508 1.26178 1.22384 1.93805C1.02179 2.03009 0.850613 2.17851 0.730873 2.36548C0.611134 2.55246 0.547924 2.77002 0.548838 2.99205V15.969C0.548289 16.0659 0.57203 16.1613 0.617889 16.2466C0.663748 16.3318 0.73026 16.4043 0.81134 16.4572C0.89242 16.5101 0.985478 16.5419 1.082 16.5495C1.17852 16.5572 1.27542 16.5405 1.36384 16.501C2.63916 15.8516 4.06536 15.5561 5.49375 15.6455C6.92213 15.7348 8.3004 16.2057 9.48484 17.009C9.58618 17.0874 9.71077 17.1296 9.83884 17.129C9.99251 17.1283 10.1397 17.0669 10.2484 16.9584C10.3572 16.8498 10.4188 16.7027 10.4198 16.549V2.61505C10.4201 2.52153 10.3978 2.42933 10.3548 2.34629C10.3118 2.26324 10.2494 2.19181 10.1728 2.13805C8.85592 1.31731 7.33656 0.879304 5.78484 0.873047ZM20.7758 1.93805C19.3457 1.27131 17.7924 0.90964 16.2148 0.876047C14.6644 0.888339 13.1469 1.32477 11.8268 2.13805C11.7504 2.19143 11.688 2.26251 11.645 2.34522C11.602 2.42794 11.5797 2.51982 11.5798 2.61305V16.513C11.5773 16.5915 11.5904 16.6697 11.6183 16.7431C11.6462 16.8164 11.6884 16.8835 11.7425 16.9404C11.7965 16.9974 11.8613 17.043 11.9331 17.0747C12.005 17.1064 12.0824 17.1235 12.1608 17.125C12.2893 17.1252 12.4142 17.0827 12.5158 17.004C13.7003 16.2007 15.0785 15.7298 16.5069 15.6405C17.9353 15.5511 19.3615 15.8466 20.6368 16.496C20.7253 16.5355 20.8222 16.5522 20.9187 16.5445C21.0152 16.5369 21.1083 16.5051 21.1893 16.4522C21.2704 16.3993 21.3369 16.3268 21.3828 16.2416C21.4286 16.1563 21.4524 16.0609 21.4518 15.964V2.99105C21.4453 2.77072 21.3789 2.55632 21.2598 2.37083C21.1407 2.18534 20.9734 2.03574 20.7758 1.93805Z" fill="#FF9933"/>
</svg>
