<svg width="21" height="21" viewBox="0 0 21 21" fill="none" xmlns="http://www.w3.org/2000/svg">
<path d="M8.64457 0.151353C7.85103 0.253687 7.09095 0.509482 6.41567 0.901459C5.98239 1.18567 5.59117 1.51929 5.25164 1.89411C4.57421 2.68764 4.21364 3.66648 4.22899 4.67035C4.22004 5.28982 4.35497 5.90405 4.62497 6.47301C4.89497 7.04198 5.29399 7.55291 5.79601 7.97251C6.50499 8.57827 7.39317 8.98314 8.35175 9.13754C9.31034 9.29194 10.2977 9.18917 11.1929 8.84181C12.0122 8.51855 12.7222 8.00335 13.25 7.349C13.7778 6.69464 14.1045 5.92466 14.1966 5.11793C14.3058 4.05979 14.009 2.9999 13.3567 2.11748C13.0208 1.69919 12.6229 1.32503 12.1743 1.00564C11.7457 0.734017 11.2805 0.513575 10.7899 0.349721C10.0947 0.162806 9.36706 0.0955248 8.64457 0.151353Z" fill="black"/>
<path d="M6.55618 11.063C5.05393 11.1946 3.63834 11.7621 2.51924 12.6814C1.40014 13.6008 0.637073 14.8231 0.343148 16.1671C0.205935 16.7511 0.182018 17.3525 0.272466 17.944C0.367381 18.3481 0.561337 18.7275 0.839934 19.0542C1.11853 19.3809 1.47461 19.6463 1.88172 19.8309C2.52432 20.121 2.29941 20.1076 6.69664 20.1251C11.0939 20.1426 10.9194 20.151 11.0755 19.8651C11.2068 19.6392 11.1737 19.49 10.8919 18.9791C10.4354 18.209 10.2088 17.3438 10.2346 16.4696C10.2257 15.8577 10.3354 15.2492 10.5587 14.6718C10.9146 13.7675 11.5244 12.9631 12.3276 12.3382C12.9849 11.8523 12.9803 11.8606 13.0033 11.6222C13.0455 11.2388 12.8527 11.1447 11.8209 11.0555C11.2683 11.0113 7.11433 11.0113 6.55618 11.063Z" fill="black"/>
<path d="M15.8867 12.8949C15.6102 13.0107 15.391 13.2157 15.2716 13.47C15.2276 13.8464 15.2104 14.2251 15.2202 14.6035V15.5703L14.0562 15.5828L12.8876 15.5953L12.6948 15.7145C12.5614 15.7887 12.4496 15.8908 12.3688 16.0123C12.288 16.1339 12.2405 16.2713 12.2303 16.4129C12.2142 16.5802 12.2506 16.7481 12.3352 16.8974C12.4198 17.0467 12.5493 17.1711 12.7086 17.2564L12.9335 17.3839L14.0782 17.3964L15.2183 17.4131V18.4016C15.2183 19.3817 15.2184 19.39 15.3405 19.6159C15.4068 19.7448 15.5071 19.8568 15.6324 19.9422C15.7576 20.0276 15.9041 20.0837 16.0589 20.1056C16.2137 20.1275 16.3721 20.1145 16.5201 20.0678C16.668 20.021 16.8011 19.942 16.9075 19.8376C17.2077 19.5651 17.2361 19.4325 17.2361 18.3249V17.4081H18.2459C19.4659 17.4081 19.6119 17.3822 19.9121 17.1097C20.0271 17.0131 20.1142 16.8923 20.1656 16.758C20.2171 16.6236 20.2314 16.4799 20.2073 16.3393C20.1832 16.1988 20.1213 16.0658 20.0273 15.952C19.9332 15.8383 19.8098 15.7473 19.6679 15.687C19.4191 15.5761 19.41 15.5761 18.3304 15.5761H17.2416L17.2233 14.541L17.2095 13.51L17.0782 13.31C16.956 13.1329 16.7737 12.9967 16.5588 12.9218C16.3439 12.847 16.108 12.8375 15.8867 12.8949Z" fill="black"/>
</svg>
