<svg width="21" height="21" viewBox="0 0 21 21" fill="none" xmlns="http://www.w3.org/2000/svg">
<g clip-path="url(#clip0_1679_9240)">
<path d="M17.9746 0.784707C17.502 0.956582 17.1738 1.24565 16.9668 1.68705C16.8535 1.92533 16.8418 1.98393 16.8418 2.31986C16.8418 2.52299 16.8496 2.74174 16.8613 2.80424C16.8809 2.91361 16.8613 2.92924 15.5059 3.73393L14.127 4.55424L13.9824 4.42924C13.791 4.25736 13.4746 4.11674 13.166 4.06596C12.5605 3.96049 11.9121 4.24955 11.5293 4.79252L11.4512 4.9058L10.2285 4.30424L9.00586 3.70658L9.02148 3.5894C9.05273 3.36674 8.97461 3.00736 8.83398 2.72611C8.3457 1.73393 7.0332 1.51518 6.2168 2.28471C5.82227 2.65971 5.63086 3.22611 5.72852 3.73002C5.75586 3.86674 5.7793 4.01518 5.7832 4.06205C5.78711 4.12846 5.45898 4.39018 4.2168 5.31986L2.64648 6.49174L2.49023 6.42143C1.68164 6.0308 0.705078 6.39408 0.302734 7.23783C0.169922 7.51518 0.162109 7.56205 0.162109 7.9058C0.162109 8.32768 0.224609 8.53471 0.447266 8.87846C0.880859 9.53471 1.81445 9.77299 2.54492 9.41361C2.88867 9.24174 3.14648 8.97611 3.32227 8.60893C3.43555 8.37064 3.44336 8.33158 3.43555 7.94486C3.43164 7.7183 3.42383 7.48393 3.41602 7.42533C3.4043 7.31986 3.49805 7.24564 4.98633 6.13236L6.56836 4.95268L6.82227 5.04643C7.04102 5.12846 7.12695 5.13627 7.44727 5.12455C7.85352 5.10502 8.13086 5.00736 8.38086 4.80033L8.50977 4.68705L9.9082 5.38627L11.3066 6.08549L11.3535 6.24174C11.4668 6.62846 11.8223 7.01518 12.2441 7.21439C12.4473 7.30814 12.5684 7.33939 12.8223 7.35111C13.748 7.40189 14.4824 6.76127 14.5801 5.81986L14.6074 5.56596L16.084 4.68315C16.8965 4.19877 17.5762 3.80424 17.5957 3.80424C17.6152 3.80424 17.7285 3.84721 17.8457 3.9019C18.4395 4.17143 19.1973 4.01127 19.6699 3.51127C20.4551 2.68315 20.2168 1.37846 19.1895 0.874551C18.9473 0.753457 18.877 0.737832 18.5449 0.73002C18.2598 0.718301 18.123 0.733926 17.9746 0.784707Z" fill="black"/>
<path d="M17.1973 7.39795C17.1387 7.41748 17.0528 7.46435 17.0098 7.50342C16.8145 7.6792 16.8223 7.38232 16.8223 13.4956C16.8223 19.1519 16.8223 19.2065 16.9004 19.3315C17.0528 19.5776 17.1075 19.5854 18.4903 19.5854C19.6622 19.5854 19.7403 19.5815 19.8614 19.5073C19.9317 19.4644 20.0215 19.3745 20.0645 19.3042C20.1426 19.1753 20.1426 19.0933 20.1426 13.4917C20.1426 8.01904 20.1387 7.80029 20.0684 7.67139C20.0293 7.59717 19.9356 7.49951 19.8653 7.45654C19.7403 7.38232 19.6543 7.37842 18.5215 7.3706C17.8575 7.3667 17.2598 7.37842 17.1973 7.39795Z" fill="black"/>
<path d="M5.95898 8.58154C5.88477 8.62842 5.79492 8.72998 5.75977 8.8042C5.69336 8.93311 5.68945 9.26514 5.68945 14.0386C5.68945 18.812 5.69336 19.144 5.75977 19.2729C5.79492 19.3472 5.88477 19.4487 5.95898 19.4956C6.0918 19.5854 6.10742 19.5854 7.36523 19.5854C8.56055 19.5854 8.64648 19.5815 8.76367 19.5073C8.83398 19.4683 8.91992 19.3745 8.95898 19.3042C9.02539 19.1831 9.0293 18.9097 9.0293 14.0386C9.0293 9.16748 9.02539 8.89404 8.95898 8.77295C8.91992 8.70264 8.83398 8.60889 8.76367 8.56982C8.64648 8.49561 8.56055 8.4917 7.36523 8.4917C6.10742 8.4917 6.0918 8.4917 5.95898 8.58154Z" fill="black"/>
<path d="M11.5215 10.7964C11.4512 10.8354 11.3652 10.9292 11.3262 10.9995C11.2598 11.1206 11.2559 11.3511 11.2559 15.1519C11.2559 18.9526 11.2598 19.1831 11.3262 19.3042C11.3652 19.3745 11.4512 19.4683 11.5215 19.5073C11.6387 19.5815 11.7246 19.5854 12.9199 19.5854C14.1777 19.5854 14.1934 19.5854 14.3262 19.4956C14.6152 19.3042 14.5957 19.5972 14.5957 15.1519C14.5957 10.7065 14.6152 10.9995 14.3262 10.8081C14.1934 10.7183 14.1777 10.7183 12.9199 10.7183C11.7246 10.7183 11.6387 10.7222 11.5215 10.7964Z" fill="black"/>
<path d="M0.408203 13.0112C0.353516 13.0464 0.267578 13.1401 0.224609 13.2222C0.142578 13.3628 0.142578 13.3979 0.142578 16.269C0.142578 19.1011 0.146484 19.1792 0.220703 19.3042C0.263672 19.3745 0.353516 19.4644 0.423828 19.5073C0.544922 19.5815 0.623047 19.5854 1.79492 19.5854C3.17773 19.5854 3.23242 19.5776 3.38477 19.3315C3.46289 19.2065 3.46289 19.144 3.46289 16.269C3.46289 13.0269 3.47461 13.1792 3.2168 13.0229C3.09961 12.9487 3.01367 12.9448 1.80273 12.9448C0.673828 12.9487 0.501953 12.9565 0.408203 13.0112Z" fill="black"/>
</g>
<defs>
<clipPath id="clip0_1679_9240">
<rect width="20" height="20" fill="white" transform="translate(0.142578 0.132324)"/>
</clipPath>
</defs>
</svg>
