<svg width="21" height="20" viewBox="0 0 21 20" fill="none" xmlns="http://www.w3.org/2000/svg">
<g clip-path="url(#clip0_1679_9255)">
<path d="M18.332 0.652261C17.8594 0.824136 17.5312 1.1132 17.3242 1.55461C17.2109 1.79289 17.1992 1.85148 17.1992 2.18742C17.1992 2.39054 17.207 2.60929 17.2188 2.67179C17.2383 2.78117 17.2188 2.79679 15.8633 3.60148L14.4844 4.42179L14.3398 4.29679C14.1484 4.12492 13.832 3.98429 13.5234 3.93351C12.918 3.82804 12.2695 4.11711 11.8867 4.66007L11.8086 4.77336L10.5859 4.17179L9.36328 3.57414L9.37891 3.45695C9.41016 3.23429 9.33203 2.87492 9.19141 2.59367C8.70312 1.60148 7.39062 1.38273 6.57422 2.15226C6.17969 2.52726 5.98828 3.09367 6.08594 3.59757C6.11328 3.73429 6.13672 3.88273 6.14062 3.92961C6.14453 3.99601 5.81641 4.25773 4.57422 5.18742L3.00391 6.35929L2.84766 6.28898C2.03906 5.89835 1.0625 6.26164 0.660156 7.10539C0.527344 7.38273 0.519531 7.42961 0.519531 7.77335C0.519531 8.19523 0.582031 8.40226 0.804688 8.74601C1.23828 9.40226 2.17188 9.64054 2.90234 9.28117C3.24609 9.10929 3.50391 8.84367 3.67969 8.47648C3.79297 8.2382 3.80078 8.19914 3.79297 7.81242C3.78906 7.58585 3.78125 7.35148 3.77344 7.29289C3.76172 7.18742 3.85547 7.1132 5.34375 5.99992L6.92578 4.82023L7.17969 4.91398C7.39844 4.99601 7.48438 5.00382 7.80469 4.99211C8.21094 4.97257 8.48828 4.87492 8.73828 4.66789L8.86719 4.55461L10.2656 5.25382L11.6641 5.95304L11.7109 6.10929C11.8242 6.49601 12.1797 6.88273 12.6016 7.08195C12.8047 7.1757 12.9258 7.20695 13.1797 7.21867C14.1055 7.26945 14.8398 6.62882 14.9375 5.68742L14.9648 5.43351L16.4414 4.5507C17.2539 4.06632 17.9336 3.67179 17.9531 3.67179C17.9727 3.67179 18.0859 3.71476 18.2031 3.76945C18.7969 4.03898 19.5547 3.87882 20.0273 3.37882C20.8125 2.5507 20.5742 1.24601 19.5469 0.742105C19.3047 0.621011 19.2344 0.605386 18.9023 0.597573C18.6172 0.585855 18.4805 0.60148 18.332 0.652261Z" fill="#FF9933"/>
<path d="M17.5547 7.26562C17.4961 7.28515 17.4102 7.33203 17.3672 7.37109C17.1719 7.54687 17.1797 7.25 17.1797 13.3633C17.1797 19.0195 17.1797 19.0742 17.2579 19.1992C17.4102 19.4453 17.4649 19.4531 18.8477 19.4531C20.0196 19.4531 20.0977 19.4492 20.2188 19.375C20.2891 19.332 20.3789 19.2422 20.4219 19.1719C20.5 19.043 20.5 18.9609 20.5 13.3594C20.5 7.88672 20.4961 7.66797 20.4258 7.53906C20.3868 7.46484 20.293 7.36719 20.2227 7.32422C20.0977 7.25 20.0118 7.24609 18.8789 7.23828C18.2149 7.23437 17.6172 7.24609 17.5547 7.26562Z" fill="#FF9933"/>
<path d="M6.31641 8.44922C6.24219 8.49609 6.15234 8.59766 6.11719 8.67188C6.05078 8.80078 6.04688 9.13281 6.04688 13.9062C6.04688 18.6797 6.05078 19.0117 6.11719 19.1406C6.15234 19.2148 6.24219 19.3164 6.31641 19.3633C6.44922 19.4531 6.46484 19.4531 7.72266 19.4531C8.91797 19.4531 9.00391 19.4492 9.12109 19.375C9.19141 19.3359 9.27734 19.2422 9.31641 19.1719C9.38281 19.0508 9.38672 18.7773 9.38672 13.9062C9.38672 9.03516 9.38281 8.76172 9.31641 8.64062C9.27734 8.57031 9.19141 8.47656 9.12109 8.4375C9.00391 8.36328 8.91797 8.35938 7.72266 8.35938C6.46484 8.35938 6.44922 8.35938 6.31641 8.44922Z" fill="#FF9933"/>
<path d="M11.8789 10.6641C11.8086 10.7031 11.7227 10.7969 11.6836 10.8672C11.6172 10.9883 11.6133 11.2188 11.6133 15.0195C11.6133 18.8203 11.6172 19.0508 11.6836 19.1719C11.7227 19.2422 11.8086 19.3359 11.8789 19.375C11.9961 19.4492 12.082 19.4531 13.2773 19.4531C14.5352 19.4531 14.5508 19.4531 14.6836 19.3633C14.9727 19.1719 14.9531 19.4648 14.9531 15.0195C14.9531 10.5742 14.9727 10.8672 14.6836 10.6758C14.5508 10.5859 14.5352 10.5859 13.2773 10.5859C12.082 10.5859 11.9961 10.5898 11.8789 10.6641Z" fill="#FF9933"/>
<path d="M0.765625 12.8789C0.710938 12.9141 0.625 13.0078 0.582031 13.0898C0.5 13.2305 0.5 13.2656 0.5 16.1367C0.5 18.9688 0.503906 19.0469 0.578125 19.1719C0.621094 19.2422 0.710938 19.332 0.78125 19.375C0.902344 19.4492 0.980469 19.4531 2.15234 19.4531C3.53516 19.4531 3.58984 19.4453 3.74219 19.1992C3.82031 19.0742 3.82031 19.0117 3.82031 16.1367C3.82031 12.8945 3.83203 13.0469 3.57422 12.8906C3.45703 12.8164 3.37109 12.8125 2.16016 12.8125C1.03125 12.8164 0.859375 12.8242 0.765625 12.8789Z" fill="#FF9933"/>
</g>
<defs>
<clipPath id="clip0_1679_9255">
<rect width="20" height="20" fill="white" transform="translate(0.5)"/>
</clipPath>
</defs>
</svg>
