<svg width="22" height="22" viewBox="0 0 22 22" fill="none" xmlns="http://www.w3.org/2000/svg">
<path d="M14.8019 1.25749C14.7397 1.31503 14.6977 1.39041 14.6822 1.47276C14.6822 1.52529 14.6074 2.23825 14.5202 3.06573C14.438 3.59691 14.3979 4.13354 14.4005 4.67077C14.4258 4.73098 14.4661 4.78404 14.5177 4.82515C14.5693 4.86626 14.6306 4.89413 14.6961 4.90619C14.7615 4.91825 14.8289 4.91412 14.8923 4.89421C14.9556 4.8743 15.0129 4.83923 15.0589 4.79217C15.1174 4.7401 15.159 4.67245 15.1787 4.59756C15.1787 4.55709 15.2535 3.83985 15.3397 3.00461C15.4553 2.46244 15.4915 1.90693 15.4471 1.3548C15.42 1.2974 15.3788 1.24745 15.3272 1.20941C15.2755 1.17137 15.2151 1.14643 15.1512 1.1368C15.0873 1.12717 15.022 1.13313 14.961 1.1542C14.9001 1.17526 14.8454 1.21074 14.8019 1.25749Z" fill="black" stroke="black" stroke-width="0.5"/>
<path d="M10.3855 7.80336C10.0811 7.8756 9.79847 8.0172 9.56069 8.21665C9.51746 8.29215 9.49473 8.37725 9.49468 8.46379C9.49161 8.51475 9.50178 8.56563 9.52425 8.61171C9.54673 8.65778 9.58076 8.69755 9.62319 8.72728C9.79308 8.8771 9.93832 8.87278 10.257 8.7066C10.4527 8.59289 10.6819 8.54708 10.9075 8.57657C11.1148 8.55313 11.3247 8.58841 11.5122 8.67819C11.7966 8.81449 12.0255 9.04089 12.1616 9.32057C12.2978 9.60025 12.3332 9.91676 12.2622 10.2186C12.1803 10.5594 11.974 10.8592 11.6821 11.0616C11.6359 11.0942 11.5977 11.1366 11.5705 11.1855C11.5433 11.2345 11.5278 11.2889 11.525 11.3445C11.5222 11.4002 11.5323 11.4558 11.5544 11.5071C11.5766 11.5585 11.6103 11.6043 11.6531 11.6411C11.8766 11.8598 12.1169 11.7909 12.5148 11.394C12.7318 11.1678 12.8967 10.8989 12.9986 10.6052C13.1005 10.3115 13.137 9.99996 13.1057 9.69135C13.0743 9.38274 12.9759 9.08425 12.8169 8.81594C12.6579 8.54763 12.442 8.3157 12.1838 8.13572C11.6512 7.8008 11.0063 7.68162 10.3855 7.80336Z" fill="black" stroke="black" stroke-width="0.5"/>
<path d="M19.1298 4.39434C17.9204 5.15208 16.5032 6.08806 16.4662 6.15694C16.4346 6.21728 16.4195 6.28454 16.4222 6.35226C16.4249 6.41998 16.4453 6.48588 16.4815 6.54364C16.5178 6.6014 16.5686 6.64909 16.6291 6.6821C16.6896 6.71511 16.7578 6.73233 16.8271 6.73213C16.9723 6.73213 17.1669 6.62278 18.4115 5.82027C19.195 5.31741 19.886 4.86018 19.9529 4.80335C19.991 4.76799 20.0211 4.72528 20.0415 4.67793C20.0619 4.63059 20.0721 4.57962 20.0713 4.52825C20.0706 4.47689 20.059 4.42623 20.0372 4.37947C20.0155 4.33271 19.984 4.29086 19.9449 4.25657C19.7557 4.07402 19.6148 4.09469 19.1298 4.39434Z" fill="black" stroke="black" stroke-width="0.5"/>
<path d="M17.286 8.6575C17.2314 8.69033 17.1857 8.73564 17.153 8.78957C17.1203 8.8435 17.1015 8.90442 17.0982 8.96705C17.0949 9.02968 17.1072 9.09214 17.1341 9.14907C17.161 9.206 17.2016 9.25567 17.2525 9.29381C18.4542 9.58078 19.6715 9.80128 20.8985 9.95424C20.9798 9.9315 21.0524 9.88607 21.1076 9.82351C21.1628 9.76095 21.1981 9.68399 21.2093 9.60207C21.2226 9.55273 21.2207 9.50064 21.2038 9.45237C21.1868 9.4041 21.1557 9.3618 21.1142 9.33083C21.0147 9.22148 20.9487 9.18876 20.6873 9.14484C18.9928 8.84089 17.5721 8.59808 17.4929 8.59808C17.4207 8.60521 17.3506 8.62535 17.286 8.6575Z" fill="black" stroke="black" stroke-width="0.5"/>
<path d="M8.35478 3.27439C8.08822 3.36642 7.85032 3.52035 7.66291 3.72211C7.60481 3.79298 6.80554 5.2954 5.89008 7.05713L4.2176 10.2596L3.22291 10.8916C2.07858 11.6211 1.73969 11.9121 1.49145 12.3865C1.28033 12.7713 1.18876 13.205 1.22738 13.6371C1.23113 14.1054 1.38898 14.561 1.67895 14.9403C1.89962 15.281 2.20563 15.5648 2.56985 15.7667C2.93406 15.9686 3.34523 16.0822 3.76691 16.0976C4.22234 16.1337 4.67941 16.0494 5.08729 15.8541C5.31527 15.744 5.38569 15.7248 5.42266 15.764C5.45963 15.8032 6.13567 16.7454 6.95166 17.8868C7.47219 18.6623 8.03515 19.4114 8.63823 20.1312C8.82122 20.2944 9.04055 20.4166 9.28005 20.4887C9.51955 20.5609 9.7731 20.5812 10.022 20.5481C10.3517 20.5012 10.6587 20.3605 10.902 20.1446C11.1454 19.9287 11.3137 19.6478 11.3846 19.3392C11.4667 19.0332 11.4448 18.7105 11.3221 18.417C11.2851 18.3153 10.6426 17.3807 9.89699 16.341C9.15141 15.3013 8.5546 14.4342 8.57661 14.4184C8.59861 14.4025 9.50439 14.3241 10.6012 14.2458C14.7445 13.9356 14.8519 13.9281 15.1046 13.8139C15.8792 13.4645 16.2603 12.5582 16.1318 11.3735C15.7797 8.16352 12.4348 3.95307 9.69365 3.27772C9.25444 3.17236 8.79457 3.17122 8.35478 3.27439ZM9.66812 4.09064C11.277 4.79887 12.628 5.94326 13.55 7.37897C14.7824 9.11735 15.344 10.5472 15.2938 11.7895C15.3239 12.037 15.281 12.2875 15.1699 12.5132C15.0588 12.739 14.8838 12.9312 14.6644 13.0685C14.5339 13.1405 14.3878 13.1835 14.2372 13.1943C14.0865 13.2051 13.9353 13.1835 13.7947 13.131C12.1751 12.7142 10.1197 10.7332 8.88118 8.39865C8.33953 7.46943 8.02517 6.43684 7.96131 5.37712C7.92739 5.17695 7.94066 4.97215 8.00017 4.7774C8.05967 4.58266 8.16394 4.40278 8.30549 4.25071C8.64527 3.92971 9.01409 3.88637 9.66812 4.09064ZM7.3645 6.81785C8.14033 9.32996 9.75002 11.5384 11.955 13.116C12.1416 13.2419 12.2701 13.3478 12.2367 13.3512C11.9427 13.3978 7.33105 13.7122 7.30728 13.6847C7.24919 13.6221 5.05736 10.5531 5.04063 10.5097C5.02391 10.4664 7.18229 6.24422 7.20781 6.26757C7.21574 6.28008 7.28616 6.52604 7.3645 6.81785ZM5.38041 12.3823C5.898 13.1043 6.3751 13.7714 6.43671 13.8581L6.55291 14.019L5.71579 14.5609C5.25629 14.8594 4.7792 15.1446 4.65948 15.1971C4.32453 15.3449 3.94908 15.3896 3.58592 15.3248C3.22277 15.2601 2.89017 15.0892 2.6349 14.8361C2.4474 14.675 2.29668 14.4793 2.19203 14.261C2.08738 14.0427 2.03101 13.8065 2.02639 13.5668C2.02177 13.3271 2.069 13.089 2.16518 12.8672C2.26135 12.6455 2.40443 12.4447 2.58561 12.2773C2.7018 12.1714 4.40861 11.045 4.42534 11.0608C4.44206 11.0767 4.86194 11.6603 5.38041 12.3823ZM9.05899 16.5419C9.85121 17.6525 10.5343 18.618 10.5633 18.6889C10.6028 18.7931 10.62 18.9038 10.6138 19.0144C10.6076 19.1251 10.5782 19.2334 10.5273 19.3332C10.4764 19.4329 10.4051 19.5221 10.3174 19.5954C10.2297 19.6687 10.1275 19.7247 10.0167 19.7602C9.89283 19.7929 9.76304 19.8004 9.63589 19.7822C9.50875 19.7639 9.38713 19.7204 9.27905 19.6543C9.06339 19.5051 6.03092 15.2863 6.11014 15.2438C6.13919 15.2279 6.40855 15.0553 6.70255 14.8594C7.19989 14.5259 7.25359 14.5059 7.42348 14.5142L7.60569 14.5217L9.05899 16.5419Z" fill="black" stroke="black" stroke-width="0.5"/>
</svg>
