<svg width="21" height="21" viewBox="0 0 21 21" fill="none" xmlns="http://www.w3.org/2000/svg">
<rect width="21" height="21" fill="#E5E5E5"/>
<g id="Other Icon">
<g id="Attachment">
<path id="attach icon" d="M9.3698 20.1323C8.52075 20.1316 7.68095 19.9561 6.9027 19.6167C6.12445 19.2773 5.42443 18.7812 4.84624 18.1595C3.6546 16.8783 2.99219 15.1935 2.99219 13.4438C2.99219 11.6942 3.6546 10.0093 4.84624 8.72819L11.6199 1.57665C12.0432 1.12104 12.5559 0.757615 13.126 0.509102C13.6961 0.260589 14.3113 0.132324 14.9332 0.132324C15.5551 0.132324 16.1703 0.260589 16.7404 0.509102C17.3105 0.757615 17.8232 1.12104 18.2465 1.57665C19.1141 2.51327 19.5961 3.7429 19.5961 5.01959C19.5961 6.29628 19.1141 7.52591 18.2465 8.46253L12.0856 14.9716C11.8159 15.2609 11.4895 15.4917 11.1268 15.6495C10.7641 15.8074 10.3729 15.889 9.97731 15.8892C9.58209 15.8889 9.19116 15.8072 8.82883 15.6494C8.4665 15.4915 8.1405 15.2608 7.87112 14.9716C7.32468 14.3812 7.02114 13.6064 7.02114 12.8019C7.02114 11.9975 7.32468 11.2226 7.87112 10.6322L12.8328 5.39532C12.9583 5.26283 13.1313 5.18561 13.3137 5.18065C13.4961 5.17568 13.673 5.24339 13.8055 5.36886C13.938 5.49433 14.0152 5.6673 14.0202 5.84971C14.0251 6.03212 13.9574 6.20903 13.832 6.34152L8.86812 11.5784C8.55956 11.9111 8.3881 12.3482 8.3881 12.8019C8.3881 13.2557 8.55956 13.6927 8.86812 14.0254C9.00906 14.18 9.18069 14.3034 9.37204 14.3879C9.56339 14.4724 9.77026 14.516 9.97943 14.516C10.1886 14.516 10.3955 14.4724 10.5868 14.3879C10.7782 14.3034 10.9498 14.18 11.0907 14.0254L17.259 7.51739C17.888 6.83828 18.2374 5.94679 18.2374 5.02118C18.2374 4.09557 17.888 3.20408 17.259 2.52497C16.9643 2.20495 16.6065 1.94951 16.2081 1.77479C15.8097 1.60007 15.3794 1.50986 14.9443 1.50986C14.5093 1.50986 14.079 1.60007 13.6806 1.77479C13.2822 1.94951 12.9243 2.20495 12.6296 2.52497L5.85595 9.6765C4.9064 10.7019 4.37889 12.0479 4.37889 13.4454C4.37889 14.8429 4.9064 16.189 5.85595 17.2143C6.30453 17.7007 6.849 18.0889 7.45504 18.3544C8.06109 18.6199 8.71556 18.7569 9.3772 18.7569C10.0389 18.7569 10.6933 18.6199 11.2994 18.3544C11.9054 18.0889 12.4499 17.7007 12.8985 17.2143L17.6612 12.1838C17.7867 12.0513 17.9597 11.9741 18.1421 11.9692C18.3245 11.9642 18.5014 12.0319 18.6339 12.1574C18.7664 12.2828 18.8436 12.4558 18.8485 12.6382C18.8535 12.8206 18.7858 12.9975 18.6603 13.13L13.8976 18.1605C13.3188 18.7826 12.6181 19.2788 11.8391 19.618C11.06 19.9573 10.2195 20.1323 9.3698 20.1323Z" fill="black"/>
</g>
</g>
</svg>
