<svg width="21" height="21" viewBox="0 0 21 21" fill="none" xmlns="http://www.w3.org/2000/svg">
<path d="M8.18807 0.186573C7.72233 0.321395 7.32557 0.629071 7.0788 1.04676C6.86402 1.46427 6.81924 1.94883 6.95388 2.39869L7.03217 2.64875L4.89191 4.78669L2.75664 6.92463L2.50681 6.84626C2.1938 6.74804 1.8593 6.74112 1.5425 6.82629C1.22569 6.91147 0.939693 7.08521 0.717986 7.32719C0.472056 7.58937 0.31278 7.92101 0.261821 8.27699C0.210861 8.63297 0.270691 8.99604 0.433173 9.31678C0.538937 9.53933 0.766287 9.77771 2.80328 11.8173C4.25982 13.2709 5.12259 14.1078 5.24418 14.1744C5.59254 14.3751 5.9983 14.4523 6.39592 14.3937C6.74625 14.3372 7.07171 14.1772 7.33051 13.9342C7.58931 13.6912 7.76962 13.3763 7.8483 13.03C7.90304 12.7159 7.88307 12.3932 7.79 12.0882L7.72754 11.9165L8.18058 11.463L8.62945 11.0138L9.19991 11.5806C9.66877 12.0457 10.2775 12.7725 12.6443 15.6839C14.2266 17.6301 15.6007 19.2955 15.6981 19.3888C16.0891 19.7572 16.5792 20.0032 17.108 20.0965C17.8112 20.21 18.5306 20.0396 19.1084 19.6226C19.6861 19.2057 20.0749 18.5763 20.1893 17.8727C20.25 17.4697 20.2194 17.0582 20.0997 16.6687C19.9801 16.2792 19.7745 15.9215 19.4981 15.6222C19.3965 15.5131 17.721 14.1294 15.7764 12.5466C12.875 10.182 12.1405 9.56432 11.6758 9.09923L11.1095 8.52828L11.5625 8.07485L12.0156 7.62144L12.2071 7.68811C12.4486 7.76769 12.7045 7.79376 12.9571 7.76447C13.2096 7.73518 13.4528 7.65124 13.6697 7.5185C13.8867 7.38576 14.0721 7.20737 14.2133 6.99573C14.3545 6.78408 14.448 6.54423 14.4873 6.29281C14.5476 5.88124 14.4634 5.46147 14.2491 5.10508C14.1825 4.99923 13.1515 3.93235 11.8981 2.67793C9.85198 0.630008 9.64461 0.434137 9.4106 0.324948C9.03381 0.130429 8.59875 0.0811783 8.18807 0.186573ZM8.84014 1.35347C8.9101 1.38431 9.89029 2.33868 11.1403 3.58894C13.0382 5.49599 13.3155 5.79357 13.3389 5.91859C13.3553 6.0209 13.3448 6.1257 13.3084 6.22271C13.272 6.31972 13.2111 6.40559 13.1315 6.47186C13.0519 6.53814 12.9565 6.58255 12.8546 6.6007C12.7526 6.61885 12.6477 6.61012 12.5502 6.57539C12.4253 6.52871 8.19224 2.31534 8.1023 2.15114C8.06047 2.05832 8.0418 1.95674 8.04789 1.85511C8.05398 1.75347 8.08466 1.65484 8.13727 1.5677C8.20874 1.45408 8.31845 1.36976 8.44659 1.33002C8.57473 1.29028 8.71284 1.29772 8.83598 1.35098L8.84014 1.35347ZM9.47306 5.20678L11.1128 6.84794L9.03085 8.92753L6.95305 11.0113L5.3133 9.36763C4.41139 8.46495 3.67354 7.71061 3.67354 7.68727C3.67354 7.63643 7.74253 3.56393 7.79333 3.56393C7.81665 3.5631 8.57032 4.30241 9.47223 5.2051L9.47306 5.20678ZM2.25697 7.99566C2.42353 8.08568 6.63076 12.3224 6.6774 12.4474C6.72744 12.584 6.72518 12.7342 6.67105 12.8692C6.61691 13.0042 6.51475 13.1144 6.38426 13.1784C6.31648 13.2229 6.23809 13.2485 6.15716 13.2526C6.07622 13.2567 5.99565 13.2391 5.92373 13.2017C5.85377 13.1709 4.87359 12.2165 3.62357 10.9663C1.29594 8.62498 1.34674 8.68749 1.42502 8.38242C1.44713 8.29753 1.48773 8.21856 1.5439 8.15121C1.60007 8.08385 1.67042 8.02975 1.74993 7.99279C1.82943 7.95583 1.91611 7.93694 2.00377 7.93744C2.09143 7.93793 2.17789 7.9578 2.25697 7.99566ZM10.6914 10.587L10.27 11.0088L9.86031 10.5987L9.45058 10.1886L9.86697 9.77187L10.2884 9.35011L10.6981 9.76019L11.1078 10.1703L10.6914 10.587ZM15.2293 13.6085C17.0023 15.0504 18.5329 16.3174 18.6304 16.4182C18.9026 16.6998 19.0526 17.0777 19.0474 17.4695C19.0423 17.8613 18.8825 18.2352 18.6029 18.5095C18.3399 18.7745 17.9876 18.9318 17.6149 18.9506C17.2422 18.9694 16.8758 18.8484 16.5875 18.6112C16.4585 18.502 11.2727 12.1699 11.1286 11.9432C11.0737 11.8598 11.0853 11.8414 11.4992 11.423C11.6422 11.2658 11.7991 11.1218 11.9681 10.9929C11.9914 10.9913 13.4596 12.1698 15.2326 13.6076L15.2293 13.6085Z" fill="black"/>
<path d="M1.64646 16.6599C1.38728 16.7178 1.14406 16.8322 0.934173 16.995C0.724283 17.1579 0.552899 17.365 0.432257 17.6018C0.250505 18.0336 0.183099 18.505 0.236552 18.9704C0.236552 19.7831 0.275693 19.9164 0.548847 20.054C0.697082 20.1323 0.7712 20.1323 4.33636 20.1323C7.90151 20.1323 7.97563 20.1323 8.12386 20.054C8.39702 19.9131 8.43616 19.7806 8.43616 18.9704C8.43972 18.6663 8.42694 18.3622 8.39785 18.0594C8.32996 17.7126 8.16037 17.394 7.91073 17.1442C7.66109 16.8943 7.34273 16.7246 6.99627 16.6566C6.73811 16.6116 1.89629 16.6116 1.64646 16.6599ZM6.95297 17.8677C7.18698 17.9886 7.26526 18.1728 7.26526 18.6103V18.9621H1.40828V18.612C1.40828 18.1819 1.48656 17.9902 1.71308 17.8735C1.85382 17.7993 1.94709 17.7952 4.32969 17.7902C6.73228 17.7902 6.80473 17.7935 6.95297 17.8677Z" fill="black"/>
</svg>
