<svg width="21" height="21" viewBox="0 0 21 21" fill="none" xmlns="http://www.w3.org/2000/svg">
<g clip-path="url(#clip0_56_805)">
<path d="M6.54688 3.03467V5.94092L6.98828 5.96436C8.32422 6.03857 9.44922 6.52686 10.3984 7.44482C11.1719 8.19482 11.6211 8.97998 11.8906 10.0542C11.9844 10.4292 11.9961 10.5308 11.9961 11.2456C11.9961 11.9604 11.9844 12.062 11.8906 12.437C11.6211 13.5112 11.1719 14.2964 10.3984 15.0464C9.99609 15.437 9.53906 15.7651 9.08984 15.9917C8.47266 16.3003 7.48438 16.5386 6.82422 16.5386H6.54688V18.3354V20.1323H13.3242H20.1016L20.0938 12.4878L20.082 4.83936L17.7305 4.82764L15.375 4.81982V2.47607V0.132324H10.9609H6.54688V3.03467ZM14.2031 4.83936V5.44482H12.4453H10.6875V4.83936V4.23389H12.4453H14.2031V4.83936ZM17.75 7.19092L17.7383 7.76904L15.0938 7.78076L12.4453 7.78857V7.20264V6.6167H15.1016H17.7617L17.75 7.19092ZM17.7578 9.54639V10.1323H15.3945H13.0312V9.54639V8.96045H15.3945H17.7578V9.54639ZM17.75 11.8979L17.7617 12.4761H15.3945H13.0312V11.8901V11.3042L15.3867 11.312L17.7383 11.3237L17.75 11.8979ZM17.75 14.2417L17.7617 14.8198H15.1016H12.4453V14.2339V13.6479L15.0938 13.6558L17.7383 13.6675L17.75 14.2417ZM17.75 16.605L17.7383 17.1831L14.2539 17.1948L10.7656 17.2026V16.6167V16.0308H14.2617H17.7617L17.75 16.605Z" fill="black"/>
<path d="M16.5469 2.06592V3.64795H18.1367H19.7305L18.1484 2.06592C17.2773 1.19482 16.5625 0.483887 16.5586 0.483887C16.5508 0.483887 16.5469 1.19482 16.5469 2.06592Z" fill="black"/>
<path d="M6.09324 7.1792C3.93699 7.53076 2.42137 9.4956 2.64012 11.6479C2.90574 14.2222 5.40965 15.9136 7.89402 15.1909C9.08152 14.8472 10.0776 13.9409 10.5503 12.7847C10.769 12.2417 10.855 11.7339 10.8315 11.1089C10.7964 10.2769 10.6011 9.64795 10.1714 8.9956C9.74168 8.34326 9.22215 7.89014 8.51902 7.54639C7.78855 7.19092 6.86277 7.05029 6.09324 7.1792Z" fill="black"/>
<path d="M1.38672 14.9253C0.417969 15.9058 0.359375 15.9917 0.359375 16.4604C0.359375 16.687 0.382812 16.7964 0.449219 16.937C0.714844 17.4878 1.30859 17.7495 1.88281 17.5737C2.10156 17.5073 2.16016 17.4565 3.00391 16.6167L3.89844 15.7339L3.58984 15.5034C3.19922 15.2143 2.67188 14.6753 2.44531 14.3433C2.34766 14.1987 2.26172 14.0776 2.25 14.0776C2.23438 14.0776 1.84766 14.4604 1.38672 14.9253Z" fill="black"/>
</g>
<defs>
<clipPath id="clip0_56_805">
<rect width="20" height="20" fill="white" transform="translate(0.21875 0.132324)"/>
</clipPath>
</defs>
</svg>
