<svg width="21" height="21" viewBox="0 0 21 21" fill="none" xmlns="http://www.w3.org/2000/svg">
<rect width="21" height="21" fill="#E5E5E5"/>
<g id="Other Icon">
<g id="BOQ">
<g id="BOQ_2">
<path id="Path 1853" d="M4.43347 0.157613C4.34813 0.187963 4.26476 0.223601 4.18384 0.264319L4.03906 0.341011L4.39686 0.52024C4.81122 0.711329 5.18196 0.985711 5.48605 1.32635C5.90827 1.76945 6.20745 2.31548 6.35391 2.91024C6.43046 3.19617 6.43712 3.57714 6.43712 11.2465C6.43712 18.1655 6.44544 19.3134 6.49703 19.4918C6.53651 19.6198 6.60382 19.7373 6.69411 19.836C6.7844 19.9348 6.89543 20.0122 7.01918 20.0627C7.14294 20.1133 7.27635 20.1357 7.4098 20.1284C7.54325 20.121 7.67341 20.0842 7.79092 20.0204C7.86747 19.9778 8.51399 19.4368 9.22542 18.8308C9.93685 18.2247 10.5276 17.7221 10.5401 17.7221C10.5526 17.7221 11.1658 18.2339 11.8981 18.865C12.6303 19.496 13.2943 20.032 13.375 20.067C13.613 20.1549 13.876 20.1456 14.1072 20.0412C14.1905 19.9987 14.8436 19.466 15.5501 18.8558C16.2565 18.2456 16.8606 17.7512 16.8906 17.7471C16.9205 17.7429 17.5121 18.2331 18.2094 18.8308C18.9067 19.4285 19.5407 19.9603 19.6239 20.012C19.7468 20.0827 19.8845 20.1235 20.026 20.1311C20.1674 20.1386 20.3087 20.1126 20.4383 20.0553C20.5679 19.998 20.6822 19.911 20.7721 19.8012C20.8619 19.6915 20.9246 19.5621 20.9553 19.4235C20.9894 19.2568 20.9977 17.1677 20.9894 11.2206L20.9702 3.25286L20.8721 2.90357C20.711 2.259 20.3783 1.67037 19.9093 1.20053C19.4403 0.730693 18.8528 0.397305 18.2094 0.235975L17.8608 0.141777L11.2041 0.133439C7.53547 0.128437 4.49504 0.140941 4.43347 0.157613ZM16.9147 3.91392C17.0199 3.99033 17.1131 4.08223 17.1909 4.18651C17.2927 4.32969 17.334 4.50735 17.3058 4.68085C17.334 4.85436 17.2927 5.03201 17.1909 5.17519C17.1131 5.27948 17.0199 5.37138 16.9147 5.44779L16.7574 5.55449H10.6633L10.506 5.44779C10.4007 5.37138 10.3076 5.27948 10.2297 5.17519C10.127 5.03022 10.0857 4.8504 10.1149 4.67502C10.0999 4.58552 10.1034 4.49387 10.1253 4.4058C10.1472 4.31774 10.187 4.23514 10.2422 4.16317C10.329 4.05078 10.4356 3.95528 10.5568 3.88141L10.7481 3.78304L13.7528 3.79138L16.7574 3.80388L16.9147 3.91392ZM16.7957 7.491C16.947 7.5626 17.0758 7.67437 17.1681 7.81416C17.2604 7.95396 17.3127 8.11642 17.3193 8.28391C17.3259 8.45139 17.2865 8.61749 17.2055 8.76414C17.1245 8.91079 17.0049 9.0324 16.8598 9.11573L16.6684 9.22243H13.7103C10.7656 9.22243 10.7523 9.22243 10.5825 9.12823C10.4293 9.0544 10.3012 8.937 10.2142 8.79067C10.1272 8.64434 10.0851 8.47558 10.0933 8.30545C10.0928 8.18347 10.118 8.06276 10.1672 7.95116C10.2164 7.83957 10.2884 7.73959 10.3787 7.65772C10.6425 7.40764 10.5318 7.4143 13.707 7.4143C16.4387 7.41014 16.6384 7.41847 16.7957 7.491ZM16.8381 11.1489C16.9885 11.2207 17.1149 11.3347 17.2017 11.4771C17.2886 11.6194 17.3323 11.7841 17.3274 11.9509C17.3276 12.1262 17.2776 12.2979 17.1834 12.4457C17.0891 12.5934 16.9546 12.711 16.7957 12.7845C16.6343 12.857 16.4554 12.8679 13.717 12.8679C12.6954 12.9309 11.6703 12.908 10.6524 12.7995C10.4883 12.7319 10.3475 12.6175 10.2477 12.4705C10.1478 12.3235 10.0933 12.1504 10.0908 11.9726C10.0822 11.7667 10.1455 11.5644 10.2697 11.4002C10.3939 11.236 10.5713 11.1204 10.7714 11.0731C10.8313 11.0564 12.1801 11.0431 13.7719 11.0472C16.6434 11.0556 16.6684 11.0556 16.839 11.1489H16.8381Z" fill="black"/>
<path id="Path 1854" d="M2.22915 1.85996C1.92521 1.9673 1.65457 2.15241 1.4441 2.39691C1.23362 2.64141 1.09062 2.93681 1.02929 3.25378C0.995178 3.43717 0.986857 4.49421 0.995178 6.94173C1.00766 10.3596 1.00766 10.3738 1.10168 10.5446C1.19347 10.7367 1.35249 10.8883 1.54851 10.9706C2.08757 11.0549 2.63456 11.0765 3.17856 11.0348H4.64635V7.2385C4.64635 4.59508 4.63387 3.37965 4.59975 3.2221C4.53832 2.94753 4.41621 2.69027 4.24239 2.46925C4.06858 2.24823 3.8475 2.06908 3.59543 1.94499C3.37763 1.82805 3.13137 1.7749 2.88483 1.7916C2.66391 1.77074 2.44105 1.79397 2.22915 1.85996Z" fill="black"/>
</g>
</g>
</g>
</svg>
