<svg width="21" height="21" viewBox="0 0 21 21" fill="none" xmlns="http://www.w3.org/2000/svg">
<g clip-path="url(#clip0_904_6604)">
<path d="M5.78482 2.28076C3.44107 3.37061 1.48795 4.29639 1.43717 4.33154C1.34342 4.39795 1.32389 4.55029 1.40201 4.6167C1.4606 4.66748 10.1676 8.33545 10.2223 8.33545C10.277 8.33545 18.8903 4.70654 18.9997 4.64014C19.1012 4.57373 19.1129 4.42529 19.0192 4.34326C18.9801 4.30811 17.0231 3.38232 14.6676 2.28467C11.027 0.589355 10.359 0.288574 10.2145 0.288574C10.0739 0.29248 9.30826 0.63623 5.78482 2.28076Z" fill="black"/>
<path d="M0.28125 5.66357C0.226562 5.71826 0.21875 6.24561 0.21875 10.8784C0.21875 15.9683 0.21875 16.0347 0.296875 16.187C0.339844 16.2729 0.417969 16.3706 0.46875 16.4058C0.621094 16.5034 9.32812 19.9761 9.42578 19.9761C9.47266 19.9761 9.53125 19.9409 9.55469 19.9019C9.61719 19.7808 9.60938 9.54248 9.54688 9.46045C9.49219 9.39404 0.507812 5.60107 0.402344 5.60107C0.371094 5.60107 0.3125 5.62842 0.28125 5.66357Z" fill="black"/>
<path d="M15.4405 7.50732C12.9522 8.55811 10.8975 9.44092 10.878 9.47217C10.8272 9.5542 10.8311 19.8042 10.8819 19.9019C10.9053 19.9409 10.9639 19.9761 11.0108 19.9761C11.1085 19.9761 19.8155 16.5034 19.9678 16.4058C20.0186 16.3706 20.0967 16.2729 20.1397 16.187C20.2178 16.0347 20.2178 15.9683 20.2178 10.8784C20.2178 6.24561 20.21 5.71826 20.1553 5.66357C20.1241 5.62842 20.0655 5.60107 20.0303 5.60107C19.9952 5.60107 17.9288 6.46045 15.4405 7.50732Z" fill="black"/>
</g>
<defs>
<clipPath id="clip0_904_6604">
<rect width="20" height="20" fill="white" transform="translate(0.21875 0.132324)"/>
</clipPath>
</defs>
</svg>
