<svg width="19" height="14" viewBox="0 0 19 14" fill="none" xmlns="http://www.w3.org/2000/svg">
<rect width="19" height="14" fill="#E5E5E5"/>
<g id="Other Icon">
<g id="Bubble">
<rect y="0.132324" width="19" height="13" rx="6.5" fill="#FF0000"/>
<path id="10" d="M7.3782 3.58687V10.1323H5.99432V4.90043H5.95597L4.45703 5.84007V4.61279L6.07741 3.58687H7.3782ZM11.5003 10.2761C10.9506 10.274 10.4775 10.1387 10.0812 9.87025C9.68706 9.60178 9.38343 9.21293 9.17037 8.7037C8.95943 8.19447 8.85502 7.5819 8.85716 6.86599C8.85716 6.15221 8.96262 5.5439 9.17356 5.04106C9.38663 4.53822 9.69025 4.15576 10.0844 3.89369C10.4807 3.62948 10.9527 3.49738 11.5003 3.49738C12.0479 3.49738 12.5187 3.62948 12.9129 3.89369C13.3092 4.15789 13.6139 4.54141 13.827 5.04426C14.04 5.54497 14.1455 6.15221 14.1434 6.86599C14.1434 7.58403 14.0368 8.19767 13.8238 8.7069C13.6128 9.21613 13.3103 9.60498 12.9161 9.87345C12.5219 10.1419 12.05 10.2761 11.5003 10.2761ZM11.5003 9.12877C11.8753 9.12877 12.1746 8.94021 12.3983 8.56308C12.6221 8.18595 12.7329 7.62025 12.7307 6.86599C12.7307 6.36954 12.6796 5.95619 12.5773 5.62593C12.4772 5.29568 12.3344 5.04745 12.1491 4.88126C11.9658 4.71507 11.7496 4.63197 11.5003 4.63197C11.1274 4.63197 10.8291 4.8184 10.6054 5.19127C10.3817 5.56414 10.2687 6.12238 10.2666 6.86599C10.2666 7.36883 10.3167 7.78857 10.4168 8.12522C10.5191 8.45974 10.6629 8.71116 10.8483 8.87948C11.0336 9.04568 11.251 9.12877 11.5003 9.12877Z" fill="white"/>
</g>
</g>
</svg>
