<svg width="25" height="25" viewBox="0 0 25 25" fill="none" xmlns="http://www.w3.org/2000/svg">
<rect width="25" height="25" fill="#E5E5E5"/>
<g id="Other Icon">
<g id="Business" clip-path="url(#clip0_0_1)">
<path id="Vector" d="M10.1426 16.1323V15.1323H3.15258L3.14258 19.1323C3.14258 20.2423 4.03258 21.1323 5.14258 21.1323H19.1426C20.2526 21.1323 21.1426 20.2423 21.1426 19.1323V15.1323H14.1426V16.1323H10.1426ZM20.1426 7.13232H16.1326V5.13232L14.1326 3.13232H10.1326L8.13258 5.13232V7.13232H4.14258C3.04258 7.13232 2.14258 8.03232 2.14258 9.13232V12.1323C2.14258 13.2423 3.03258 14.1323 4.14258 14.1323H10.1426V12.1323H14.1426V14.1323H20.1426C21.2426 14.1323 22.1426 13.2323 22.1426 12.1323V9.13232C22.1426 8.03232 21.2426 7.13232 20.1426 7.13232ZM14.1426 7.13232H10.1426V5.13232H14.1426V7.13232Z" fill="black"/>
</g>
</g>
<defs>
<clipPath id="clip0_0_1">
<rect width="24" height="24" fill="white" transform="translate(0.142578 0.132324)"/>
</clipPath>
</defs>
</svg>
