<svg width="21" height="21" viewBox="0 0 21 21" fill="none" xmlns="http://www.w3.org/2000/svg">
<rect width="21" height="21" fill="#E5E5E5"/>
<g id="Other Icon">
<g id="calender icon">
<path id="calender icon_2" d="M17.3814 0.132324C18.339 0.132324 19.2575 0.512724 19.9346 1.18984C20.6118 1.86695 20.9922 2.78532 20.9922 3.74291V16.5217C20.9922 17.4793 20.6118 18.3977 19.9346 19.0748C19.2575 19.7519 18.339 20.1323 17.3814 20.1323H4.60297C4.1287 20.1323 3.65908 20.0389 3.22093 19.8574C2.78277 19.6759 2.38467 19.4098 2.04937 19.0744C1.71406 18.739 1.44811 18.3409 1.26672 17.9027C1.08533 17.4645 0.99204 16.9949 0.992188 16.5206V3.74291C0.992188 2.78532 1.37261 1.86695 2.04976 1.18984C2.72692 0.512724 3.64533 0.132324 4.60297 0.132324H17.3814ZM19.3264 6.24263H2.65913V16.5206C2.65913 17.0364 2.86405 17.5311 3.2288 17.8958C3.59355 18.2606 4.08826 18.4655 4.60409 18.4655H17.3836C17.8995 18.4655 18.3942 18.2606 18.7589 17.8958C19.1237 17.5311 19.3286 17.0364 19.3286 16.5206L19.3264 6.24263ZM6.26992 12.9112C6.54462 12.9112 6.81316 12.9926 7.04157 13.1452C7.26998 13.2978 7.448 13.5147 7.55313 13.7685C7.65825 14.0223 7.68576 14.3016 7.63217 14.571C7.57857 14.8404 7.44629 15.0879 7.25204 15.2821C7.0578 15.4763 6.81031 15.6086 6.54089 15.6622C6.27146 15.7158 5.99219 15.6883 5.7384 15.5832C5.4846 15.478 5.26768 15.3 5.11506 15.0716C4.96244 14.8432 4.88098 14.5747 4.88098 14.3C4.88098 13.9317 5.02732 13.5784 5.28779 13.3179C5.54827 13.0575 5.90155 12.9112 6.26992 12.9112ZM10.9916 12.9112C11.2663 12.9112 11.5349 12.9926 11.7633 13.1452C11.9917 13.2978 12.1697 13.5147 12.2748 13.7685C12.38 14.0223 12.4075 14.3016 12.3539 14.571C12.3003 14.8404 12.168 15.0879 11.9738 15.2821C11.7795 15.4763 11.532 15.6086 11.2626 15.6622C10.9932 15.7158 10.7139 15.6883 10.4601 15.5832C10.2063 15.478 9.98939 15.3 9.83677 15.0716C9.68415 14.8432 9.60269 14.5747 9.60269 14.3C9.60269 14.1175 9.63865 13.9368 9.70852 13.7683C9.7784 13.5997 9.88081 13.4465 10.0099 13.3176C10.139 13.1886 10.2922 13.0863 10.4609 13.0166C10.6295 12.9468 10.8091 12.911 10.9916 12.9112ZM6.26992 8.46547C6.54462 8.46547 6.81316 8.54693 7.04157 8.69954C7.26998 8.85215 7.448 9.06906 7.55313 9.32284C7.65825 9.57662 7.68576 9.85587 7.63217 10.1253C7.57857 10.3947 7.44629 10.6422 7.25204 10.8364C7.0578 11.0306 6.81031 11.1629 6.54089 11.2165C6.27146 11.2701 5.99219 11.2426 5.7384 11.1375C5.4846 11.0323 5.26768 10.8543 5.11506 10.6259C4.96244 10.3975 4.88098 10.129 4.88098 9.85433C4.88098 9.48598 5.02732 9.13272 5.28779 8.87226C5.54827 8.6118 5.90155 8.46547 6.26992 8.46547ZM10.9916 8.46547C11.2663 8.46547 11.5349 8.54693 11.7633 8.69954C11.9917 8.85215 12.1697 9.06906 12.2748 9.32284C12.38 9.57662 12.4075 9.85587 12.3539 10.1253C12.3003 10.3947 12.168 10.6422 11.9738 10.8364C11.7795 11.0306 11.532 11.1629 11.2626 11.2165C10.9932 11.2701 10.7139 11.2426 10.4601 11.1375C10.2063 11.0323 9.98939 10.8543 9.83677 10.6259C9.68415 10.3975 9.60269 10.129 9.60269 9.85433C9.60269 9.67185 9.63865 9.49115 9.70852 9.32258C9.7784 9.154 9.88081 9.00084 10.0099 8.87186C10.139 8.74288 10.2922 8.6406 10.4609 8.57087C10.6295 8.50114 10.8091 8.46532 10.9916 8.46547ZM15.7133 8.46547C15.988 8.46547 16.2566 8.54693 16.485 8.69954C16.7134 8.85215 16.8914 9.06906 16.9965 9.32284C17.1017 9.57662 17.1292 9.85587 17.0756 10.1253C17.022 10.3947 16.8897 10.6422 16.6955 10.8364C16.5012 11.0306 16.2537 11.1629 15.9843 11.2165C15.7149 11.2701 15.4356 11.2426 15.1818 11.1375C14.928 11.0323 14.7111 10.8543 14.5585 10.6259C14.4059 10.3975 14.3244 10.129 14.3244 9.85433C14.3244 9.67185 14.3604 9.49115 14.4302 9.32258C14.5001 9.154 14.6025 9.00084 14.7316 8.87186C14.8607 8.74288 15.0139 8.6406 15.1826 8.57087C15.3512 8.50114 15.5308 8.46532 15.7133 8.46547ZM17.3814 1.79918H4.60297C4.08753 1.79947 3.59328 2.00436 3.2288 2.36881C2.86432 2.73327 2.65943 3.22749 2.65913 3.74291V4.57577H19.3252V3.74291C19.3249 3.22749 19.1201 2.73327 18.7556 2.36881C18.3911 2.00436 17.8969 1.79947 17.3814 1.79918Z" fill="#212121"/>
</g>
</g>
</svg>
