<svg width="56" height="56" viewBox="0 0 56 56" fill="none" xmlns="http://www.w3.org/2000/svg">
<path d="M28 56C43.464 56 56 43.464 56 28C56 12.536 43.464 0 28 0C12.536 0 0 12.536 0 28C0 43.464 12.536 56 28 56Z" fill="#FF0000"/>
<path d="M24.1373 16.835C23.7703 16.893 23.4237 17.0419 23.1289 17.2681C22.8341 17.4943 22.6005 17.7905 22.4493 18.13C22.3055 18.455 22.2189 18.8025 22.1933 19.157V19.329L19.9433 19.352C17.4963 19.375 17.5653 19.363 16.9433 19.707C16.6946 19.8617 16.4718 20.0547 16.2833 20.279C16.0329 20.5331 15.8369 20.8356 15.7073 21.168C15.5996 21.4265 15.5156 21.6943 15.4563 21.968C15.4173 22.19 15.4023 24.574 15.4023 29.302C15.4023 35.092 15.4173 36.37 15.4713 36.676C15.572 37.2268 15.8168 37.7412 16.1807 38.1668C16.5446 38.5924 17.0148 38.914 17.5433 39.099C17.8243 39.193 18.2723 39.199 28.0043 39.199C37.5643 39.199 38.1893 39.194 38.4843 39.099C38.9621 38.928 39.3919 38.6452 39.738 38.2741C40.084 37.903 40.3362 37.4545 40.4733 36.966L40.5813 36.643L40.5963 29.443C40.6113 21.486 40.6213 21.83 40.2963 21.097C40.0076 20.536 39.5848 20.0551 39.0653 19.697C38.4403 19.353 38.5093 19.364 36.0653 19.342L33.8153 19.319L33.7853 19.058C33.7568 18.5814 33.591 18.1233 33.308 17.7388C33.025 17.3543 32.6369 17.0599 32.1903 16.891C30.8647 16.7478 29.5295 16.7144 28.1983 16.791C26.1263 16.796 24.2993 16.812 24.1373 16.835ZM32.0133 18.329C32.4133 18.535 32.5303 18.829 32.5303 19.618C32.5303 20.241 32.5943 20.479 32.8163 20.652C32.9393 20.746 33.1463 20.752 35.5583 20.78L38.1673 20.808L38.4383 20.952C38.7934 21.1471 39.0701 21.4591 39.2213 21.835L39.3493 22.141V36.31L39.2363 36.627C39.0821 37.0419 38.7855 37.3885 38.3993 37.605L38.1183 37.755H17.8853L17.6043 37.605C17.2216 37.3937 16.9293 37.0498 16.7823 36.638C16.6823 36.338 16.6823 36.265 16.6823 29.281C16.6823 22.324 16.6823 22.224 16.7823 21.924C16.9175 21.5202 17.1937 21.1786 17.5603 20.962L17.8413 20.807L20.4503 20.779C21.3571 20.8108 22.265 20.7794 23.1673 20.685C23.4083 20.524 23.4873 20.312 23.5073 19.707C23.5223 19.396 23.5413 19.057 23.5563 18.957C23.6274 18.6834 23.802 18.4482 24.0433 18.301C25.3615 18.1943 26.6851 18.1702 28.0063 18.229C31.5993 18.219 31.8263 18.229 32.0133 18.329Z" fill="white"/>
<path d="M27.6609 25.232C27.3247 25.2657 26.9931 25.3355 26.6719 25.44C26.047 25.6406 25.4806 25.9907 25.0219 26.46C24.4011 27.0748 23.9876 27.868 23.8389 28.7289C23.7756 29.2389 23.7874 29.7554 23.8739 30.262C24.0603 31.2088 24.5696 32.0616 25.3148 32.6747C26.06 33.2879 26.9949 33.6234 27.9599 33.624C28.3954 33.6367 28.8298 33.5737 29.2439 33.4379C30.0769 33.1779 30.8099 32.6682 31.3439 31.978C31.8241 31.3492 32.1145 30.5963 32.1809 29.8079C32.2778 28.7574 31.9757 27.7088 31.3348 26.8708C30.6939 26.0328 29.7611 25.4666 28.7219 25.2849C28.3705 25.2359 28.0154 25.2181 27.6609 25.232V25.232ZM28.7869 26.259C29.0616 26.328 29.3264 26.4319 29.5749 26.568C29.9686 26.7861 30.3143 27.0814 30.5913 27.4362C30.8683 27.791 31.0708 28.198 31.1869 28.633C31.2753 29.1168 31.2861 29.6117 31.2189 30.099C31.0471 30.9348 30.5559 31.6707 29.8499 32.15C29.3039 32.5234 28.6563 32.7199 27.9949 32.7129C27.5253 32.7261 27.0594 32.627 26.6359 32.4239C26.2031 32.2343 25.8176 31.9511 25.5073 31.5947C25.1969 31.2384 24.9693 30.8177 24.8409 30.3629C24.7428 30.0689 24.7087 29.7572 24.7409 29.4489C24.7141 29.1426 24.7481 28.8341 24.8409 28.5409C25.0103 27.952 25.3404 27.422 25.7942 27.0101C26.2479 26.5982 26.8074 26.3208 27.4099 26.2089C27.8686 26.1471 28.3344 26.163 28.7879 26.2559L28.7869 26.259Z" fill="white" stroke="white"/>
<path d="M36.0494 22.7179C35.8401 22.8392 35.6675 23.0147 35.5498 23.2259C35.432 23.4371 35.3735 23.6762 35.3804 23.918C35.3571 24.1242 35.3896 24.3329 35.4746 24.5223C35.5595 24.7116 35.6938 24.8747 35.8633 24.9945C36.0328 25.1143 36.2314 25.1863 36.4383 25.2031C36.6451 25.2199 36.8527 25.1808 37.0393 25.09C37.2391 24.9663 37.4039 24.7937 37.5182 24.5885C37.6325 24.3833 37.6925 24.1523 37.6925 23.9174C37.6925 23.6826 37.6325 23.4516 37.5182 23.2464C37.4039 23.0412 37.2391 22.8686 37.0393 22.745C36.8877 22.6642 36.7193 22.6197 36.5475 22.615C36.3757 22.6104 36.2052 22.6456 36.0494 22.7179Z" fill="white"/>
</svg>
