<svg width="25" height="25" viewBox="0 0 25 25" fill="none" xmlns="http://www.w3.org/2000/svg">
<rect width="25" height="25" fill="#E5E5E5"/>
<g id="Other Icon">
<g id="Catalog">
<g id="Mask Group 67">
<path id="8665118_book_open_icon" d="M6.92742 4.00531C5.34852 4.03091 3.79338 4.39404 2.36642 5.07031C2.16437 5.16235 1.99319 5.31078 1.87345 5.49775C1.75371 5.68472 1.6905 5.90229 1.69142 6.12431V19.1013C1.69087 19.1981 1.71461 19.2935 1.76047 19.3788C1.80633 19.4641 1.87284 19.5365 1.95392 19.5894C2.035 19.6424 2.12806 19.6741 2.22458 19.6818C2.3211 19.6894 2.418 19.6728 2.50642 19.6333C3.78174 18.9838 5.20794 18.6884 6.63633 18.7777C8.06471 18.8671 9.44297 19.338 10.6274 20.1413C10.7288 20.2196 10.8533 20.2619 10.9814 20.2613C11.1351 20.2605 11.2823 20.1992 11.391 20.0906C11.4998 19.982 11.5614 19.835 11.5624 19.6813V5.74731C11.5627 5.65379 11.5404 5.5616 11.4974 5.47855C11.4543 5.39551 11.3919 5.32407 11.3154 5.27031C9.9985 4.44958 8.47914 4.01157 6.92742 4.00531ZM21.9184 5.07031C20.4883 4.40358 18.935 4.0419 17.3574 4.00831C15.807 4.0206 14.2895 4.45704 12.9694 5.27031C12.893 5.3237 12.8306 5.39478 12.7876 5.47749C12.7446 5.5602 12.7222 5.65209 12.7224 5.74531V19.6453C12.7199 19.7238 12.733 19.8019 12.7609 19.8753C12.7888 19.9487 12.831 20.0158 12.885 20.0727C12.9391 20.1296 13.0039 20.1753 13.0757 20.207C13.1475 20.2386 13.2249 20.2558 13.3034 20.2573C13.4319 20.2575 13.5568 20.2149 13.6584 20.1363C14.8429 19.333 16.2211 18.8621 17.6495 18.7727C19.0779 18.6834 20.5041 18.9788 21.7794 19.6283C21.8678 19.6678 21.9647 19.6844 22.0613 19.6768C22.1578 19.6691 22.2508 19.6374 22.3319 19.5844C22.413 19.5315 22.4795 19.4591 22.5254 19.3738C22.5712 19.2885 22.595 19.1931 22.5944 19.0963V6.12331C22.5879 5.90298 22.5215 5.68859 22.4024 5.50309C22.2833 5.3176 22.116 5.168 21.9184 5.07031Z" fill="black"/>
</g>
</g>
</g>
</svg>
