<svg width="20" height="21" viewBox="0 0 20 21" fill="none" xmlns="http://www.w3.org/2000/svg">
<rect width="20" height="21" fill="#E5E5E5"/>
<g id="Other Icon">
<g id="catlog">
<path id="Path 1847" d="M1.35237 0.2348C1.03338 0.350916 0.746982 0.547514 0.518745 0.807015C0.290507 1.06652 0.12754 1.38084 0.0443991 1.72193C0.0167998 1.8469 0 4.47124 0 9.70369C0 17.373 -1.07286e-07 17.5068 0.0803979 17.7655C0.179593 18.1109 0.362179 18.424 0.610708 18.6749C0.859237 18.9259 1.16541 19.1063 1.49996 19.1989C2.073 19.2734 2.6513 19.2943 3.22792 19.2613C4.61988 19.2613 4.73148 19.2613 4.87188 19.1826C5.01179 19.1187 5.12963 19.0118 5.20962 18.8763C5.28961 18.7407 5.32793 18.5829 5.31947 18.424C5.32174 18.2474 5.26876 18.0748 5.16852 17.9324C5.06829 17.7899 4.92626 17.6852 4.76388 17.6342C4.25449 17.586 3.74273 17.5706 3.23152 17.588H1.83235L1.71236 17.463L1.59236 17.3381V7.03937H18.3919V17.3256L18.2959 17.4418C18.1999 17.558 18.1879 17.558 17.6636 17.5792C17.4278 17.5599 17.191 17.5971 16.9712 17.688C16.8612 17.7516 16.767 17.8412 16.6961 17.9495C16.6253 18.0578 16.5797 18.1818 16.563 18.3117C16.5464 18.4416 16.5591 18.5737 16.6001 18.6976C16.6412 18.8215 16.7095 18.9336 16.7996 19.0251C16.9832 19.2039 17.1596 19.2463 17.7236 19.2463C17.981 19.2551 18.2385 19.2341 18.4915 19.1838C18.8267 19.0934 19.1339 18.9149 19.3839 18.6655C19.6339 18.4161 19.8183 18.104 19.9195 17.7592C19.9999 17.5005 19.9999 17.363 19.9999 9.69744C19.9999 1.23204 20.0119 1.71567 19.7803 1.24079C19.5349 0.753245 19.1157 0.385368 18.6127 0.216074C18.3571 0.132345 18.2527 0.132324 9.98375 0.132324L1.61996 0.138579L1.35237 0.2348ZM18.2851 1.92563L18.4051 2.0506V5.39229H1.60556V2.0506L1.72556 1.92563L1.84555 1.80065H18.1699L18.2851 1.92563Z" fill="#D2FFF5"/>
<path id="Path 1848" d="M11.5804 2.87912C11.3974 2.96283 11.2537 3.11881 11.1809 3.31278C11.1352 3.4401 11.1218 3.57754 11.1419 3.71185C11.162 3.84616 11.215 3.97278 11.2958 4.07953C11.3766 4.18629 11.4824 4.26957 11.6031 4.32133C11.7237 4.37308 11.8551 4.39158 11.9846 4.37502C12.1038 4.35712 12.2172 4.31012 12.3155 4.23784C12.4139 4.16557 12.4944 4.07007 12.5505 3.95917C12.6067 3.84827 12.6369 3.7251 12.6386 3.59973C12.6403 3.47435 12.6135 3.35033 12.5605 3.2378C12.4718 3.05906 12.321 2.92234 12.1388 2.85566C11.9566 2.78899 11.7569 2.79738 11.5804 2.87912Z" fill="#D2FFF5"/>
<path id="Path 1849" d="M13.776 2.88415C13.6211 2.96156 13.4959 3.09154 13.4212 3.25275C13.3464 3.41396 13.3265 3.59684 13.3646 3.77142C13.3917 3.8957 13.4476 4.01123 13.5273 4.10794C13.607 4.20466 13.7081 4.27965 13.8219 4.32643C13.9357 4.37322 14.0588 4.39039 14.1804 4.37643C14.302 4.36247 14.4185 4.31779 14.5198 4.24631C14.6198 4.17253 14.7014 4.07485 14.7577 3.96146C14.814 3.84806 14.8434 3.72228 14.8434 3.59461C14.8434 3.46695 14.814 3.34112 14.7577 3.22773C14.7014 3.11434 14.6198 3.01666 14.5198 2.94288C14.4103 2.86956 14.2849 2.82579 14.155 2.81554C14.0252 2.80529 13.8949 2.82887 13.776 2.88415Z" fill="#D2FFF5"/>
<path id="Path 1850" d="M15.9646 2.89665C15.8421 2.96407 15.7395 3.06506 15.6679 3.18871C15.5964 3.31236 15.5586 3.45397 15.5586 3.59834C15.5586 3.74272 15.5964 3.88437 15.6679 4.00802C15.7395 4.13166 15.8421 4.23265 15.9646 4.30007C16.0646 4.35059 16.1738 4.37793 16.2849 4.38024C16.396 4.38255 16.5062 4.35978 16.608 4.31346C16.7098 4.26714 16.8008 4.19839 16.8747 4.11194C16.9485 4.02549 17.0035 3.92339 17.0358 3.81268C17.0839 3.67246 17.0839 3.51927 17.0358 3.37905C17.0031 3.26866 16.9479 3.16694 16.8738 3.08093C16.7998 2.99492 16.7087 2.92663 16.6069 2.88079C16.5051 2.83494 16.395 2.81264 16.2841 2.81538C16.1732 2.81812 16.0642 2.84584 15.9646 2.89665Z" fill="#D2FFF5"/>
<path id="Path 1851" d="M3.32943 2.93416C3.21112 2.99549 3.11158 3.09 3.04199 3.20704C2.97241 3.32408 2.93555 3.45902 2.93555 3.59669C2.93555 3.73437 2.97241 3.86931 3.04199 3.98635C3.11158 4.10339 3.21112 4.19789 3.32943 4.25923C3.50583 4.34673 3.51783 4.34672 6.22616 4.33797L8.94289 4.32545L9.09049 4.22173C9.1895 4.15331 9.27072 4.06042 9.3269 3.95137C9.38308 3.84231 9.41249 3.72047 9.41249 3.59669C9.41249 3.47292 9.38308 3.35104 9.3269 3.24198C9.27072 3.13292 9.1895 3.04008 9.09049 2.97166L8.94289 2.86789L6.22256 2.85538C3.50463 2.84663 3.50103 2.84665 3.32943 2.93416Z" fill="#D2FFF5"/>
<path id="Path 1852" d="M6.1873 11.0322C6.00997 11.0841 5.85535 11.1984 5.74971 11.3556C5.64407 11.5127 5.5939 11.7031 5.60772 11.8944C5.63172 12.0857 8.58843 19.4813 8.72763 19.7013C8.79278 19.8025 8.88004 19.8861 8.98225 19.9454C9.08445 20.0048 9.1987 20.038 9.31562 20.0424C9.43864 20.0564 9.56307 20.0382 9.67766 19.9896C9.79226 19.9409 9.89341 19.8633 9.972 19.7637C10.071 19.6771 10.1501 19.5685 10.2034 19.4459C10.2568 19.3233 10.2831 19.1898 10.2804 19.0552C10.3402 18.619 10.456 18.1932 10.6248 17.7892C10.6596 17.7086 10.6997 17.6305 10.7448 17.5555C10.7532 17.543 11.3052 18.1017 11.9687 18.789C12.3875 19.245 12.828 19.6788 13.2887 20.0887C13.4901 20.1469 13.7029 20.1469 13.9043 20.0887C14.0442 20.02 14.1638 19.9133 14.2503 19.7798C14.3369 19.6463 14.3873 19.4909 14.3963 19.3301C14.3963 19.0139 14.3123 18.9052 13.0679 17.6093L11.868 16.3596L12.0995 16.2434C12.455 16.0636 12.8358 15.9442 13.2275 15.8897C13.7519 15.7935 13.8431 15.7522 14.0675 15.5023C14.1546 15.4135 14.2209 15.3049 14.2611 15.185C14.3012 15.0651 14.3143 14.9372 14.2991 14.8112C14.2543 14.5954 14.1451 14.3998 13.9871 14.2526C13.9355 14.2189 12.6227 13.6365 11.0748 12.9617C7.19408 11.2709 6.63488 11.0284 6.49808 11.0034C6.39367 10.9944 6.28855 11.0041 6.1873 11.0322ZM9.63961 14.1364C10.488 14.5113 11.184 14.815 11.1912 14.8237C11.0892 14.9152 10.9809 14.9987 10.8672 15.0737C10.2705 15.4902 9.76706 16.0358 9.39122 16.6733L9.29161 16.852L9.19922 16.6308C8.93883 15.9972 7.94764 13.5266 7.93084 13.4603C7.90325 13.3703 7.70406 13.2866 9.63961 14.1364Z" fill="#D2FFF5"/>
</g>
</g>
</svg>
