<svg width="21" height="21" viewBox="0 0 21 21" fill="none" xmlns="http://www.w3.org/2000/svg">
<rect width="21" height="21" fill="#E5E5E5"/>
<g id="Other Icon">
<g id="clock icon">
<path id="Path 129" d="M10.9922 20.1323C9.01438 20.1323 7.08098 19.5458 5.43649 18.447C3.792 17.3482 2.51027 15.7864 1.7534 13.9592C0.99652 12.1319 0.798487 10.1212 1.18434 8.18142C1.57019 6.24161 2.5226 4.45979 3.92112 3.06126C5.31965 1.66274 7.10148 0.710328 9.04129 0.324476C10.9811 -0.0613762 12.9918 0.136657 14.819 0.893533C16.6463 1.65041 18.2081 2.93213 19.3069 4.57663C20.4057 6.22112 20.9922 8.15451 20.9922 10.1323C20.9922 12.7845 19.9386 15.328 18.0633 17.2034C16.1879 19.0788 13.6444 20.1323 10.9922 20.1323ZM10.9922 1.67079C9.31866 1.67079 7.6827 2.16705 6.29121 3.09682C4.89972 4.02658 3.81518 5.34809 3.17475 6.89424C2.53432 8.44038 2.36675 10.1417 2.69324 11.7831C3.01973 13.4245 3.82561 14.9322 5.00898 16.1155C6.19235 17.2989 7.70005 18.1048 9.34143 18.4313C10.9828 18.7578 12.6841 18.5902 14.2303 17.9498C15.7764 17.3093 17.0979 16.2248 18.0277 14.8333C18.9575 13.4418 19.4537 11.8059 19.4537 10.1323C19.4537 7.88819 18.5622 5.73596 16.9754 4.14912C15.3886 2.56227 13.2363 1.67079 10.9922 1.67079Z" fill="black"/>
<path id="Path 130" d="M15.2227 15.1323C15.1215 15.1328 15.0212 15.1132 14.9276 15.0749C14.8339 15.0365 14.7488 14.98 14.677 14.9087L10.4463 10.6779C10.3749 10.6062 10.3185 10.521 10.2801 10.4274C10.2417 10.3338 10.2222 10.2335 10.2227 10.1323V3.97846C10.2227 3.77445 10.3037 3.57879 10.448 3.43453C10.5922 3.29027 10.7879 3.20923 10.9919 3.20923C11.1959 3.20923 11.3916 3.29027 11.5358 3.43453C11.6801 3.57879 11.7611 3.77445 11.7611 3.97846V9.81743L15.7683 13.8174C15.8766 13.925 15.9504 14.0624 15.9804 14.2121C16.0103 14.3617 15.9951 14.5169 15.9366 14.6579C15.8781 14.7989 15.779 14.9193 15.6518 15.0038C15.5247 15.0882 15.3753 15.133 15.2227 15.1323Z" fill="black"/>
</g>
</g>
</svg>
