<svg width="56" height="56" viewBox="0 0 56 56" fill="none" xmlns="http://www.w3.org/2000/svg">
<path d="M28 56C43.464 56 56 43.464 56 28C56 12.536 43.464 0 28 0C12.536 0 0 12.536 0 28C0 43.464 12.536 56 28 56Z" fill="#438EFF"/>
<path d="M27.053 16.868C26.3533 16.9902 25.6847 17.2496 25.0857 17.6313C24.4868 18.013 23.9692 18.5094 23.563 19.092C23.1441 19.735 22.861 20.4567 22.731 21.213C22.5347 22.5248 22.8311 23.8628 23.563 24.969C23.9717 25.5594 24.4959 26.0609 25.1038 26.4431C25.7117 26.8253 26.3907 27.0804 27.1 27.193C28.2085 27.3734 29.3455 27.181 30.3329 26.646C31.5142 26.0244 32.412 24.9735 32.8414 23.7097C33.2708 22.4459 33.1991 21.0655 32.641 19.853C32.1552 18.7563 31.2913 17.8708 30.207 17.358C29.2351 16.8614 28.1296 16.6897 27.053 16.868V16.868Z" fill="white"/>
<path d="M23.3902 28.809C22.2765 28.9646 21.228 29.4267 20.3617 30.1436C19.4954 30.8605 18.8454 31.8041 18.4842 32.869C18.2082 33.71 18.1992 33.808 18.1992 36.382C18.1992 38.699 18.1992 38.751 18.2992 38.877C18.3643 38.961 18.4395 39.0366 18.5232 39.102L18.6492 39.202H37.1402L37.2662 39.102C37.3499 39.0366 37.4251 38.961 37.4902 38.877C37.5902 38.751 37.5902 38.7 37.5902 36.382C37.6451 35.4594 37.617 34.5336 37.5062 33.616C37.2736 32.4515 36.7042 31.381 35.8687 30.5371C35.0332 29.6933 33.9683 29.1133 32.8062 28.869C31.237 28.7333 29.6606 28.7019 28.0872 28.775C25.6792 28.772 23.5672 28.786 23.3902 28.809Z" fill="white"/>
</svg>
