<svg width="25" height="25" viewBox="0 0 25 25" fill="none" xmlns="http://www.w3.org/2000/svg">
<rect width="25" height="25" fill="#E5E5E5"/>
<g id="Other Icon">
<g id="Customer Support" clip-path="url(#clip0_0_1)">
<g id="Mask Group 75">
<g id="8680316_headphone_fill_icon">
<path id="Path 198" d="M4.14258 12.1323H7.14258C7.67301 12.1323 8.18172 12.343 8.55679 12.7181C8.93186 13.0932 9.14258 13.6019 9.14258 14.1323V19.1323C9.14258 19.6628 8.93186 20.1715 8.55679 20.5465C8.18172 20.9216 7.67301 21.1323 7.14258 21.1323H4.14258C3.61215 21.1323 3.10344 20.9216 2.72836 20.5465C2.35329 20.1715 2.14258 19.6628 2.14258 19.1323V12.1323C2.14258 9.48016 3.19615 6.93662 5.07151 5.06126C6.94687 3.18589 9.49041 2.13232 12.1426 2.13232C14.7947 2.13232 17.3383 3.18589 19.2136 5.06126C21.089 6.93662 22.1426 9.48016 22.1426 12.1323V19.1323C22.1426 19.6628 21.9319 20.1715 21.5568 20.5465C21.1817 20.9216 20.673 21.1323 20.1426 21.1323H17.1426C16.6121 21.1323 16.1034 20.9216 15.7284 20.5465C15.3533 20.1715 15.1426 19.6628 15.1426 19.1323V14.1323C15.1426 13.6019 15.3533 13.0932 15.7284 12.7181C16.1034 12.343 16.6121 12.1323 17.1426 12.1323H20.1426C20.1426 10.0106 19.2997 7.97576 17.7994 6.47547C16.2991 4.97518 14.2643 4.13232 12.1426 4.13232C10.0208 4.13232 7.98601 4.97518 6.48572 6.47547C4.98543 7.97576 4.14258 10.0106 4.14258 12.1323Z" fill="black"/>
</g>
</g>
</g>
</g>
<defs>
<clipPath id="clip0_0_1">
<rect width="24" height="24" fill="white" transform="translate(0.142578 0.132324)"/>
</clipPath>
</defs>
</svg>
