<svg width="21" height="21" viewBox="0 0 21 21" fill="none" xmlns="http://www.w3.org/2000/svg">
<rect width="21" height="21" fill="#E5E5E5"/>
<g id="Other Icon">
<g id="Dashboard" clip-path="url(#clip0_0_1)">
<g id="Group">
<path id="Vector" d="M9.16527 2.22998C6.48948 2.50342 4.0598 3.81201 2.3723 5.89013C1.7473 6.65576 1.09105 7.81201 0.747297 8.7417C0.473859 9.47998 0.262922 10.4526 0.18089 11.3237C0.0480779 12.7769 0.282453 14.4019 0.829328 15.7886C1.1262 16.5347 1.66527 17.5464 1.91527 17.8198C2.05198 17.9722 2.26683 18.062 2.49339 18.062C2.68089 18.062 2.79808 18.0151 3.57542 17.6362C4.0598 17.4019 4.51292 17.1636 4.58714 17.105C5.01683 16.7612 4.9348 16.0894 4.43089 15.8315C4.14964 15.687 3.92698 15.7261 3.34886 16.0112C3.0637 16.1519 2.81761 16.2651 2.79808 16.2651C2.7473 16.2651 2.51292 15.7964 2.3098 15.2886C1.57542 13.4644 1.51292 11.4253 2.13402 9.56201L2.25902 9.19482L2.38011 9.24951C2.45042 9.28076 2.71605 9.40576 2.97386 9.53076C3.54027 9.8042 3.80589 9.84717 4.06761 9.69482C4.38402 9.51123 4.54808 9.11279 4.4387 8.78467C4.34886 8.50732 4.1848 8.37842 3.54808 8.07373C3.1223 7.8706 2.95823 7.77685 2.97777 7.7417C3.57542 6.72607 4.70042 5.6167 5.82152 4.94092C6.72777 4.39013 7.91136 3.97607 8.98167 3.82763L9.36058 3.77685V4.44482C9.36058 5.06201 9.36839 5.12842 9.45042 5.28857C9.4973 5.38232 9.60277 5.51513 9.6848 5.57763C9.82542 5.69092 9.86058 5.69873 10.1418 5.69873C10.4231 5.69873 10.4582 5.69092 10.5989 5.57763C10.6809 5.51513 10.7864 5.38232 10.8371 5.28857C10.9153 5.12842 10.9231 5.06201 10.9231 4.44873V3.78076L11.2825 3.82763C11.9895 3.92529 12.5871 4.08545 13.3332 4.37451C13.8371 4.57373 14.0246 4.58935 14.2825 4.45654C14.7668 4.21435 14.8489 3.57373 14.4426 3.20654C14.2785 3.0581 13.5559 2.75732 12.9348 2.58154C12.4778 2.44873 11.7043 2.29638 11.2278 2.2456C10.8801 2.20654 9.48558 2.19482 9.16527 2.22998Z" fill="black"/>
<path id="Vector_2" d="M16.2553 5.03467C15.9741 5.18311 10.7475 8.81592 9.49753 9.73779C8.43894 10.5151 8.17722 10.7886 7.96237 11.3433C7.45456 12.6323 8.20456 14.0894 9.55612 14.4487C9.83347 14.5229 10.4507 14.5229 10.728 14.4487C11.0757 14.3589 11.4975 14.1206 11.7397 13.8823C12.021 13.605 12.4585 13.0269 13.5288 11.519C14.8413 9.66748 17.2514 6.15967 17.3139 6.01123C17.4389 5.71045 17.3257 5.34326 17.0444 5.1167C16.9194 5.01514 16.8569 4.99561 16.6342 4.98389C16.4546 4.97607 16.3374 4.9917 16.2553 5.03467ZM13.4155 8.96826C13.3647 9.03857 12.9624 9.60498 12.5249 10.23C10.6186 12.937 10.5874 12.9683 10.0796 12.937C9.78269 12.9175 9.58737 12.7886 9.45065 12.5151C9.26706 12.1636 9.36862 11.8198 9.74362 11.5112C10.1577 11.1675 13.4038 8.84717 13.478 8.84326C13.4936 8.84326 13.4663 8.90186 13.4155 8.96826Z" fill="black"/>
<path id="Vector_3" d="M18.1807 7.71045C17.9932 7.81201 17.8526 7.99561 17.794 8.22608C17.7471 8.39404 17.751 8.43311 17.8526 8.71436C18.2041 9.69873 18.3135 10.0464 18.3994 10.4839C18.7471 12.2183 18.5674 13.9487 17.8721 15.5308C17.6572 16.019 17.5283 16.2651 17.4854 16.2651C17.4658 16.2651 17.2041 16.1519 16.9072 16.0112C16.458 15.8003 16.333 15.7573 16.1611 15.7573C15.4346 15.7573 15.0986 16.6597 15.6611 17.105C15.7354 17.1636 16.1963 17.4058 16.6885 17.6362C17.4776 18.0112 17.6065 18.062 17.7901 18.062C18.0166 18.062 18.2315 17.9722 18.3682 17.8198C18.4971 17.6831 18.8604 17.0737 19.0791 16.6362C20.2705 14.2456 20.4619 11.4956 19.6143 8.98779C19.3213 8.12451 19.1338 7.79639 18.8682 7.68701C18.6807 7.60889 18.3526 7.62061 18.1807 7.71045Z" fill="black"/>
</g>
</g>
</g>
<defs>
<clipPath id="clip0_0_1">
<rect width="20" height="20" fill="white" transform="translate(0.142578 0.132324)"/>
</clipPath>
</defs>
</svg>
