<svg width="20" height="21" viewBox="0 0 20 21" fill="none" xmlns="http://www.w3.org/2000/svg">
<rect width="20" height="21" fill="#E5E5E5"/>
<g id="Other Icon">
<g id="Delete">
<path id="Vector" d="M3.33377 17.9101C3.33377 19.1323 4.33377 20.1323 5.55599 20.1323H14.4449C15.6671 20.1323 16.6671 19.1323 16.6671 17.9101V4.57677H3.33377V17.9101ZM6.0671 9.99899L7.63377 8.43233L10.0004 10.7879L12.356 8.43233L13.9227 9.99899L11.5671 12.3545L13.9227 14.7101L12.356 16.2768L10.0004 13.9212L7.64488 16.2768L6.07821 14.7101L8.43377 12.3545L6.0671 9.99899ZM13.8893 1.24344L12.7782 0.132324H7.22266L6.11154 1.24344H2.22266V3.46566H17.7782V1.24344H13.8893Z" fill="black"/>
</g>
</g>
</svg>
