<svg width="21" height="21" viewBox="0 0 21 21" fill="none" xmlns="http://www.w3.org/2000/svg">
<rect width="21" height="21" fill="#E5E5E5"/>
<g id="Other Icon">
<g id="Button/Detect Location">
<path id="Detect Location" d="M19.1195 9.22323C18.7013 5.43232 15.6922 2.42323 11.9013 2.00505V0.132324H10.0831V2.00505C6.29219 2.42323 3.2831 5.43232 2.86491 9.22323H0.992188V11.0414H2.86491C3.2831 14.8323 6.29219 17.8414 10.0831 18.2596V20.1323H11.9013V18.2596C15.6922 17.8414 18.7013 14.8323 19.1195 11.0414H20.9922V9.22323H19.1195ZM10.9922 16.496C7.47401 16.496 4.62855 13.6505 4.62855 10.1323C4.62855 6.61414 7.47401 3.76869 10.9922 3.76869C14.5104 3.76869 17.3558 6.61414 17.3558 10.1323C17.3558 13.6505 14.5104 16.496 10.9922 16.496Z" fill="black"/>
</g>
</g>
</svg>
