<svg width="56" height="56" viewBox="0 0 56 56" fill="none" xmlns="http://www.w3.org/2000/svg">
<path d="M28 56C43.464 56 56 43.464 56 28C56 12.536 43.464 0 28 0C12.536 0 0 12.536 0 28C0 43.464 12.536 56 28 56Z" fill="#AD43FF"/>
<path d="M21.5286 16.831C21.1104 16.9181 20.722 17.1125 20.4017 17.3951C20.0813 17.6777 19.8401 18.0388 19.7016 18.443L19.6016 18.737V37.272L19.7016 37.561C19.8228 37.9175 20.0241 38.2414 20.29 38.508C20.5559 38.7747 20.8794 38.9768 21.2356 39.099L21.5296 39.199H34.7176L35.0116 39.099C35.3677 38.9768 35.6912 38.7747 35.9571 38.508C36.223 38.2414 36.4243 37.9175 36.5456 37.561L36.6456 37.272V22.724L36.5316 22.413C36.4572 22.2194 36.3648 22.0332 36.2556 21.857C36.0556 21.557 31.7556 17.466 31.3556 17.195C31.1793 17.0827 30.9928 16.9872 30.7986 16.91L30.5136 16.81L26.1136 16.802C23.6846 16.8 21.6246 16.813 21.5286 16.831ZM29.8406 20.152L29.8536 22.199L29.9986 22.492C30.1522 22.818 30.4181 23.0779 30.7476 23.224L30.9926 23.337L33.1746 23.351L35.3526 23.364V30.169C35.3526 37.811 35.3786 37.228 35.0236 37.578C34.6686 37.928 35.1946 37.907 28.1236 37.907C21.0526 37.907 21.5726 37.933 21.2236 37.578C20.8746 37.223 20.8946 38.069 20.8946 28.004C20.8946 17.939 20.8636 18.784 21.2236 18.43C21.5606 18.093 21.3116 18.1099 25.8116 18.1059H29.8296L29.8406 20.152ZM33.1756 20.661C33.9646 21.406 34.6086 22.023 34.6086 22.032C34.6086 22.041 33.8596 22.045 32.9476 22.045C31.4926 22.045 31.2736 22.037 31.2166 21.975C31.1596 21.913 31.1466 21.703 31.1466 20.328V18.75L31.4466 19.026C31.6066 19.175 32.3826 19.911 33.1756 20.66V20.661Z" fill="white"/>
<path d="M22.8557 25.643C22.7566 25.7017 22.6735 25.784 22.6138 25.8826C22.5542 25.9812 22.5198 26.0929 22.5137 26.208C22.5193 26.3248 22.5544 26.4382 22.6158 26.5378C22.6772 26.6373 22.7628 26.7196 22.8647 26.777C23.0357 26.864 23.1097 26.864 27.9917 26.864C32.8737 26.864 32.9477 26.864 33.1187 26.777C33.2205 26.7196 33.3062 26.6373 33.3676 26.5378C33.429 26.4382 33.4641 26.3248 33.4697 26.208C33.4641 26.0911 33.4289 25.9775 33.3676 25.8778C33.3062 25.7781 33.2206 25.6956 33.1187 25.638C32.9477 25.551 32.8737 25.551 27.9837 25.551C23.1277 25.551 23.0137 25.551 22.8557 25.643Z" fill="white"/>
<path d="M22.8557 29.148C22.7566 29.2067 22.6735 29.289 22.6138 29.3876C22.5542 29.4862 22.5198 29.5979 22.5137 29.713C22.5192 29.8299 22.5543 29.9435 22.6157 30.0432C22.677 30.1429 22.7627 30.2254 22.8647 30.283C23.0357 30.371 23.1097 30.371 27.9917 30.371C32.8737 30.371 32.9477 30.371 33.1187 30.283C33.2206 30.2254 33.3063 30.1429 33.3677 30.0432C33.4291 29.9435 33.4642 29.8299 33.4697 29.713C33.4641 29.5962 33.429 29.4827 33.3676 29.3832C33.3062 29.2837 33.2205 29.2014 33.1187 29.144C32.9477 29.056 32.8737 29.056 27.9837 29.056C23.1277 29.056 23.0137 29.056 22.8557 29.148Z" fill="white"/>
<path d="M22.8557 32.649C22.7569 32.7091 22.6742 32.7923 22.6146 32.8914C22.5551 32.9905 22.5204 33.1025 22.5137 33.218C22.5192 33.3349 22.5543 33.4486 22.6157 33.5482C22.677 33.6479 22.7627 33.7304 22.8647 33.788C23.0357 33.876 23.1007 33.88 24.8147 33.867C26.5287 33.854 26.5897 33.849 26.7037 33.762C26.7984 33.7074 26.8764 33.6279 26.9293 33.5322C26.9822 33.4365 27.0079 33.3282 27.0037 33.219C27.0079 33.1097 26.9822 33.0014 26.9293 32.9057C26.8764 32.81 26.7984 32.7306 26.7037 32.676C26.5857 32.588 26.5237 32.584 24.8037 32.576C23.0837 32.568 23.0137 32.566 22.8557 32.649Z" fill="white"/>
</svg>
