<svg width="21" height="21" viewBox="0 0 21 21" fill="none" xmlns="http://www.w3.org/2000/svg">
<rect width="21" height="21" fill="#E5E5E5"/>
<g id="Other Icon">
<g id="Drag indicator" clip-path="url(#clip0_0_1)">
<path id="Vector" d="M9.3099 15.1323C9.3099 16.049 8.5599 16.799 7.64323 16.799C6.72656 16.799 5.97656 16.049 5.97656 15.1323C5.97656 14.2157 6.72656 13.4657 7.64323 13.4657C8.5599 13.4657 9.3099 14.2157 9.3099 15.1323ZM7.64323 8.46567C6.72656 8.46567 5.97656 9.21567 5.97656 10.1323C5.97656 11.049 6.72656 11.799 7.64323 11.799C8.5599 11.799 9.3099 11.049 9.3099 10.1323C9.3099 9.21567 8.5599 8.46567 7.64323 8.46567ZM7.64323 3.46567C6.72656 3.46567 5.97656 4.21567 5.97656 5.13233C5.97656 6.049 6.72656 6.799 7.64323 6.799C8.5599 6.799 9.3099 6.049 9.3099 5.13233C9.3099 4.21567 8.5599 3.46567 7.64323 3.46567ZM12.6432 6.799C13.5599 6.799 14.3099 6.049 14.3099 5.13233C14.3099 4.21567 13.5599 3.46567 12.6432 3.46567C11.7266 3.46567 10.9766 4.21567 10.9766 5.13233C10.9766 6.049 11.7266 6.799 12.6432 6.799ZM12.6432 8.46567C11.7266 8.46567 10.9766 9.21567 10.9766 10.1323C10.9766 11.049 11.7266 11.799 12.6432 11.799C13.5599 11.799 14.3099 11.049 14.3099 10.1323C14.3099 9.21567 13.5599 8.46567 12.6432 8.46567ZM12.6432 13.4657C11.7266 13.4657 10.9766 14.2157 10.9766 15.1323C10.9766 16.049 11.7266 16.799 12.6432 16.799C13.5599 16.799 14.3099 16.049 14.3099 15.1323C14.3099 14.2157 13.5599 13.4657 12.6432 13.4657Z" fill="black"/>
</g>
</g>
<defs>
<clipPath id="clip0_0_1">
<rect width="20" height="20" fill="white" transform="translate(0.142578 0.132324)"/>
</clipPath>
</defs>
</svg>
