<svg width="20" height="20" viewBox="0 0 20 20" fill="none" xmlns="http://www.w3.org/2000/svg">
<path d="M4.70093 15.6978C4.53423 15.6633 4.40087 15.6288 4.23417 15.5598C4.06747 15.4908 3.93412 15.4563 3.80076 15.3873C3.5007 15.2493 3.23398 15.0769 2.96726 14.8699C2.43382 14.4905 2.0004 13.9731 1.667 13.3522C1.3336 12.7658 1.13356 12.0759 1.10022 11.4205C1.06688 11.0755 1.10022 10.7651 1.13356 10.4201C1.1669 10.2477 1.20024 10.1097 1.23358 9.93722C1.26692 9.76475 1.3336 9.62677 1.36694 9.4543L1.40028 9.93722C1.40028 10.1097 1.43362 10.2477 1.46696 10.4201C1.5003 10.7306 1.56698 11.041 1.63366 11.317C1.76702 11.9034 1.96706 12.4553 2.26712 12.9727C2.56718 13.4901 2.90058 13.9731 3.334 14.4215C3.53404 14.6284 3.76742 14.8354 4.0008 15.0424C4.10081 15.1459 4.23418 15.2493 4.36753 15.3528L4.70093 15.6978ZM4.60091 16.9396C4.50089 17.0086 4.36753 17.043 4.23417 17.0775C4.10081 17.112 4.0008 17.1465 3.86744 17.1465C3.63406 17.181 3.36734 17.2155 3.10062 17.181C2.60052 17.1465 2.06708 17.0086 1.63366 16.7671C1.1669 16.5256 0.766819 16.1462 0.500099 15.6978C0.36674 15.4908 0.23338 15.2493 0.13336 15.0079C0.10002 14.9044 0.0666799 14.7664 0.0333399 14.6284C0.0333399 14.525 0 14.4215 0 14.2835C0.10002 14.387 0.1667 14.4905 0.23338 14.5595C0.3334 14.6629 0.40008 14.7664 0.466759 14.8354C0.633459 15.0079 0.766819 15.1804 0.933519 15.3183C1.26692 15.6288 1.60032 15.9047 2.0004 16.1117C2.36714 16.3187 2.80056 16.4911 3.20064 16.6291C3.40068 16.6981 3.63406 16.7326 3.86744 16.8016C3.96746 16.8361 4.10082 16.8361 4.20084 16.8706C4.36753 16.9051 4.46755 16.9051 4.60091 16.9396ZM12.1357 0.175331C12.3024 0.209825 12.4358 0.278814 12.6025 0.347802C12.7692 0.416791 12.9026 0.48578 13.0359 0.554768C13.336 0.72724 13.6027 0.899711 13.8694 1.10668C14.4029 1.52061 14.8363 2.07252 15.1363 2.69342C15.4364 3.31431 15.6031 4.0042 15.6031 4.65959C15.6031 5.00453 15.5698 5.31498 15.5031 5.65993C15.4697 5.8324 15.4364 5.97037 15.3697 6.14285C15.303 6.31532 15.2697 6.45329 15.203 6.59127L15.1697 6.10835C15.1697 5.93588 15.1697 5.7979 15.1363 5.62543L15.0363 4.69409C14.9363 4.10768 14.7363 3.52128 14.4695 2.96937C14.2028 2.41746 13.8694 1.93454 13.4693 1.48611C13.2693 1.24465 13.0359 1.03769 12.8359 0.796228C12.7359 0.692745 12.6025 0.589262 12.4691 0.48578L12.1357 0.175331ZM15.0363 0.0373535C15.1697 0.0718478 15.2697 0.106342 15.3697 0.175331C15.4697 0.209825 15.6031 0.278814 15.7031 0.347802C15.9032 0.48578 16.1032 0.623757 16.3032 0.796228C16.67 1.14117 16.97 1.5551 17.1367 2.03802C17.3368 2.52094 17.4035 3.03836 17.3368 3.55577C17.3034 3.79723 17.2368 4.03869 17.1701 4.28015C17.1367 4.38364 17.0701 4.52161 17.0367 4.6251C16.97 4.72858 16.9367 4.83206 16.8367 4.93554V4.5906V4.24566C16.8367 4.0042 16.8033 3.79723 16.8033 3.59027C16.7367 3.14184 16.67 2.72791 16.5033 2.34847C16.3366 1.93454 16.1365 1.5896 15.9032 1.21016C15.7698 1.03769 15.6364 0.830723 15.5031 0.658251C15.4364 0.554768 15.3697 0.48578 15.2697 0.382297C15.203 0.209825 15.103 0.106342 15.0363 0.0373535Z" fill="#42ADE2"/>
<path d="M2.66848 5.17703C2.00168 5.48748 1.7683 6.31534 2.06836 7.00523L6.26919 16.0772L8.60299 14.9389L4.40216 5.83242C4.1021 5.14253 3.33528 4.83209 2.66848 5.17703ZM13.704 12.3863L16.1712 11.179L11.3702 0.830745C11.0368 0.140859 10.2366 -0.16959 9.53651 0.175353C8.86971 0.520297 8.56965 1.34816 8.90305 2.07254L13.704 12.3863Z" fill="#FFDD67"/>
<path d="M9.56721 0.140917C9.50054 0.175411 9.43386 0.209906 9.36719 0.278894C10.0006 0.106423 10.6673 0.416872 10.9674 1.03777L15.7679 11.3861L16.2013 11.1791L11.4007 0.830803C11.0674 0.106423 10.2673 -0.204026 9.56721 0.140917Z" fill="#EBA352"/>
<path d="M8.60118 14.9045L11.1681 13.6282L6.26759 3.07291C5.93422 2.34853 5.06746 2.00359 4.36738 2.34853C3.66731 2.69348 3.36727 3.59033 3.70064 4.31471L8.60118 14.9045Z" fill="#FFDD67"/>
<path d="M4.36799 2.38311C4.30132 2.4176 4.23464 2.4521 4.16797 2.52109C4.80137 2.34862 5.53478 2.65906 5.83482 3.31446L8.86848 9.90287L9.60189 10.3513L6.2682 3.10749C5.93483 2.34862 5.1014 2.03817 4.36799 2.38311Z" fill="#EBA352"/>
<path d="M10.7672 12.8004L13.3341 11.5241L8.4336 0.968859C8.10023 0.244479 7.23347 -0.100464 6.5334 0.278973C5.83332 0.623916 5.53329 1.52077 5.86666 2.24515L10.7672 12.8004Z" fill="#FFDD67"/>
<path d="M6.53391 0.244438C6.46723 0.278933 6.40056 0.347921 6.33388 0.382416C6.96729 0.209944 7.7007 0.520393 8.00073 1.17578L11.4344 8.62656L12.1679 9.07498L8.43411 0.968819C8.10074 0.209944 7.23398 -0.100505 6.53391 0.244438ZM2.66682 5.17712C2.60014 5.21162 2.53347 5.24611 2.4668 5.3151C3.06686 5.14263 3.70026 5.45308 3.96696 6.07398L6.46723 11.4896L7.20065 11.938L4.40034 5.86701C4.10031 5.14263 3.33356 4.83218 2.66682 5.17712Z" fill="#EBA352"/>
<path d="M19.6028 4.14225C18.7027 3.41787 17.2357 4.21124 16.5022 6.69483C16.0021 8.41955 15.9354 8.93696 14.8686 9.45438L14.2684 8.17809C14.2684 8.17809 4.7999 12.9038 5.16663 13.6627C5.16663 13.6627 6.30019 17.3191 8.23391 19.0093C11.1011 21.5619 17.8025 18.8368 18.1025 12.2484C18.2692 8.41955 20.5697 4.93562 19.6028 4.14225Z" fill="#FFDD67"/>
<path d="M19.6026 4.14234C19.4359 4.00436 19.2359 3.93537 19.0358 3.90088C19.0692 3.93537 19.1359 3.93537 19.1692 3.96987C20.1693 4.76324 19.1359 6.59143 18.5691 8.24716C18.1024 9.55794 17.7024 10.9032 17.769 12.214C18.0357 17.9401 12.4685 20.6651 9.13477 19.6303C12.4018 21.0445 18.4691 18.354 18.2024 12.3865C18.1357 11.0757 18.5025 9.7994 19.0025 8.41963C19.5359 6.76391 20.5693 4.93571 19.6026 4.14234Z" fill="#EBA352"/>
<path d="M15.1677 9.31641C13.1008 9.55787 10.0672 12.6279 12.2007 15.9738C10.6339 12.5934 13.2008 10.3167 14.8344 9.52337C15.001 9.38539 15.1677 9.31641 15.1677 9.31641Z" fill="#EBA352"/>
</svg>
