<svg width="20" height="21" viewBox="0 0 20 21" fill="none" xmlns="http://www.w3.org/2000/svg">
<g clip-path="url(#clip0_891_6876)">
<path d="M3.73065 0.159674C2.66815 0.312017 1.71893 1.03858 1.29706 2.03077C1.03925 2.64014 1.05487 2.10889 1.05487 10.1323C1.05487 18.1558 1.03925 17.6245 1.29706 18.2339C1.60175 18.9487 2.14862 19.5112 2.85956 19.8355C3.43768 20.105 3.4455 20.105 5.23456 20.1206C6.34784 20.1323 6.90253 20.1245 7.00018 20.0972C7.55487 19.9292 7.72675 19.1753 7.29706 18.7769C7.08612 18.5776 7.01971 18.5698 5.49628 18.5698C4.69159 18.5698 3.98065 18.5542 3.86346 18.5308C3.40253 18.4448 2.98065 18.1128 2.7619 17.6714L2.6369 17.4175V10.1323V2.84717L2.7619 2.59327C2.98065 2.15186 3.40253 1.81983 3.86346 1.73389C4.00018 1.71045 5.80487 1.69483 8.96503 1.69483C12.1252 1.69483 13.9299 1.71045 14.0666 1.73389C14.5275 1.81983 14.9494 2.15186 15.1682 2.59327L15.2932 2.84717L15.3127 5.54249C15.3283 7.44874 15.3439 8.26514 15.3791 8.33936C15.6603 8.96827 16.4924 9.01124 16.801 8.40577C16.8713 8.26514 16.8752 8.13624 16.8752 5.56202C16.8752 3.22217 16.8674 2.82764 16.8127 2.58545C16.551 1.43702 15.7307 0.581549 14.551 0.22608C14.3322 0.159674 14.0119 0.155767 9.08221 0.147955C6.20331 0.144049 3.79706 0.151861 3.73065 0.159674Z" fill="black"/>
<path d="M4.60937 4.90576C4.51562 4.95654 4.38281 5.06201 4.32031 5.14404C4.20703 5.28467 4.19922 5.31982 4.19922 5.60107C4.19922 5.88232 4.20703 5.91748 4.32031 6.05811C4.38281 6.14014 4.51562 6.24561 4.60937 6.29248L4.78125 6.38232H8.95312C12.6328 6.38232 13.1445 6.37451 13.2734 6.32373C13.9102 6.0542 13.9102 5.14795 13.2734 4.87842C13.1445 4.82764 12.6328 4.81982 8.95312 4.81982H4.78125L4.60937 4.90576Z" fill="black"/>
<path d="M4.60937 8.03076C4.51562 8.08154 4.38281 8.18701 4.32031 8.26904C4.20703 8.40967 4.19922 8.44482 4.19922 8.72607C4.19922 9.00732 4.20703 9.04248 4.32031 9.18311C4.38281 9.26514 4.51562 9.37061 4.60937 9.41748L4.78125 9.50732H8.95312C12.6328 9.50732 13.1445 9.49951 13.2734 9.44873C13.9102 9.1792 13.9102 8.27295 13.2734 8.00342C13.1445 7.95264 12.6328 7.94482 8.95312 7.94482H4.78125L4.60937 8.03076Z" fill="black"/>
<path d="M16.1129 10.8159C15.8356 10.8784 15.5543 10.9995 15.3121 11.1597C15.0661 11.3198 10.6364 15.7456 10.5465 15.9136C10.5075 15.9917 10.2614 16.7573 9.99965 17.6128C9.56996 19.0268 9.52699 19.1987 9.53871 19.4175C9.55043 19.6167 9.57386 19.687 9.67152 19.8081C9.8473 20.0268 10.0895 20.144 10.3317 20.1167C10.5114 20.1011 13.0387 19.4175 13.6325 19.2261L13.8864 19.144L16.1246 16.9136C18.4957 14.5542 18.6559 14.3706 18.8317 13.855C18.9098 13.6323 18.9254 13.5112 18.9254 13.1011C18.9254 12.5112 18.8473 12.2378 18.5504 11.7925C18.0192 10.9995 17.0426 10.6089 16.1129 10.8159ZM16.9059 12.3784C17.4371 12.6011 17.5504 13.2886 17.1207 13.6948L17.0075 13.8042L16.4645 13.2573L15.9215 12.7143L16.0348 12.5893C16.2692 12.3433 16.6129 12.2573 16.9059 12.3784ZM14.4723 16.3433L13.027 17.7847L12.2496 17.9995C11.82 18.1206 11.4645 18.2104 11.4606 18.2065C11.4567 18.2026 11.5582 17.855 11.6871 17.437L11.9176 16.6753L13.3707 15.2417L14.8239 13.812L15.3707 14.355L15.9176 14.8979L14.4723 16.3433Z" fill="black"/>
<path d="M4.60938 11.1558C4.51562 11.2065 4.38281 11.312 4.32031 11.394C4.20703 11.5347 4.19922 11.5698 4.19922 11.8511C4.19922 12.1323 4.20703 12.1675 4.32031 12.3081C4.38281 12.3901 4.51562 12.4956 4.60938 12.5425L4.78125 12.6323H7.38281C9.82812 12.6323 9.98828 12.6245 10.1367 12.5581C10.75 12.2729 10.75 11.4292 10.1367 11.144C9.98828 11.0776 9.82812 11.0698 7.38281 11.0698H4.78125L4.60938 11.1558Z" fill="black"/>
</g>
<defs>
<clipPath id="clip0_891_6876">
<rect width="20" height="20" fill="white" transform="translate(0 0.132324)"/>
</clipPath>
</defs>
</svg>
