<svg width="21" height="21" viewBox="0 0 21 21" fill="none" xmlns="http://www.w3.org/2000/svg">
<rect width="21" height="21" fill="#E5E5E5"/>
<g id="Other Icon">
<g id="eye">
<rect id="Rectangle 714" x="0.142578" y="0.132324" width="19.8593" height="20" fill="white"/>
<path id="eye_2" d="M10.2128 5.08286C11.8727 5.0773 13.5003 5.54357 14.9088 6.42807C16.3172 7.31256 17.4492 8.57937 18.1746 10.0829C16.6852 13.1465 13.6431 15.0829 10.2128 15.0829C6.7826 15.0829 3.74052 13.1465 2.25108 10.0829C2.9765 8.57937 4.10849 7.31256 5.51692 6.42807C6.92534 5.54357 8.55302 5.0773 10.2128 5.08286ZM10.2128 3.26468C5.69937 3.26468 1.84486 6.09195 0.283203 10.0829C1.84486 14.0738 5.69937 16.901 10.2128 16.901C14.7263 16.901 18.5808 14.0738 20.1425 10.0829C18.5808 6.09195 14.7263 3.26468 10.2128 3.26468ZM10.2128 7.81013C10.8114 7.81013 11.3854 8.04958 11.8086 8.4758C12.2318 8.90202 12.4696 9.4801 12.4696 10.0829C12.4696 10.6856 12.2318 11.2637 11.8086 11.6899C11.3854 12.1161 10.8114 12.3556 10.2128 12.3556C9.61432 12.3556 9.04031 12.1161 8.61709 11.6899C8.19387 11.2637 7.9561 10.6856 7.9561 10.0829C7.9561 9.4801 8.19387 8.90202 8.61709 8.4758C9.04031 8.04958 9.61432 7.81013 10.2128 7.81013ZM10.2128 5.99195C7.97416 5.99195 6.15072 7.82832 6.15072 10.0829C6.15072 12.3374 7.97416 14.1738 10.2128 14.1738C12.4515 14.1738 14.275 12.3374 14.275 10.0829C14.275 7.82832 12.4515 5.99195 10.2128 5.99195Z" fill="black"/>
</g>
</g>
</svg>
