<svg width="56" height="56" viewBox="0 0 56 56" fill="none" xmlns="http://www.w3.org/2000/svg">
<path d="M28 56C43.464 56 56 43.464 56 28C56 12.536 43.464 0 28 0C12.536 0 0 12.536 0 28C0 43.464 12.536 56 28 56Z" fill="#DA26DA"/>
<path d="M17.5674 16.882C17.0843 17.0729 16.6519 17.373 16.3041 17.7588C15.9562 18.1446 15.7024 18.6057 15.5624 19.106L15.4234 19.5229L15.4044 27.6429C15.3914 33.1579 15.4104 35.9229 15.4544 36.2669C15.5166 36.8616 15.7333 37.4297 16.0829 37.9147C16.4325 38.3997 16.9029 38.7849 17.4474 39.0319L17.8194 39.1999H38.1854L38.5574 39.0319C39.1017 38.7848 39.5719 38.3995 39.9213 37.9145C40.2708 37.4295 40.4873 36.8615 40.5494 36.2669C40.5934 35.9229 40.6124 33.1579 40.5994 27.6429L40.5814 19.5229L40.4304 19.0839C40.3131 18.6619 40.1126 18.2676 39.8407 17.9242C39.5689 17.5807 39.2312 17.2951 38.8474 17.0839L38.3744 16.8209L28.0964 16.8069C19.9064 16.7939 17.7684 16.809 17.5674 16.882ZM38.1484 18.3599C38.4008 18.4488 38.6221 18.609 38.7854 18.8209C39.3214 19.4429 39.2854 19.0259 39.2854 26.2089V32.5439L36.4354 29.2369C34.8654 27.4229 33.4904 25.8869 33.3774 25.8209C33.2186 25.7473 33.0458 25.7084 32.8708 25.7071C32.6957 25.7057 32.5224 25.7418 32.3624 25.813C31.2304 26.9454 30.1593 28.1371 29.1534 29.3829L26.1714 32.8279L24.7274 31.102C24.21 30.4445 23.6452 29.8258 23.0374 29.2509C22.7487 29.1048 22.4152 29.0737 22.1044 29.1639C21.1089 30.1256 20.1779 31.1518 19.3174 32.236L16.7174 35.2499V27.5619C16.7174 18.8619 16.6854 19.45 17.2284 18.813C17.7514 18.206 16.9004 18.2499 27.9794 18.2499C36.7544 18.2429 37.8514 18.2569 38.1474 18.3599H38.1484ZM36.0994 30.96L39.2994 34.676L39.2744 35.5099C39.2494 36.4249 39.1794 36.6579 38.8204 37.0969C38.6913 37.2514 38.5404 37.3861 38.3724 37.4969L38.1204 37.658H17.8824L17.5984 37.468C17.4505 37.3648 17.3131 37.2472 17.1884 37.1169L17.0684 36.956L19.7984 33.796L22.5224 30.636L24.2064 32.636L25.8904 34.6249H26.4614L29.6454 30.9309C31.3984 28.8979 32.8454 27.2379 32.8614 27.2379C32.8774 27.2379 34.3334 28.9149 36.0984 30.9629L36.0994 30.96Z" fill="white"/>
<path d="M21.6151 21.022C21.0638 21.2341 20.5969 21.6203 20.2851 22.1219C19.9086 22.681 19.7289 23.3495 19.7741 24.022C19.7355 24.4299 19.8045 24.8409 19.9741 25.2139C20.8061 27.2479 23.0381 27.7019 24.3371 26.1069C24.7993 25.5196 25.0599 24.7989 25.0805 24.0518C25.101 23.3047 24.8803 22.5708 24.4511 21.9589C24.1422 21.5183 23.6993 21.1892 23.1884 21.0204C22.6775 20.8516 22.1257 20.8521 21.6151 21.022V21.022ZM23.0781 22.5799C23.2655 22.704 23.4246 22.8662 23.5451 23.0559C23.6776 23.2977 23.7569 23.565 23.7776 23.8399C23.7983 24.1149 23.7599 24.3911 23.6651 24.6499C23.6053 24.8369 23.5039 25.0079 23.3686 25.1501C23.2333 25.2923 23.0675 25.402 22.8837 25.471C22.7 25.54 22.503 25.5665 22.3075 25.5485C22.112 25.5304 21.9232 25.4684 21.7551 25.367C21.4835 25.1771 21.2739 24.9112 21.1528 24.6028C21.0316 24.2943 21.0043 23.9569 21.0741 23.6329C21.0893 23.4068 21.1621 23.1884 21.2857 22.9984C21.4092 22.8084 21.5794 22.6532 21.7799 22.5476C21.9804 22.4421 22.2046 22.3896 22.4312 22.3953C22.6578 22.4009 22.8791 22.4645 23.0741 22.5799H23.0781Z" fill="white"/>
</svg>
