<svg width="15" height="14" viewBox="0 0 15 14" fill="none" xmlns="http://www.w3.org/2000/svg">
<mask id="path-1-inside-1_1002_8466" fill="white">
<path d="M13.9354 0.0138541C13.7638 0.0880947 3.64109 5.00949 3.54445 5.06708C3.4973 5.09554 3.45627 5.13291 3.42371 5.17708C3.39115 5.22126 3.3677 5.27136 3.35469 5.32452C3.34168 5.37768 3.33938 5.43286 3.34791 5.4869C3.35643 5.54095 3.37563 5.59279 3.40439 5.63948C3.4296 5.67487 4.10468 6.17027 4.90161 6.73713C5.69854 7.304 6.34911 7.78275 6.34631 7.79663C6.34351 7.81051 5.04517 9.05872 3.46462 10.572C1.88406 12.0852 0.569611 13.364 0.544401 13.4105C0.495922 13.5047 0.48674 13.614 0.518833 13.7148C0.550927 13.8156 0.621726 13.9 0.715972 13.9496C0.780804 13.9853 0.854304 14.0026 0.928418 13.9997C1.00253 13.9967 1.0744 13.9736 1.13615 13.9329C1.38755 13.8073 11.8555 8.14355 11.9662 8.07278C12.0633 8.01868 12.1347 7.92856 12.1648 7.82225C12.1949 7.71594 12.1811 7.60215 12.1265 7.50591C12.0908 7.45109 11.5852 7.07365 10.7315 6.46515C9.99413 5.942 9.38908 5.50142 9.38908 5.49378C9.38908 5.48615 10.5243 4.39336 11.9143 3.07438C13.3044 1.75539 14.4508 0.645958 14.4697 0.605716C14.5063 0.510343 14.5098 0.405601 14.4798 0.308006C14.4498 0.210412 14.3878 0.125498 14.3037 0.0665991C14.1923 0.00285152 14.0604 -0.0160409 13.9354 0.0138541Z"/>
</mask>
<path d="M13.9354 0.0138541C13.7638 0.0880947 3.64109 5.00949 3.54445 5.06708C3.4973 5.09554 3.45627 5.13291 3.42371 5.17708C3.39115 5.22126 3.3677 5.27136 3.35469 5.32452C3.34168 5.37768 3.33938 5.43286 3.34791 5.4869C3.35643 5.54095 3.37563 5.59279 3.40439 5.63948C3.4296 5.67487 4.10468 6.17027 4.90161 6.73713C5.69854 7.304 6.34911 7.78275 6.34631 7.79663C6.34351 7.81051 5.04517 9.05872 3.46462 10.572C1.88406 12.0852 0.569611 13.364 0.544401 13.4105C0.495922 13.5047 0.48674 13.614 0.518833 13.7148C0.550927 13.8156 0.621726 13.9 0.715972 13.9496C0.780804 13.9853 0.854304 14.0026 0.928418 13.9997C1.00253 13.9967 1.0744 13.9736 1.13615 13.9329C1.38755 13.8073 11.8555 8.14355 11.9662 8.07278C12.0633 8.01868 12.1347 7.92856 12.1648 7.82225C12.1949 7.71594 12.1811 7.60215 12.1265 7.50591C12.0908 7.45109 11.5852 7.07365 10.7315 6.46515C9.99413 5.942 9.38908 5.50142 9.38908 5.49378C9.38908 5.48615 10.5243 4.39336 11.9143 3.07438C13.3044 1.75539 14.4508 0.645958 14.4697 0.605716C14.5063 0.510343 14.5098 0.405601 14.4798 0.308006C14.4498 0.210412 14.3878 0.125498 14.3037 0.0665991C14.1923 0.00285152 14.0604 -0.0160409 13.9354 0.0138541Z" fill="#138808"/>
<path d="M3.54445 5.06708L3.03253 4.20803L3.02772 4.21093L3.54445 5.06708ZM3.40439 5.63948L2.55298 6.16398L2.57053 6.19247L2.58995 6.21973L3.40439 5.63948ZM0.544401 13.4105L-0.334654 12.9337L-0.339811 12.9433L-0.34476 12.9529L0.544401 13.4105ZM0.715972 13.9496L1.19834 13.0736L1.1901 13.0691L1.18178 13.0647L0.715972 13.9496ZM1.13615 13.9329L0.689268 13.0383L0.635663 13.0651L0.585639 13.0981L1.13615 13.9329ZM11.9662 8.07278L11.4795 7.19917L11.453 7.21397L11.4273 7.23037L11.9662 8.07278ZM12.1265 7.50591L12.9963 7.01247L12.9811 6.98574L12.9644 6.95999L12.1265 7.50591ZM10.7315 6.46515L11.312 5.65085L11.3102 5.64956L10.7315 6.46515ZM14.4697 0.605716L15.3748 1.03096L15.3903 0.997993L15.4033 0.963981L14.4697 0.605716ZM14.3037 0.0665991L14.8774 -0.752473L14.84 -0.778675L14.8004 -0.801358L14.3037 0.0665991ZM13.5382 -0.90391C13.4254 -0.855098 10.8146 0.412309 8.27452 1.64739C6.99225 2.27089 5.71214 2.89395 4.74642 3.36481C4.26364 3.6002 3.85902 3.79775 3.57188 3.93835C3.42843 4.00859 3.31355 4.06498 3.23266 4.1049C3.18777 4.12705 3.08341 4.17773 3.03254 4.20804L4.05636 5.92612C4.01757 5.94924 4.00361 5.95472 4.11771 5.89841C4.1958 5.85988 4.30847 5.80456 4.45141 5.73457C4.73702 5.59472 5.14043 5.39776 5.62293 5.16251C6.58776 4.69209 7.86717 4.06936 9.1491 3.44603C10.431 2.82271 11.7151 2.19893 12.6894 1.7264C13.1766 1.4901 13.5859 1.29179 13.8787 1.15032C14.1914 0.999218 14.3364 0.929915 14.3325 0.931619L13.5382 -0.90391ZM3.02772 4.21093C2.8687 4.30691 2.72956 4.43341 2.61874 4.58377L4.22868 5.7704C4.18298 5.83241 4.1259 5.88417 4.06117 5.92323L3.02772 4.21093ZM2.61874 4.58377C2.50798 4.73404 2.42785 4.90496 2.38335 5.08685L4.32604 5.56219C4.30755 5.63776 4.27432 5.70847 4.22868 5.7704L2.61874 4.58377ZM2.38335 5.08685C2.33883 5.26876 2.33093 5.45771 2.36013 5.64276L4.33569 5.33104C4.34783 5.408 4.34453 5.48659 4.32604 5.56219L2.38335 5.08685ZM2.36013 5.64276C2.38933 5.82781 2.45499 6.00492 2.55298 6.16398L4.2558 5.11499C4.29627 5.18067 4.32354 5.25408 4.33569 5.33104L2.36013 5.64276ZM2.58995 6.21973C2.64578 6.29809 2.70187 6.35168 2.7101 6.35971C2.73001 6.37915 2.74745 6.39467 2.75795 6.40386C2.77962 6.42283 2.80079 6.44013 2.81653 6.45278C2.84951 6.47931 2.88947 6.51018 2.93169 6.54227C3.01768 6.60765 3.13463 6.6945 3.27224 6.7954C3.54853 6.99802 3.92056 7.26648 4.32198 7.55201L5.48124 5.92226C5.08573 5.64092 4.72176 5.37825 4.45498 5.1826C4.32104 5.08438 4.21469 5.00532 4.14211 4.95014C4.10504 4.92196 4.0819 4.90389 4.07002 4.89434C4.06333 4.88895 4.06664 4.89142 4.07525 4.89897C4.07923 4.90245 4.09135 4.91311 4.10718 4.92857C4.11133 4.93261 4.16458 4.98309 4.21883 5.05924L2.58995 6.21973ZM4.32198 7.55201C4.71732 7.83322 5.07503 8.09164 5.33207 8.28034C5.46126 8.37518 5.5616 8.44991 5.62754 8.50019C5.6618 8.5263 5.68 8.54067 5.68651 8.54597C5.69196 8.55041 5.68084 8.54165 5.66341 8.52567C5.65781 8.52054 5.62881 8.49412 5.59469 8.45543C5.58031 8.43913 5.53831 8.39095 5.49525 8.32126C5.47395 8.2868 5.43465 8.2189 5.4022 8.126C5.37449 8.04668 5.31557 7.84903 5.36609 7.59876L7.32654 7.9945C7.37711 7.74401 7.31814 7.54609 7.29032 7.46644C7.25775 7.37321 7.21826 7.30493 7.19669 7.27002C7.15308 7.19944 7.11022 7.15016 7.09466 7.13252C7.0582 7.09118 7.0256 7.06121 7.0152 7.05167C6.98816 7.02688 6.96258 7.00586 6.94895 6.99477C6.9173 6.96901 6.87891 6.93928 6.84012 6.9097C6.75996 6.84859 6.64838 6.7656 6.51566 6.66816C6.24888 6.4723 5.88284 6.20791 5.48124 5.92226L4.32198 7.55201ZM5.36609 7.59876C5.39675 7.44686 5.45642 7.33966 5.46968 7.31552C5.49253 7.27391 5.5136 7.24269 5.52456 7.2269C5.54706 7.19449 5.56651 7.17072 5.5736 7.16212C5.59002 7.1422 5.60323 7.12786 5.606 7.12485C5.61411 7.11602 5.61895 7.11117 5.61597 7.11422C5.61194 7.11833 5.60188 7.12845 5.58347 7.14666C5.54782 7.1819 5.49324 7.23524 5.42034 7.30605C5.27522 7.44703 5.06459 7.65038 4.80363 7.90157C4.28205 8.40362 3.56306 9.09329 2.77305 9.84966L4.15618 11.2943C4.94673 10.5374 5.66718 9.84634 6.19062 9.3425C6.45216 9.09075 6.66543 8.88486 6.81392 8.74061C6.88784 8.6688 6.9475 8.61053 6.98956 8.56894C7.01 8.54874 7.02967 8.52913 7.04574 8.5127C7.0528 8.50548 7.06528 8.49265 7.07857 8.47819C7.08393 8.47236 7.09911 8.45579 7.11688 8.43424C7.12464 8.42482 7.1446 8.40039 7.16746 8.36746C7.1786 8.35141 7.19981 8.31997 7.22276 8.27817C7.23612 8.25385 7.29586 8.14651 7.32654 7.9945L5.36609 7.59876ZM2.77305 9.84966C1.9814 10.6076 1.25574 11.3074 0.724157 11.8243C0.458653 12.0824 0.240006 12.2964 0.0852533 12.4497C0.0083597 12.5259 -0.0556266 12.59 -0.102608 12.638C-0.125454 12.6613 -0.148834 12.6856 -0.169196 12.7075C-0.178791 12.7179 -0.193589 12.734 -0.20947 12.7526C-0.217204 12.7616 -0.230525 12.7774 -0.245849 12.7973C-0.253292 12.807 -0.29457 12.8598 -0.334654 12.9337L1.42345 13.8872C1.38416 13.9596 1.3443 14.0104 1.33889 14.0174C1.32561 14.0347 1.31495 14.0473 1.31049 14.0525C1.30116 14.0634 1.29536 14.0695 1.29717 14.0676C1.2996 14.065 1.30859 14.0555 1.32719 14.0365C1.36309 13.9997 1.41828 13.9444 1.49285 13.8705C1.64104 13.7237 1.85452 13.5148 2.11835 13.2582C2.64543 12.7458 3.36728 12.0496 4.15618 11.2943L2.77305 9.84966ZM-0.34476 12.9529C-0.514135 13.282 -0.546486 13.6648 -0.434074 14.0181L1.47174 13.4115C1.51997 13.5631 1.50598 13.7273 1.43356 13.8681L-0.34476 12.9529ZM-0.434074 14.0181C-0.321757 14.371 -0.0749136 14.6633 0.250167 14.8345L1.18178 13.0647C1.31837 13.1366 1.42361 13.2603 1.47174 13.4115L-0.434074 14.0181ZM0.233604 14.8256C0.458299 14.9493 0.712328 15.009 0.968018 14.9989L0.888818 13.0005C0.996281 12.9962 1.10331 13.0213 1.19834 13.0736L0.233604 14.8256ZM0.968018 14.9989C1.22382 14.9888 1.47242 14.909 1.68665 14.7677L0.585639 13.0981C0.676374 13.0383 0.78124 13.0047 0.888818 13.0005L0.968018 14.9989ZM1.58302 14.8275C1.72819 14.755 4.43443 13.2932 7.07982 11.8618C8.41111 11.1415 9.73816 10.4228 10.7394 9.87964C11.24 9.60812 11.6595 9.38028 11.9576 9.218C12.2203 9.07496 12.4517 8.94927 12.505 8.9152L11.4273 7.23037C11.4529 7.21399 11.3331 7.28077 11.0011 7.46151C10.7045 7.62301 10.2861 7.85024 9.78584 8.12161C8.78539 8.66428 7.459 9.38264 6.12805 10.1028C4.7971 10.8229 3.46189 11.5447 2.44383 12.0943C1.93475 12.3691 1.50529 12.6006 1.19542 12.7673C1.0404 12.8507 0.915852 12.9175 0.826426 12.9654C0.728014 13.018 0.689045 13.0384 0.689268 13.0383L1.58302 14.8275ZM12.4528 8.9464C12.7804 8.7639 13.0241 8.45828 13.1271 8.09447L11.2026 7.55003C11.2454 7.39884 11.3462 7.27346 11.4795 7.19917L12.4528 8.9464ZM13.1271 8.09447C13.23 7.73041 13.1826 7.34091 12.9963 7.01247L11.2567 7.99934C11.1796 7.86339 11.1597 7.70148 11.2026 7.55003L13.1271 8.09447ZM12.9644 6.95999C12.9037 6.86689 12.8392 6.80263 12.8245 6.7878C12.7978 6.76088 12.7727 6.73805 12.7545 6.72193C12.7174 6.6891 12.6766 6.65559 12.6382 6.62482C12.5595 6.56187 12.4559 6.48279 12.3338 6.3917C12.0878 6.20812 11.7413 5.95685 11.312 5.65085L10.1511 7.27945C10.5755 7.58195 10.9086 7.82365 11.1377 7.99462C11.2532 8.0808 11.3361 8.1444 11.3889 8.18665C11.4016 8.19682 11.4113 8.20476 11.4185 8.2107C11.4259 8.21687 11.4287 8.21938 11.4282 8.21888C11.4278 8.21853 11.4256 8.2166 11.4221 8.21331C11.4187 8.21018 11.4124 8.20423 11.4042 8.19594C11.4013 8.19296 11.3449 8.13807 11.2887 8.05182L12.9644 6.95999ZM11.3102 5.64956C10.944 5.38976 10.6111 5.15083 10.3707 4.97654C10.2502 4.88916 10.1547 4.81928 10.0904 4.77165C10.0575 4.74733 10.0364 4.73146 10.0253 4.72289C10.0184 4.71766 10.0216 4.71992 10.0294 4.72631C10.0313 4.72788 10.0473 4.7409 10.0677 4.75967C10.0754 4.76676 10.1034 4.79245 10.1359 4.82895C10.1505 4.8453 10.1869 4.88685 10.2255 4.94575C10.2449 4.97537 10.2776 5.02851 10.3082 5.09987C10.3344 5.16094 10.3891 5.30317 10.3891 5.49378H8.38908C8.38908 5.68446 8.44379 5.82676 8.47001 5.88792C8.50063 5.95936 8.53341 6.0126 8.5529 6.04234C8.59167 6.10146 8.62825 6.14328 8.64313 6.15997C8.67626 6.19712 8.70508 6.22369 8.71396 6.23185C8.7367 6.25276 8.75621 6.26875 8.76274 6.2741C8.77977 6.28803 8.79661 6.30106 8.80778 6.30963C8.83258 6.32866 8.8645 6.35254 8.89991 6.37877C8.97211 6.43225 9.0739 6.50665 9.19681 6.59576C9.44329 6.77445 9.7817 7.01739 10.1529 7.28075L11.3102 5.64956ZM10.3891 5.49378C10.3828 5.60532 10.3472 5.78013 10.3259 5.8435C10.31 5.88354 10.2792 5.94946 10.2653 5.97564C10.2374 6.0264 10.2111 6.06344 10.2005 6.0781C10.1769 6.11087 10.1565 6.13479 10.1507 6.14162C10.1355 6.15946 10.1233 6.1724 10.1213 6.17457C10.1143 6.18195 10.1102 6.18601 10.113 6.18323C10.1167 6.17949 10.1256 6.17058 10.1417 6.15481C10.1727 6.12425 10.2204 6.07782 10.2839 6.01627C10.4105 5.89369 10.5946 5.71637 10.8228 5.4974C11.279 5.05969 11.9089 4.45803 12.6026 3.79979L11.226 2.34896C10.5297 3.00971 9.897 3.61394 9.43808 4.05427C9.20873 4.27433 9.02213 4.45408 8.89239 4.57976C8.82779 4.64234 8.77591 4.69284 8.73948 4.72866C8.72177 4.74607 8.70496 4.76272 8.69135 4.77647C8.68545 4.78243 8.67482 4.79322 8.66351 4.80527C8.65928 4.80976 8.64543 4.82452 8.62911 4.84365C8.62273 4.85113 8.60193 4.87556 8.57803 4.90871C8.56733 4.92357 8.54095 4.96077 8.51296 5.01165C8.49902 5.03789 8.46822 5.10387 8.45226 5.14396C8.43097 5.20737 8.39532 5.38222 8.38908 5.49378H10.3891ZM12.6026 3.79979C13.2994 3.13867 13.9358 2.52938 14.4012 2.07953C14.6336 1.85493 14.8251 1.66834 14.9608 1.53428C15.028 1.46781 15.0849 1.41096 15.1272 1.36761C15.1476 1.34672 15.17 1.32348 15.1902 1.30146C15.1995 1.29124 15.2155 1.27366 15.2329 1.25273C15.2414 1.24259 15.2566 1.224 15.274 1.20022C15.2818 1.18962 15.3311 1.12401 15.3748 1.03096L13.5646 0.180468C13.6077 0.0886801 13.6558 0.0248529 13.6619 0.0165481C13.6777 -0.0049442 13.6907 -0.0207229 13.6964 -0.0275414C13.7031 -0.0356135 13.7083 -0.0415183 13.7109 -0.0444427C13.7137 -0.0476256 13.7156 -0.0496748 13.7161 -0.0503007C13.7168 -0.051 13.7112 -0.0449905 13.6957 -0.0291165C13.6663 0.00105676 13.6197 0.0477908 13.5551 0.111599C13.427 0.238096 13.2416 0.418846 13.0112 0.641505C12.5512 1.08618 11.9193 1.6911 11.226 2.34896L12.6026 3.79979ZM15.4033 0.963981C15.52 0.659796 15.5314 0.325308 15.4355 0.013777L13.5241 0.602236C13.4883 0.485894 13.4925 0.36089 13.5361 0.247451L15.4033 0.963981ZM15.4355 0.013777C15.3397 -0.297687 15.1426 -0.566764 14.8774 -0.752473L13.73 0.885671C13.6331 0.817761 13.5599 0.718511 13.5241 0.602236L15.4355 0.013777ZM14.8004 -0.801358C14.4677 -0.991704 14.075 -1.0477 13.7029 -0.958746L14.1679 0.986454C14.0458 1.01562 13.9169 0.997407 13.8071 0.934557L14.8004 -0.801358Z" fill="#138808" mask="url(#path-1-inside-1_1002_8466)"/>
</svg>
