<svg width="20" height="21" viewBox="0 0 20 21" fill="none" xmlns="http://www.w3.org/2000/svg">
<path d="M9.34406 0.220882C9.21872 0.271828 9.05031 0.361959 8.97197 0.416822C8.88972 0.471685 6.9118 2.43501 4.56962 4.77845C1.1386 8.21916 0.296516 9.0813 0.214266 9.24589C-0.161736 10.0061 -0.036402 10.8369 0.539351 11.4169C0.899686 11.7735 1.35794 11.9616 1.88277 11.9616H2.14911V15.0967C2.14911 17.2167 2.16477 18.2944 2.19219 18.4355C2.34103 19.1487 2.91678 19.7953 3.62961 20.0422C3.88812 20.1323 3.9077 20.1323 5.79946 20.1323C7.6638 20.1323 7.70688 20.1323 7.81263 20.05C7.87138 20.0069 7.95755 19.9207 8.00063 19.8619C8.08288 19.7561 8.08288 19.7052 8.10247 17.1384L8.12205 14.5206L8.23955 14.3286C8.38838 14.0895 8.68997 13.8975 8.9798 13.8622C9.08947 13.8466 9.63781 13.8426 10.1979 13.8505L11.2162 13.8622L11.4238 13.9759C11.6196 14.0856 11.745 14.2149 11.8664 14.4305C11.9095 14.5128 11.9252 14.9948 11.9408 17.1423C11.9604 19.7052 11.9604 19.7561 12.0427 19.8619C12.0857 19.9207 12.1719 20.0069 12.2307 20.05C12.3364 20.1323 12.3795 20.1323 14.2438 20.1323C16.1356 20.1323 16.1552 20.1323 16.4137 20.0422C17.1265 19.7953 17.7023 19.1487 17.8511 18.4355C17.8785 18.2944 17.8942 17.2167 17.8942 15.0967V11.9616H18.1605C18.8968 11.9616 19.5392 11.5697 19.8564 10.9231C19.9896 10.6527 19.9896 10.6449 19.9896 10.1198C19.9896 9.22629 20.44 9.75533 15.411 4.72751C10.4133 -0.276806 10.9146 0.154263 10.0608 0.134668C9.61822 0.126831 9.55164 0.134668 9.34406 0.220882ZM10.3115 1.34166C10.5426 1.45139 18.7284 9.65344 18.8146 9.8533C18.8969 10.0532 18.889 10.2217 18.7911 10.4176C18.6462 10.7194 18.5248 10.7625 17.7688 10.786C17.0599 10.8056 17.009 10.8212 16.821 11.076C16.7388 11.1818 16.7388 11.2249 16.7192 14.7361L16.6996 18.2905L16.5899 18.4747C16.5312 18.5766 16.4254 18.7059 16.3549 18.7568C16.0808 18.9684 15.9985 18.9763 14.5023 18.9763H13.1158V16.7817C13.1158 15.3435 13.1002 14.5206 13.0727 14.3834C12.92 13.6467 12.3286 13.0119 11.5687 12.7728C11.3102 12.6905 11.2241 12.6866 10.0216 12.6866C8.61947 12.6866 8.54897 12.6944 8.04763 12.9492C7.55021 13.2 7.08805 13.8191 6.97055 14.3834C6.94313 14.5206 6.92746 15.3435 6.92746 16.7817V18.9763H5.54096C4.04478 18.9763 3.96253 18.9684 3.68836 18.7568C3.61786 18.7059 3.51211 18.5766 3.45336 18.4747L3.3437 18.2905L3.32411 14.7361C3.30453 11.2249 3.30453 11.1818 3.22228 11.076C3.03428 10.8212 2.98336 10.8056 2.27444 10.786C1.51852 10.7625 1.3971 10.7194 1.25219 10.4176C1.15427 10.2217 1.14644 10.0532 1.22869 9.8533C1.31094 9.65736 9.50072 1.45531 9.72789 1.34166C9.92764 1.24369 10.1117 1.24369 10.3115 1.34166Z" fill="black"/>
</svg>
