<svg width="24" height="21" viewBox="0 0 24 21" fill="none" xmlns="http://www.w3.org/2000/svg">
<path d="M20.3066 0.231815C19.6152 0.466623 19.0543 1.04929 18.8542 1.73632C18.7629 2.0407 18.7629 2.61467 18.8542 2.91905C18.9412 3.21474 19.0847 3.49738 19.2586 3.71044L19.3891 3.88002L17.3584 7.94132L15.3278 12.0026H15.0538C14.9016 12.0026 14.6538 12.0331 14.4973 12.0722C14.2233 12.1418 14.2103 12.1418 14.1363 12.0635C14.0929 12.02 13.4276 11.2678 12.6536 10.3938C11.8796 9.51975 11.21 8.76315 11.1621 8.71097C11.0752 8.6153 11.0752 8.6153 11.1926 8.30658C11.5013 7.47171 11.31 6.6064 10.6795 5.9759C9.57934 4.87578 7.7922 5.19321 7.11387 6.6064C6.95298 6.94556 6.93559 7.01079 6.92254 7.40213C6.89645 7.96741 7.01821 8.39354 7.31389 8.81098L7.43999 8.98491L5.5137 12.3635L3.58741 15.7378L3.30477 15.7117C2.28293 15.6247 1.22195 16.4335 1.00453 17.4728C0.765376 18.6077 1.49154 19.7686 2.63079 20.073C2.95691 20.16 3.50479 20.1513 3.83092 20.0469C4.53099 19.8295 5.12235 19.2208 5.32672 18.5076C5.38325 18.3163 5.3963 18.1467 5.38325 17.8337C5.36151 17.3597 5.2615 17.051 5.018 16.6988L4.86581 16.4813L6.78775 13.1114L8.70969 9.74151H9.07929C9.29671 9.74151 9.56195 9.71107 9.70979 9.66759C9.96199 9.59802 9.97069 9.59802 10.0403 9.68498C10.0794 9.73716 10.7751 10.5242 11.5883 11.4373C12.4014 12.3505 13.071 13.1114 13.0797 13.1332C13.0884 13.1549 13.0406 13.3071 12.9754 13.468C12.8666 13.7289 12.8536 13.8202 12.8536 14.2202C12.8579 14.7333 12.9145 14.9551 13.158 15.3595C14.0059 16.764 16.0105 16.7988 16.9149 15.4247C17.1541 15.0551 17.2628 14.6899 17.2628 14.2333C17.2628 13.6898 17.0975 13.2158 16.7671 12.807L16.6627 12.6766L18.6977 8.61096L20.7327 4.54531L20.9371 4.55836C21.898 4.63663 22.959 3.79741 23.1721 2.79295C23.4112 1.65805 22.6851 0.497061 21.5458 0.192682C21.2023 0.0970192 20.637 0.118761 20.3066 0.231815ZM21.3762 1.71893C21.5719 1.83633 21.7415 2.11027 21.7415 2.31899C21.7415 2.46248 21.6371 2.72773 21.5328 2.84513C21.4328 2.95819 21.1414 3.08864 20.9849 3.08864C20.7588 3.08864 20.4892 2.9234 20.3674 2.71468C20.2718 2.5538 20.2544 2.47988 20.2718 2.28421C20.3196 1.72762 20.8892 1.43629 21.3762 1.71893ZM9.41411 6.86729C9.97939 7.12819 10.0098 7.87175 9.46629 8.18048C9.33149 8.2544 9.24887 8.26744 9.0619 8.2544C8.67055 8.21961 8.43575 7.9848 8.40096 7.59781C8.35313 7.02383 8.89666 6.62814 9.41411 6.86729ZM15.493 13.6245C15.9235 13.9506 15.867 14.6072 15.393 14.8638C14.7016 15.2334 13.9755 14.342 14.4929 13.755C14.6755 13.5463 14.8451 13.4767 15.1191 13.4941C15.2799 13.5071 15.3886 13.5419 15.493 13.6245ZM3.50914 17.2684C3.9918 17.5032 4.05268 18.1859 3.6222 18.512C3.26999 18.7816 2.71776 18.6511 2.52643 18.2511C2.41772 18.025 2.41338 17.8815 2.50034 17.6684C2.59165 17.451 2.68297 17.3554 2.89169 17.2597C3.1178 17.1553 3.27868 17.1553 3.50914 17.2684Z" fill="black"/>
</svg>
