<svg width="56" height="56" viewBox="0 0 56 56" fill="none" xmlns="http://www.w3.org/2000/svg">
<path d="M28 56C43.464 56 56 43.464 56 28C56 12.536 43.464 0 28 0C12.536 0 0 12.536 0 28C0 43.464 12.536 56 28 56Z" fill="#00B812"/>
<path d="M27.8126 16.8C25.6351 16.8029 23.5476 17.6693 22.008 19.2091C20.4684 20.7489 19.6023 22.8365 19.5996 25.014C19.5996 32.981 27.3496 39.037 27.3496 39.037C27.4819 39.1424 27.646 39.1998 27.8151 39.1998C27.9842 39.1998 28.1483 39.1424 28.2806 39.037C28.2806 39.037 36.0336 32.981 36.0336 25.014C36.0291 22.8357 35.1613 20.748 33.6203 19.2083C32.0794 17.6687 29.9909 16.8026 27.8126 16.8V16.8ZM27.8126 21.282C28.5513 21.2818 29.2734 21.5007 29.8876 21.9109C30.5018 22.3212 30.9806 22.9044 31.2633 23.5868C31.546 24.2692 31.62 25.0201 31.4758 25.7446C31.3317 26.469 30.976 27.1344 30.4536 27.6567C29.9312 28.1789 29.2657 28.5345 28.5412 28.6784C27.8167 28.8223 27.0658 28.7482 26.3835 28.4653C25.7012 28.1824 25.1181 27.7035 24.708 27.0891C24.2979 26.4748 24.0792 25.7526 24.0796 25.014C24.0838 24.0255 24.4784 23.0787 25.1773 22.3797C25.8763 21.6807 26.8231 21.2862 27.8116 21.282H27.8126Z" fill="white"/>
</svg>
