<svg width="38" height="31" viewBox="0 0 38 31" fill="none" xmlns="http://www.w3.org/2000/svg">
<rect width="38" height="31" fill="#E5E5E5"/>
<g id="Other Icon">
<g id="Message With Bubble">
<g id="Message">
<path id="Message_2" d="M18 10.1323H2C0.9 10.1323 0 11.0323 0 12.1323V30.1323L4 26.1323H18C19.1 26.1323 20 25.2323 20 24.1323V12.1323C20 11.0323 19.1 10.1323 18 10.1323ZM18 24.1323H3.2L2 25.3323V12.1323H18V24.1323ZM15 19.1323H13V17.1323H15M11 19.1323H9V17.1323H11M7 19.1323H5V17.1323H7" fill="white"/>
</g>
<g id="Bubble">
<rect x="14.5" y="3.63232" width="23" height="17" rx="8.5" fill="#FF0000"/>
<path id="10" d="M23.6992 7.5835V16.1323H22.0117V9.52881L19.9844 10.1733V8.84326L23.5176 7.5835H23.6992ZM32.2188 11.1167V12.5933C32.2188 13.2339 32.1504 13.7866 32.0137 14.2515C31.877 14.7124 31.6797 15.0913 31.4219 15.3882C31.168 15.6812 30.8652 15.8979 30.5137 16.0386C30.1621 16.1792 29.7715 16.2495 29.3418 16.2495C28.998 16.2495 28.6777 16.2065 28.3809 16.1206C28.084 16.0308 27.8164 15.8921 27.5781 15.7046C27.3438 15.5171 27.1406 15.2808 26.9688 14.9956C26.8008 14.7065 26.6719 14.3628 26.582 13.9644C26.4922 13.5659 26.4473 13.1089 26.4473 12.5933V11.1167C26.4473 10.4761 26.5156 9.92725 26.6523 9.47021C26.793 9.00928 26.9902 8.63232 27.2441 8.33936C27.502 8.04639 27.8066 7.83154 28.1582 7.69482C28.5098 7.5542 28.9004 7.48389 29.3301 7.48389C29.6738 7.48389 29.9922 7.52881 30.2852 7.61865C30.582 7.70459 30.8496 7.83936 31.0879 8.02295C31.3262 8.20654 31.5293 8.44287 31.6973 8.73193C31.8652 9.01709 31.9941 9.35889 32.084 9.75732C32.1738 10.1519 32.2188 10.605 32.2188 11.1167ZM30.5254 12.8159V10.8882C30.5254 10.5796 30.5078 10.3101 30.4727 10.0796C30.4414 9.84912 30.3926 9.65381 30.3262 9.49365C30.2598 9.32959 30.1777 9.19678 30.0801 9.09521C29.9824 8.99365 29.8711 8.91943 29.7461 8.87256C29.6211 8.82568 29.4824 8.80225 29.3301 8.80225C29.1387 8.80225 28.9688 8.83936 28.8203 8.91357C28.6758 8.98779 28.5527 9.10693 28.4512 9.271C28.3496 9.43115 28.2715 9.646 28.2168 9.91553C28.166 10.1812 28.1406 10.5054 28.1406 10.8882V12.8159C28.1406 13.1245 28.1562 13.396 28.1875 13.6304C28.2227 13.8647 28.2734 14.0659 28.3398 14.2339C28.4102 14.3979 28.4922 14.5327 28.5859 14.6382C28.6836 14.7397 28.7949 14.814 28.9199 14.8608C29.0488 14.9077 29.1895 14.9312 29.3418 14.9312C29.5293 14.9312 29.6953 14.894 29.8398 14.8198C29.9883 14.7417 30.1133 14.6206 30.2148 14.4565C30.3203 14.2886 30.3984 14.0698 30.4492 13.8003C30.5 13.5308 30.5254 13.2026 30.5254 12.8159Z" fill="white"/>
<rect x="14.5" y="3.63232" width="23" height="17" rx="8.5" stroke="white"/>
</g>
</g>
</g>
</svg>
