<svg width="20" height="21" viewBox="0 0 20 21" fill="none" xmlns="http://www.w3.org/2000/svg">
<rect width="20" height="21" fill="#E5E5E5"/>
<g id="Other Icon">
<g id="open">
<path id="open_2" d="M2.22222 20.1323C1.61111 20.1323 1.08778 19.9149 0.652222 19.4801C0.217407 19.0445 0 18.5212 0 17.9101V2.35455C0 1.74344 0.217407 1.2201 0.652222 0.784546C1.08778 0.349732 1.61111 0.132324 2.22222 0.132324H8.88889C9.2037 0.132324 9.46778 0.23862 9.68111 0.451213C9.8937 0.664546 10 0.928621 10 1.24344C10 1.55825 9.8937 1.82195 9.68111 2.03455C9.46778 2.24788 9.2037 2.35455 8.88889 2.35455H2.22222V17.9101H17.7778V11.2434C17.7778 10.9286 17.8844 10.6645 18.0978 10.4512C18.3104 10.2386 18.5741 10.1323 18.8889 10.1323C19.2037 10.1323 19.4674 10.2386 19.68 10.4512C19.8933 10.6645 20 10.9286 20 11.2434V17.9101C20 18.5212 19.7826 19.0445 19.3478 19.4801C18.9122 19.9149 18.3889 20.1323 17.7778 20.1323H2.22222ZM6.66667 13.4657C6.46296 13.262 6.36111 13.0027 6.36111 12.6879C6.36111 12.3731 6.46296 12.1138 6.66667 11.9101L16.2222 2.35455H13.3333C13.0185 2.35455 12.7548 2.24788 12.5422 2.03455C12.3289 1.82195 12.2222 1.55825 12.2222 1.24344C12.2222 0.928621 12.3289 0.664546 12.5422 0.451213C12.7548 0.23862 13.0185 0.132324 13.3333 0.132324H18.8889C19.2037 0.132324 19.4674 0.23862 19.68 0.451213C19.8933 0.664546 20 0.928621 20 1.24344V6.79899C20 7.11381 19.8933 7.37751 19.68 7.5901C19.4674 7.80344 19.2037 7.9101 18.8889 7.9101C18.5741 7.9101 18.3104 7.80344 18.0978 7.5901C17.8844 7.37751 17.7778 7.11381 17.7778 6.79899V3.9101L8.19444 13.4934C7.99074 13.6971 7.74074 13.799 7.44444 13.799C7.14815 13.799 6.88889 13.6879 6.66667 13.4657Z" fill="black"/>
</g>
</g>
</svg>
