<svg width="20" height="21" viewBox="0 0 20 21" fill="none" xmlns="http://www.w3.org/2000/svg">
<path d="M16.36 1.80296C16.8217 1.78424 17.2721 1.94903 17.6126 2.26131C17.9532 2.57359 18.1563 3.00798 18.1776 3.46956V16.7993C18.1561 17.2608 17.9529 17.695 17.6124 18.0073C17.2718 18.3195 16.8217 18.4844 16.36 18.4659H3.63512C3.1735 18.4844 2.72333 18.3195 2.38282 18.0073C2.04231 17.695 1.83911 17.2608 1.81757 16.7993V3.46855C1.83885 3.00698 2.04197 2.57259 2.38254 2.26031C2.72311 1.94803 3.17343 1.78324 3.63512 1.80196H16.359M16.359 0.13536H3.63512C2.71163 0.0968511 1.81051 0.425923 1.12917 1.05049C0.44782 1.67506 0.0417879 2.54421 0 3.46756V16.7973C0.0433412 17.7201 0.449853 18.5883 1.13084 19.2126C1.81184 19.8368 2.71205 20.1664 3.63512 20.1295H16.359C17.2821 20.1664 18.1823 19.8368 18.8633 19.2126C19.5443 18.5883 19.9508 17.7201 19.9942 16.7973V3.46855C19.9524 2.5452 19.5463 1.67606 18.865 1.05149C18.1836 0.426922 17.2825 0.0978579 16.359 0.136367V0.13536Z" fill="black" fill-opacity="0.6"/>
<path d="M14.2373 14.4474H13.6953C13.4301 14.4474 13.1758 14.342 12.9882 14.1545C12.8007 13.967 12.6953 13.7126 12.6953 13.4474C12.6953 13.1822 12.8007 12.9278 12.9882 12.7403C13.1758 12.5527 13.4301 12.4474 13.6953 12.4474H14.2373C14.5025 12.4474 14.7569 12.5527 14.9444 12.7403C15.132 12.9278 15.2373 13.1822 15.2373 13.4474C15.2373 13.7126 15.132 13.967 14.9444 14.1545C14.7569 14.342 14.5025 14.4474 14.2373 14.4474Z" fill="black" fill-opacity="0.6"/>
<path d="M12.3177 5.813C12.3177 5.71011 12.2974 5.60823 12.258 5.51319C12.2186 5.41815 12.1609 5.33182 12.0881 5.25912C12.0153 5.18641 11.9289 5.12876 11.8338 5.08948C11.7387 5.0502 11.6368 5.03005 11.5339 5.03018H5.94326C5.84038 5.03005 5.73848 5.0502 5.64339 5.08948C5.5483 5.12876 5.46189 5.18641 5.38909 5.25912C5.31629 5.33182 5.25853 5.41815 5.21913 5.51319C5.17973 5.60823 5.15945 5.71011 5.15945 5.813C5.15972 6.0207 5.24241 6.21981 5.38938 6.36659C5.53634 6.51337 5.73555 6.59581 5.94326 6.59581H7.28695C7.61691 6.58604 7.94408 6.65889 8.23871 6.80775C8.49858 6.94746 8.70831 7.16488 8.83857 7.42961C8.87074 7.50389 8.89745 7.58039 8.91854 7.65854H5.94326C5.83804 7.65478 5.73315 7.67227 5.63483 7.70994C5.53652 7.74761 5.44679 7.8047 5.37103 7.87781C5.29526 7.95091 5.235 8.03854 5.19384 8.13545C5.15268 8.23236 5.13146 8.33658 5.13146 8.44186C5.13146 8.54715 5.15268 8.65135 5.19384 8.74826C5.235 8.84517 5.29526 8.9328 5.37103 9.0059C5.44679 9.07901 5.53652 9.1361 5.63483 9.17377C5.73315 9.21144 5.83804 9.22893 5.94326 9.22517H8.89254C8.87523 9.28384 8.85489 9.34157 8.83157 9.39813C8.70082 9.66328 8.4913 9.88152 8.23171 10.023C7.94104 10.1733 7.61705 10.2476 7.28994 10.2389H5.94926C5.82379 10.2406 5.70063 10.2728 5.59038 10.3328C5.48013 10.3927 5.38611 10.4785 5.31641 10.5828C5.31641 10.5878 5.30742 10.5888 5.30342 10.5938C5.29942 10.5988 5.29243 10.6198 5.28343 10.6318C5.25645 10.6738 5.23367 10.7183 5.21544 10.7648C5.12096 10.9464 5.09215 11.1551 5.13387 11.3555C5.17559 11.5559 5.28529 11.7357 5.44439 11.8645L9.93531 15.4527C10.0276 15.5264 10.1335 15.5813 10.247 15.6142C10.3605 15.647 10.4794 15.6572 10.5968 15.6441C10.7143 15.631 10.828 15.5949 10.9315 15.5379C11.035 15.4809 11.1262 15.404 11.2 15.3117C11.2738 15.2194 11.3287 15.1135 11.3615 15C11.3944 14.8865 11.4045 14.7676 11.3914 14.6502C11.3783 14.5327 11.3422 14.419 11.2852 14.3155C11.2282 14.212 11.1513 14.1208 11.059 14.047L8.16573 11.7356C8.51456 11.6827 8.85438 11.5818 9.17548 11.4356C9.68489 11.2006 10.1084 10.8127 10.3872 10.3259C10.5674 9.98316 10.684 9.61054 10.7311 9.22617H11.5369C11.6421 9.22993 11.747 9.21245 11.8454 9.17478C11.9437 9.13711 12.0334 9.08002 12.1092 9.00691C12.1849 8.9338 12.2452 8.84618 12.2863 8.74927C12.3275 8.65236 12.3487 8.54814 12.3487 8.44285C12.3487 8.33757 12.3275 8.23337 12.2863 8.13646C12.2452 8.03955 12.1849 7.95192 12.1092 7.87881C12.0334 7.8057 11.9437 7.74862 11.8454 7.71095C11.747 7.67327 11.6421 7.65579 11.5369 7.65955H10.7051C10.6455 7.40118 10.5507 7.15223 10.4232 6.91972C10.3482 6.80506 10.2636 6.69703 10.1702 6.5968H11.5369C11.7443 6.59601 11.9429 6.51309 12.0892 6.36618C12.2355 6.21927 12.3177 6.02036 12.3177 5.813Z" fill="black" fill-opacity="0.6"/>
</svg>
