<svg width="56" height="56" viewBox="0 0 56 56" fill="none" xmlns="http://www.w3.org/2000/svg">
<path d="M28 56C43.464 56 56 43.464 56 28C56 12.536 43.464 0 28 0C12.536 0 0 12.536 0 28C0 43.464 12.536 56 28 56Z" fill="#03BDA0"/>
<path d="M21 18.2V19.608L23.836 19.627L26.666 19.647L27.222 19.847C27.5474 19.961 27.8593 20.1106 28.152 20.293C28.8597 20.7767 29.4125 21.4545 29.744 22.245L29.79 22.428H21V25.179H29.79L29.744 25.356C29.3549 26.3053 28.6362 27.0822 27.72 27.544C26.836 27.97 26.613 27.996 23.639 27.996H21V31.37L24.91 35.28L28.827 39.196H32.757L28.565 35.004L24.373 30.812H25.179C26.9357 30.9123 28.6732 30.4034 30.098 29.371C31.3314 28.423 32.2215 27.0982 32.633 25.598L32.733 25.179H36.388V22.428H32.75L32.593 21.891C32.3767 21.203 32.0703 20.5467 31.682 19.939L31.482 19.644L33.938 19.624L36.394 19.611L36.381 18.211L36.361 16.823L28.685 16.803L21 16.8V18.2Z" fill="white"/>
</svg>
