<svg width="20" height="21" viewBox="0 0 20 21" fill="none" xmlns="http://www.w3.org/2000/svg">
<rect width="20" height="21" fill="#E5E5E5"/>
<g id="Other Icon">
<g id="Phone">
<path id="Path 1880" d="M3.45856 0.188063C2.97214 0.293027 2.88188 0.364716 1.61986 1.63095C0.513304 2.72891 0.428056 2.82719 0.297675 3.10043C0.0910066 3.51369 -0.00896124 3.9718 0.0068271 4.43328C-0.0239559 5.04651 0.0495132 5.66051 0.224128 6.24932C1.40424 10.7178 6.68464 16.5991 11.736 19.07C12.8854 19.7073 14.168 20.069 15.482 20.1263C16.0013 20.1595 16.5203 20.0555 16.9863 19.8247C17.2922 19.6764 17.3708 19.6015 18.4723 18.5068C19.7043 17.2789 19.7745 17.1889 19.9316 16.6741C20.0137 16.3245 20.0137 15.9608 19.9316 15.6112C19.7912 15.1413 19.731 15.0713 18.1748 13.5119C17.3558 12.6788 16.5751 11.9357 16.4448 11.8458C16.0866 11.5764 15.642 11.4468 15.1946 11.4815C14.7473 11.5161 14.3281 11.7127 14.016 12.034C13.8328 12.2108 13.6931 12.4275 13.6082 12.6672C13.5306 12.85 13.439 13.0266 13.334 13.1953C13.1329 13.4527 12.8716 13.6571 12.5729 13.7907C12.2743 13.9243 11.9473 13.983 11.6207 13.9617C10.2896 13.6225 9.08939 12.8972 8.17231 11.8774C7.57363 11.3962 7.08337 10.7947 6.73345 10.112C6.38352 9.4294 6.18179 8.68094 6.14139 7.91542C6.25059 7.45564 6.52389 7.0512 6.9103 6.7775C7.04192 6.69201 7.18126 6.61892 7.32651 6.55923C7.58268 6.47354 7.8199 6.33947 8.02521 6.16436C8.3444 5.86351 8.55015 5.46244 8.60797 5.02838C8.66579 4.59431 8.57217 4.15363 8.34281 3.78018C8.20574 3.55692 5.50118 0.832857 5.16688 0.577945C4.89593 0.374065 4.5822 0.233942 4.2492 0.168081C3.98759 0.114406 3.71711 0.121235 3.45856 0.188063Z" fill="black"/>
</g>
</g>
</svg>
