<svg width="21" height="21" viewBox="0 0 21 21" fill="none" xmlns="http://www.w3.org/2000/svg">
<path d="M10.3493 0.161072C8.91256 0.310291 7.60795 0.919958 6.55489 1.93465C4.77279 3.65707 4.15459 6.18101 4.9348 8.52588C5.13091 9.11423 5.53167 9.87738 5.87701 10.3123C5.94522 10.3975 6.00065 10.4871 6.00065 10.5126C6.00065 10.5339 5.86848 10.632 5.71074 10.7258C5.30571 10.9688 4.75147 11.3824 4.26118 11.813C2.27443 13.5524 1.0082 16.2938 0.995406 18.8817C0.991142 19.534 0.991142 19.5468 1.10625 19.7216C1.49422 20.3057 2.3597 20.2588 2.67945 19.6321C2.7434 19.5084 2.77325 19.3251 2.80309 18.822C2.87983 17.5856 3.13564 16.5923 3.64298 15.5733C4.39761 14.0726 5.73205 12.7296 7.21998 11.9792L7.48005 11.8471L8.09398 12.1583C10.1063 13.1687 12.2892 13.0963 14.2503 11.9451L14.4337 11.8386L14.7705 12.0048C16.1987 12.7296 17.4436 13.966 18.2111 15.4326C18.7824 16.5198 19.0509 17.5132 19.132 18.822C19.1618 19.3251 19.1916 19.5084 19.2556 19.6321C19.5711 20.2503 20.4152 20.3057 20.816 19.7387C20.9354 19.5681 20.9439 19.5212 20.9567 19.1375C20.9865 18.3061 20.7776 17.0356 20.4493 16.0423C20.249 15.4369 19.7118 14.3241 19.3579 13.7827C18.9742 13.1986 18.4711 12.5974 17.9126 12.056C17.3584 11.5188 16.9661 11.2118 16.3224 10.8025L15.9003 10.5339L16.1561 10.1758C16.672 9.45531 17.077 8.48325 17.2433 7.55809C17.3413 7.02943 17.3371 5.94652 17.239 5.40507C17.1452 4.89346 16.8894 4.11325 16.6677 3.66986C16.041 2.42921 14.9069 1.31646 13.6705 0.740896C12.6473 0.263393 11.428 0.0502224 10.3493 0.161072ZM11.6966 2.01566C12.6644 2.18193 13.4829 2.60401 14.1693 3.29041C14.7577 3.8745 15.1499 4.56944 15.3929 5.4477C15.4654 5.71203 15.4782 5.8911 15.4825 6.49224C15.4825 7.13601 15.4697 7.25965 15.3716 7.6263C15.1499 8.44061 14.7321 9.16113 14.1352 9.73669C13.2357 10.6064 12.1996 11.0328 10.9675 11.0328C9.70555 11.0328 8.60133 10.5638 7.7188 9.65569C7.14324 9.05881 6.78085 8.42782 6.56342 7.63057C6.46536 7.25965 6.45257 7.14454 6.45257 6.49224C6.45683 5.84846 6.46536 5.72056 6.56768 5.35391C7.17309 3.08577 9.4199 1.62342 11.6966 2.01566Z" fill="black"/>
</svg>
