<svg width="21" height="21" viewBox="0 0 21 21" fill="none" xmlns="http://www.w3.org/2000/svg">
<rect width="21" height="21" fill="#E5E5E5"/>
<g id="Other Icon">
<g id="Project">
<path id="Project_2" d="M10.7476 0.170975C10.6851 0.190956 8.5163 1.26994 5.9313 2.56498C1.39755 4.83785 1.2288 4.92779 1.11505 5.08764C1.06733 5.14926 1.03236 5.21975 1.01219 5.29501C0.992012 5.37026 0.987038 5.44876 0.997552 5.52596C0.987038 5.60316 0.992012 5.6817 1.01219 5.75695C1.03236 5.83221 1.06733 5.9027 1.11505 5.96432C1.22505 6.12042 1.3338 6.18284 2.90505 6.97335C3.8288 7.43542 4.5813 7.82259 4.5813 7.83383C4.5813 7.84507 3.8313 8.2322 2.90505 8.69427C1.33505 9.48478 1.22505 9.5472 1.11505 9.70331C1.06733 9.76493 1.03236 9.83541 1.01219 9.91067C0.992012 9.98593 0.987038 10.0645 0.997552 10.1417C0.987038 10.2189 0.992012 10.2974 1.01219 10.3726C1.03236 10.4479 1.06733 10.5184 1.11505 10.58C1.22505 10.7361 1.3338 10.7985 2.90505 11.5891C3.8288 12.0511 4.5813 12.4383 4.5813 12.4495C4.5813 12.4607 3.8313 12.8479 2.90505 13.3099C1.33505 14.1004 1.22505 14.1629 1.11505 14.319C1.06733 14.3806 1.03236 14.4511 1.01219 14.5264C0.992012 14.6016 0.987038 14.6801 0.997552 14.7573C0.987038 14.8345 0.992012 14.9131 1.01219 14.9883C1.03236 15.0636 1.06733 15.1341 1.11505 15.1957C1.2288 15.3605 1.39755 15.4454 5.99005 17.7458C10.7238 20.1186 10.7476 20.1323 10.9901 20.1323H11.2401L15.9901 17.7596C21.4013 15.0571 20.9588 15.3218 20.9788 14.7786C20.9951 14.4776 20.9863 14.4539 20.8726 14.2978C20.7588 14.1417 20.6226 14.063 19.0876 13.2987C18.1713 12.8416 17.4238 12.4583 17.4238 12.4458C17.4238 12.4333 18.1738 12.0511 19.0838 11.5966C21.0226 10.6262 20.9588 10.6736 20.9788 10.1604C20.9951 9.85941 20.9863 9.83571 20.8726 9.6796C20.7588 9.5235 20.6226 9.4448 19.0876 8.68051C18.1713 8.22344 17.4238 7.84007 17.4238 7.82758C17.4238 7.81509 18.1738 7.43292 19.0838 6.97835C21.0226 6.008 20.9588 6.05547 20.9788 5.5422C21.0026 4.97148 21.4688 5.25247 16.0063 2.52252C10.9551 0.00986978 11.0763 0.0623263 10.7476 0.170975ZM14.7476 3.65649C16.7838 4.67304 18.4476 5.51475 18.4476 5.52973C18.4476 5.54472 16.7751 6.38643 14.7276 7.40298L10.9976 9.26247L7.27755 7.4042C5.2338 6.38266 3.55755 5.53845 3.55755 5.53095C3.55755 5.52346 10.9326 1.81819 10.9851 1.81819C11.0176 1.81069 12.7051 2.64368 14.7413 3.65649H14.7476ZM8.59255 9.81821C10.7113 10.8785 10.7576 10.9022 10.9963 10.9022C11.2351 10.9022 11.2551 10.9022 13.4313 9.81071L15.6276 8.7155L17.0376 9.41984C17.8126 9.80697 18.4476 10.1317 18.4476 10.1429C18.4476 10.1542 16.7751 10.9996 14.7276 12.0162L10.9976 13.8782L7.27755 12.0199C5.2338 10.9984 3.55755 10.1542 3.55755 10.1467C3.55755 10.1392 6.30755 8.74172 6.3688 8.74172C6.39755 8.73423 7.39505 9.22377 8.5863 9.81821H8.59255ZM8.59255 14.4389C10.7113 15.4991 10.7576 15.5229 10.9963 15.5229C11.2351 15.5229 11.2551 15.5229 13.4313 14.4314L15.6276 13.3362L17.0376 14.0405C17.8126 14.4276 18.4476 14.7523 18.4476 14.7636C18.4476 14.7748 16.7751 15.6203 14.7276 16.6368L10.9976 18.4926L7.27755 16.6344C5.2338 15.6128 3.55755 14.7686 3.55755 14.7611C3.55755 14.7536 6.30755 13.3562 6.3688 13.3562C6.39755 13.3499 7.39505 13.8394 8.5863 14.4339L8.59255 14.4389Z" fill="black"/>
</g>
</g>
</svg>
