<svg width="16" height="21" viewBox="0 0 16 21" fill="none" xmlns="http://www.w3.org/2000/svg">
<rect width="16" height="21" fill="#E5E5E5"/>
<g id="Other Icon">
<g id="Purchase Order">
<path id="Purchase Order_2" d="M0 0.132324V20.1323H15.3846V5.20925L15.1538 4.97848L10.5385 0.363093L10.3077 0.132324H0ZM1.53846 1.67079H9.23077V6.28617H13.8462V18.5939H1.53846V1.67079ZM10.7692 2.74771L12.7692 4.74771H10.7692V2.74771ZM3.07692 7.82463V9.36309H12.3077V7.82463H3.07692ZM3.07692 11.6708V13.2092H8.46154V11.6708H3.07692ZM10 11.6708V13.2092H12.3077V11.6708H10ZM3.07692 14.7477V16.2862H8.46154V14.7477H3.07692ZM10 14.7477V16.2862H12.3077V14.7477H10Z" fill="black"/>
</g>
</g>
</svg>
