<svg width="21" height="18" viewBox="0 0 21 18" fill="none" xmlns="http://www.w3.org/2000/svg">
<path d="M5.28484 0.873001C3.70594 0.898601 2.1508 1.26173 0.723838 1.938C0.521789 2.03004 0.350613 2.17847 0.230873 2.36544C0.111134 2.55241 0.047924 2.76998 0.0488379 2.992V15.969C0.0482887 16.0658 0.0720298 16.1612 0.117889 16.2465C0.163748 16.3318 0.23026 16.4042 0.31134 16.4571C0.39242 16.5101 0.485478 16.5418 0.581999 16.5495C0.67852 16.5571 0.775422 16.5405 0.863838 16.501C2.13916 15.8515 3.56536 15.5561 4.99375 15.6454C6.42213 15.7348 7.8004 16.2057 8.98484 17.009C9.08618 17.0873 9.21077 17.1295 9.33884 17.129C9.49251 17.1282 9.63969 17.0669 9.74845 16.9583C9.85721 16.8497 9.91879 16.7027 9.91984 16.549V2.615C9.9201 2.52148 9.89777 2.42929 9.85477 2.34624C9.81177 2.2632 9.74936 2.19176 9.67284 2.138C8.35592 1.31727 6.83656 0.879259 5.28484 0.873001ZM20.2758 1.938C18.8457 1.27127 17.2924 0.909594 15.7148 0.876001C14.1644 0.888294 12.6469 1.32473 11.3268 2.138C11.2504 2.19139 11.188 2.26247 11.145 2.34518C11.102 2.42789 11.0797 2.51978 11.0798 2.613V16.513C11.0773 16.5915 11.0904 16.6696 11.1183 16.743C11.1462 16.8164 11.1884 16.8835 11.2425 16.9404C11.2965 16.9973 11.3613 17.043 11.4331 17.0746C11.505 17.1063 11.5824 17.1235 11.6608 17.125C11.7893 17.1252 11.9142 17.0826 12.0158 17.004C13.2003 16.2007 14.5785 15.7298 16.0069 15.6404C17.4353 15.5511 18.8615 15.8465 20.1368 16.496C20.2253 16.5355 20.3222 16.5521 20.4187 16.5445C20.5152 16.5368 20.6083 16.5051 20.6893 16.4521C20.7704 16.3992 20.8369 16.3268 20.8828 16.2415C20.9286 16.1562 20.9524 16.0608 20.9518 15.964V2.991C20.9453 2.77067 20.8789 2.55628 20.7598 2.37079C20.6407 2.18529 20.4734 2.03569 20.2758 1.938Z" fill="url(#paint0_linear_1973_901)"/>
<defs>
<linearGradient id="paint0_linear_1973_901" x1="0.0488281" y1="7.77156" x2="20.9521" y2="7.72861" gradientUnits="userSpaceOnUse">
<stop stop-color="#6E60FB"/>
<stop offset="1" stop-color="#F80CE6"/>
</linearGradient>
</defs>
</svg>
