<svg width="21" height="21" viewBox="0 0 21 21" fill="none" xmlns="http://www.w3.org/2000/svg">
<rect width="21" height="21" fill="#E5E5E5"/>
<g id="Other Icon">
<g id="search icon">
<path id="search icon_2" d="M20.7631 18.7146L17.1657 15.1191C18.6706 13.312 19.4209 10.9948 19.2605 8.64905C19.1001 6.30333 18.0415 4.10963 16.3045 2.52391C14.5676 0.938189 12.2861 0.0824381 9.93421 0.134574C7.58231 0.18671 5.34098 1.14272 3.67613 2.80385C2.01127 4.46498 1.05095 6.70346 0.994796 9.05397C0.938642 11.4045 1.79097 13.6862 3.37461 15.4249C4.95825 17.1635 7.15137 18.2253 9.49809 18.3896C11.8448 18.5539 14.1646 17.8079 15.9753 16.3069L19.5727 19.9023C19.7318 20.0528 19.9434 20.1353 20.1625 20.1322C20.3816 20.1292 20.5908 20.0409 20.7458 19.886C20.9007 19.7312 20.9891 19.5221 20.9921 19.3031C20.9951 19.0841 20.9126 18.8726 20.762 18.7136L20.7631 18.7146ZM2.6621 9.27834C2.66051 7.80234 3.09697 6.35906 3.91628 5.13103C4.73559 3.903 5.90093 2.94542 7.26486 2.37948C8.6288 1.81353 10.13 1.66462 11.5787 1.9516C13.0273 2.23857 14.3582 2.94854 15.403 3.99167C16.4479 5.0348 17.1596 6.36423 17.4483 7.81175C17.737 9.25927 17.5897 10.7598 17.0249 12.1236C16.4601 13.4874 15.5033 14.6532 14.2755 15.4734C13.0477 16.2935 11.6041 16.7313 10.1272 16.7313C8.14916 16.7297 6.25242 15.9443 4.85285 14.5472C3.45329 13.1501 2.6651 11.2553 2.66109 9.27834H2.6621Z" fill="black"/>
</g>
</g>
</svg>
