<svg width="21" height="21" viewBox="0 0 21 21" fill="none" xmlns="http://www.w3.org/2000/svg">
<rect width="21" height="21" fill="#E5E5E5"/>
<g id="Other Icon">
<g id="Seller Type">
<path id="Seller Type_2" d="M18.9922 10.1323V5.13232H20.9922V11.1323H18.9922M18.9922 15.1323H20.9922V13.1323H18.9922M8.99219 11.1323C11.6622 11.1323 16.9922 12.4723 16.9922 15.1323V18.1323H0.992188V15.1323C0.992188 12.4723 6.32219 11.1323 8.99219 11.1323ZM8.99219 2.13232C10.0531 2.13232 11.0705 2.55375 11.8206 3.3039C12.5708 4.05404 12.9922 5.07146 12.9922 6.13232C12.9922 7.19319 12.5708 8.21061 11.8206 8.96075C11.0705 9.7109 10.0531 10.1323 8.99219 10.1323C7.93132 10.1323 6.91391 9.7109 6.16376 8.96075C5.41361 8.21061 4.99219 7.19319 4.99219 6.13232C4.99219 5.07146 5.41361 4.05404 6.16376 3.3039C6.91391 2.55375 7.93132 2.13232 8.99219 2.13232ZM8.99219 13.0323C6.02219 13.0323 2.89219 14.4923 2.89219 15.1323V16.2323H15.0922V15.1323C15.0922 14.4923 11.9622 13.0323 8.99219 13.0323ZM8.99219 4.03232C8.43523 4.03232 7.90109 4.25357 7.50726 4.6474C7.11344 5.04123 6.89219 5.57537 6.89219 6.13232C6.89219 6.68928 7.11344 7.22342 7.50726 7.61725C7.90109 8.01108 8.43523 8.23232 8.99219 8.23232C9.54914 8.23232 10.0833 8.01108 10.4771 7.61725C10.8709 7.22342 11.0922 6.68928 11.0922 6.13232C11.0922 5.57537 10.8709 5.04123 10.4771 4.6474C10.0833 4.25357 9.54914 4.03232 8.99219 4.03232Z" fill="black"/>
</g>
</g>
</svg>
