<svg width="25" height="25" viewBox="0 0 25 25" fill="none" xmlns="http://www.w3.org/2000/svg">
<rect width="25" height="25" fill="#E5E5E5"/>
<g id="Other Icon">
<g id="Share App">
<g id="Mask Group 77">
<g id="icons">
<path id="share" d="M22.2505 10.2753L15.3785 4.02733C14.8585 3.50733 14.2335 4.02733 14.2335 4.86033V7.98533C11.9176 8.01793 9.65695 8.69805 7.70749 9.94874C5.75802 11.1994 4.1975 12.9708 3.2025 15.0623C2.51713 16.4078 2.02655 17.8438 1.7455 19.3273C1.5375 20.3683 3.0985 20.8883 3.7225 19.9513C4.81589 18.1337 6.35518 16.6254 8.19458 15.5691C10.034 14.5128 12.1126 13.9436 14.2335 13.9153V17.3493C14.2335 18.1823 14.8575 18.7023 15.3785 18.1823L22.2505 11.9403C22.4518 11.7097 22.5627 11.414 22.5627 11.1078C22.5627 10.8017 22.4518 10.506 22.2505 10.2753Z" fill="black"/>
</g>
</g>
</g>
</g>
</svg>
