<svg width="21" height="20" viewBox="0 0 21 20" fill="none" xmlns="http://www.w3.org/2000/svg">
<path d="M9.083 0.220243C3.51471 1.45648 0.910839 3.33214 0.590362 6.35879C0.430123 7.93605 0.590362 8.57549 1.43161 9.89698C2.71352 11.8579 2.71352 12.1137 1.47167 14.2451C0.149706 16.5044 0.189765 17.9964 1.51173 19.1048C2.11263 19.6163 2.8337 20 3.11412 20C3.91531 20 3.79513 18.2948 2.99394 17.6554C2.39305 17.1865 2.4331 16.9734 3.39454 15.1829C4.75656 12.7531 4.75656 11.1758 3.47466 9.3428C2.91382 8.53286 2.47316 7.46714 2.47316 6.91296C2.47316 4.73889 5.63788 2.99111 10.8056 2.30905C12.6483 2.05328 12.8887 1.92539 12.8887 0.98756C12.8887 0.0923557 12.7284 -0.0355301 11.4065 0.00709915C10.5652 0.0497284 9.52366 0.134985 9.083 0.220243Z" fill="#FF9933"/>
<path d="M16.5346 5.20778L15.6934 6.18824L17.2156 7.76551L18.7379 9.34277L19.6192 8.36231L20.5005 7.33922L19.6593 6.23087C18.2972 4.35521 17.5361 4.09943 16.5346 5.20778Z" fill="#FF9933"/>
<path d="M9.96412 12.2416C6.03827 16.4192 5.67773 16.9734 5.67773 18.4227C5.67773 19.9574 5.71779 20 7.2 20C8.56203 20 9.04274 19.6163 13.0086 15.3961L17.295 10.7922L15.7728 9.21492L14.2505 7.63765L9.96412 12.2416Z" fill="#FF9933"/>
</svg>
