<svg width="21" height="21" viewBox="0 0 21 21" fill="none" xmlns="http://www.w3.org/2000/svg">
<rect width="21" height="21" fill="#E5E5E5"/>
<g id="Other Icon">
<g id="Sign">
<path id="Vector" d="M8.72558 0.352568C3.15729 1.5888 0.553417 3.46447 0.23294 6.49111C0.0727013 8.06838 0.23294 8.70781 1.07419 10.0293C2.3561 11.9902 2.3561 12.246 1.11425 14.3774C-0.207716 16.6368 -0.167656 18.1288 1.15431 19.2371C1.75521 19.7487 2.47628 20.1323 2.7567 20.1323C3.55789 20.1323 3.43771 18.4272 2.63652 17.7877C2.03562 17.3188 2.07568 17.1057 3.03711 15.3153C4.39914 12.8854 4.39914 11.3082 3.11723 9.47513C2.5564 8.66518 2.11574 7.59946 2.11574 7.04529C2.11574 4.87122 5.28045 3.12344 10.4481 2.44138C12.2909 2.1856 12.5312 2.05772 12.5312 1.11988C12.5312 0.22468 12.371 0.0967941 11.049 0.139423C10.2078 0.182053 9.16624 0.267309 8.72558 0.352568Z" fill="black"/>
<path id="Vector_2" d="M16.1772 5.34014L15.3359 6.3206L16.8582 7.89786L18.3805 9.47513L19.2618 8.49467L20.1431 7.47158L19.3018 6.36323C17.9398 4.48756 17.1787 4.23179 16.1772 5.34014Z" fill="black"/>
<path id="Vector_3" d="M9.60669 12.3739C5.68085 16.5515 5.32031 17.1057 5.32031 18.5551C5.32031 20.0897 5.36037 20.1323 6.84258 20.1323C8.20461 20.1323 8.68532 19.7487 12.6512 15.5284L16.9376 10.9245L15.4153 9.34724L13.8931 7.76997L9.60669 12.3739Z" fill="black"/>
</g>
</g>
</svg>
