<svg width="20" height="21" viewBox="0 0 20 21" fill="none" xmlns="http://www.w3.org/2000/svg">
<rect width="20" height="21" fill="#E5E5E5"/>
<g id="Other Icon">
<g id="Sort">
<path id="Sort_2" d="M4.28598 0.498574C4.47374 0.264236 4.72836 0.132591 4.99385 0.132591C5.25934 0.132591 5.51396 0.264236 5.70172 0.498574L9.70664 5.49857C9.88902 5.73433 9.98994 6.05008 9.98766 6.37783C9.98538 6.70557 9.88008 7.01909 9.69444 7.25085C9.50881 7.48261 9.25769 7.61407 8.99517 7.61692C8.73265 7.61976 8.47973 7.49377 8.2909 7.26607L5.99508 4.39982V18.8823C5.99508 19.2138 5.88959 19.5318 5.70183 19.7662C5.51406 20.0006 5.25939 20.1323 4.99385 20.1323C4.72831 20.1323 4.47364 20.0006 4.28587 19.7662C4.0981 19.5318 3.99262 19.2138 3.99262 18.8823V4.39982L1.6968 7.26607C1.50796 7.49377 1.25505 7.61976 0.99253 7.61692C0.730011 7.61407 0.47889 7.48261 0.293254 7.25085C0.107617 7.01909 0.00231907 6.70557 3.78491e-05 6.37783C-0.00224337 6.05008 0.098675 5.73433 0.281057 5.49857L4.28598 0.498574ZM14.0049 15.8648V1.38232C14.0049 1.0508 14.1104 0.732861 14.2982 0.498441C14.4859 0.264021 14.7406 0.132324 15.0062 0.132324C15.2717 0.132324 15.5264 0.264021 15.7141 0.498441C15.9019 0.732861 16.0074 1.0508 16.0074 1.38232V15.8648L18.3032 12.9986C18.492 12.7709 18.7449 12.6449 19.0075 12.6477C19.27 12.6506 19.5211 12.782 19.7067 13.0138C19.8924 13.2456 19.9977 13.5591 20 13.8868C20.0022 14.2146 19.9013 14.5303 19.7189 14.7661L15.714 19.7661C15.5263 20.0004 15.2716 20.1321 15.0062 20.1321C14.7407 20.1321 14.486 20.0004 14.2983 19.7661L10.2934 14.7661C10.111 14.5303 10.0101 14.2146 10.0123 13.8868C10.0146 13.5591 10.1199 13.2456 10.3056 13.0138C10.4912 12.782 10.7423 12.6506 11.0048 12.6477C11.2674 12.6449 11.5203 12.7709 11.7091 12.9986L14.0049 15.8648Z" fill="black"/>
</g>
</g>
</svg>
