<svg width="21" height="21" viewBox="0 0 21 21" fill="none" xmlns="http://www.w3.org/2000/svg">
<rect width="21" height="21" fill="#E5E5E5"/>
<g id="Other Icon">
<g id="Stage">
<path id="Path 1856" d="M18.059 0.738603C16.9091 1.06723 15.9285 1.35588 15.8807 1.38712C15.8208 1.43276 15.779 1.50379 15.7644 1.58476C15.7498 1.66572 15.7635 1.75005 15.8026 1.81942C15.9526 2.05198 16.1243 2.26488 16.3146 2.45421C16.78 2.95401 16.8191 3.01772 16.7843 3.13017C16.3289 3.53626 15.8465 3.90058 15.3416 4.21976C12.3044 6.27622 8.97523 7.69715 5.50806 8.41685C4.48659 8.6307 3.45295 8.75849 2.41535 8.7992L1.48135 8.85293L1.32081 8.97789C1.2124 9.06287 1.12528 9.17917 1.06817 9.31513C1.01106 9.45109 0.985952 9.60193 0.995373 9.75258C0.987522 9.83665 0.994217 9.9217 1.01507 10.0028C1.03593 10.0838 1.07052 10.1594 1.11687 10.2249C1.36745 10.6348 1.6137 10.6935 2.84167 10.621C8.02964 10.1783 13.0333 8.21566 17.3777 4.91949C17.5781 4.75029 17.7946 4.60814 18.0232 4.49588C18.0861 4.49588 18.2813 4.69456 18.6805 5.14939C19.0797 5.60421 19.2869 5.80665 19.3683 5.82539C19.4277 5.83971 19.4895 5.82838 19.5421 5.79359C19.5947 5.7588 19.6344 5.70299 19.6536 5.63671C19.6883 5.56049 20.3728 2.13808 20.619 0.794848C20.7091 0.317533 20.619 0.12386 20.2936 0.132607C20.2177 0.147601 19.2088 0.409981 18.059 0.738603Z" fill="black"/>
<path id="Path 1857" d="M15.8391 7.95326C15.7173 8.02486 15.6112 8.12722 15.5285 8.25271C15.4459 8.3782 15.3889 8.52359 15.3619 8.678C15.3347 8.82169 15.3228 10.6547 15.3304 14.1184L15.3423 19.3426L15.428 19.5275C15.487 19.6452 15.558 19.7543 15.6395 19.8524C15.8934 20.141 15.8619 20.136 18.2202 20.1223L20.3551 20.1085L20.5471 19.9736C20.6706 19.881 20.7759 19.7597 20.8562 19.6175L20.9734 19.3963L20.9853 14.0409L20.9929 8.68547L20.9105 8.4643C20.8127 8.21302 20.6388 8.01139 20.4213 7.89705C19.6716 7.81009 18.9173 7.78918 18.1649 7.83455H16.0452L15.8391 7.95326Z" fill="black"/>
<path id="Path 1858" d="M9.31684 10.6735C9.2213 10.6987 9.12826 10.7352 9.03914 10.7822C8.84018 10.9243 8.68762 11.1383 8.60524 11.3907C8.57053 11.5157 8.55859 12.6252 8.55859 15.4304C8.55859 19.2264 8.55858 19.3039 8.64102 19.5013C8.6795 19.6194 8.73907 19.7269 8.81587 19.8169C8.89266 19.9069 8.98499 19.9773 9.08688 20.0236L9.28213 20.1323H11.3931C13.7503 20.1323 13.6712 20.141 13.9424 19.8124C14.2135 19.4838 14.2081 19.7087 14.2201 15.6291C14.2276 13.6111 14.2201 11.833 14.2081 11.6793C14.1993 11.4928 14.1481 11.3121 14.0595 11.1555C13.971 10.9989 13.8483 10.8719 13.7037 10.7872L13.4694 10.6522L11.4756 10.6435C10.3756 10.6372 9.40254 10.661 9.31684 10.6735Z" fill="black"/>
<path id="Path 1859" d="M2.40312 13.2625C2.24442 13.3254 2.1037 13.4371 1.99622 13.5856C1.88875 13.734 1.81863 13.9136 1.79347 14.1047C1.76635 14.2709 1.75442 15.2442 1.76201 16.8299C1.77395 19.5676 1.76201 19.4776 2.03972 19.8112C2.31742 20.1448 2.23172 20.1311 4.58895 20.1311H6.69993L6.89519 20.0224C6.99708 19.9761 7.08941 19.9057 7.1662 19.8157C7.243 19.7257 7.30256 19.6182 7.34103 19.5001C7.41914 19.3014 7.42348 19.2164 7.42348 16.6624C7.42348 13.7036 7.43541 13.8335 7.13059 13.4962C6.86482 13.1988 6.83336 13.195 4.57376 13.195C3.84977 13.1544 3.12415 13.1769 2.40312 13.2625Z" fill="black"/>
</g>
</g>
</svg>
