<svg width="21" height="21" viewBox="0 0 21 21" fill="none" xmlns="http://www.w3.org/2000/svg">
<path d="M6.23438 1.80029C6.17969 1.80811 6.03125 1.85107 5.90234 1.89404C5.43359 2.04639 5.32812 2.15186 4.11719 3.69092L3 5.11279L6.60938 5.12451C8.59375 5.12842 11.8438 5.12842 13.8281 5.12451L17.4375 5.11279L16.3203 3.69092C15.1172 2.16357 15.0234 2.06592 14.5352 1.88232L14.3008 1.79248L10.3164 1.78857C8.125 1.78467 6.28906 1.78857 6.23438 1.80029Z" fill="black"/>
<path d="M2.34734 5.82373C1.7575 6.13232 1.70281 6.91748 2.24187 7.30029L2.41375 7.41748H10.2184H18.0231L18.195 7.30029C18.7262 6.92529 18.6794 6.12451 18.1052 5.83154C17.9606 5.75732 17.8005 5.75732 10.2106 5.75732C3.23406 5.76123 2.45281 5.76514 2.34734 5.82373Z" fill="black"/>
<path d="M2.71875 8.83937C2.71875 9.49171 2.77734 9.76906 2.98828 10.1011C3.38281 10.7222 4.16797 11.0777 4.87891 10.9605C5.26562 10.8941 5.66797 10.6909 5.93359 10.4214C6.15625 10.1987 6.37109 9.83546 6.41406 9.60109C6.44531 9.43312 6.49219 9.43312 6.52344 9.60109C6.60547 10.0347 7.03125 10.5464 7.5 10.7769C8.05859 11.0503 8.62891 11.0503 9.1875 10.7769C9.65625 10.5464 10.082 10.0347 10.1641 9.60109C10.1953 9.43312 10.2422 9.43312 10.2734 9.60109C10.3164 9.83546 10.5312 10.1987 10.7539 10.4214C11.0195 10.6909 11.4219 10.8941 11.8125 10.9605C12.3789 11.0542 13.0117 10.8433 13.4336 10.4214C13.6562 10.1987 13.8711 9.83546 13.9141 9.60109C13.9258 9.52687 13.9531 9.46828 13.9688 9.46828C13.9844 9.46828 14.0117 9.52687 14.0234 9.60109C14.0664 9.83546 14.2812 10.1987 14.5039 10.4214C14.7695 10.6909 15.1719 10.8941 15.5625 10.9605C16.2695 11.0777 17.0547 10.7222 17.4492 10.1011C17.6602 9.76906 17.7188 9.49171 17.7188 8.83937V8.25734H10.2188H2.71875V8.83937Z" fill="black"/>
<path d="M9.96484 11.1089C9.67969 11.3472 9.31641 11.5425 8.92969 11.6636C8.6875 11.7378 8.55078 11.7534 8.12891 11.7534C7.67578 11.7534 7.58594 11.7417 7.27734 11.6401C7.08984 11.5776 6.83984 11.4683 6.71875 11.3979C6.59766 11.3237 6.48438 11.2651 6.46875 11.2651C6.45312 11.2651 6.33984 11.3237 6.21875 11.3979C6.09766 11.4683 5.84766 11.5776 5.66016 11.6401C5.34766 11.7417 5.26953 11.7534 4.78906 11.7495C4.26953 11.7495 4.05078 11.7065 3.60547 11.519C3.54297 11.4917 3.53906 11.6362 3.53906 14.1831C3.53906 16.4761 3.54688 16.9097 3.59766 17.105C3.77734 17.7886 4.35156 18.3237 5.03906 18.4487C5.17578 18.4761 5.81641 18.4917 6.60938 18.4917H7.94922L7.96094 16.6636L7.97266 14.8394L8.10156 14.5776C8.26172 14.2495 8.60156 13.9253 8.91797 13.8003C9.13281 13.7144 9.20312 13.7065 10.2383 13.6948C10.9688 13.687 11.4102 13.6948 11.5664 13.7261C12.1992 13.8511 12.6758 14.3315 12.7969 14.9761C12.8203 15.0933 12.8359 15.8901 12.8359 16.8354V18.4917H14C14.668 18.4917 15.2656 18.4722 15.3984 18.4487C16.0898 18.3237 16.6602 17.7925 16.8398 17.105C16.8906 16.9097 16.8984 16.4761 16.8984 14.1831C16.8984 11.6362 16.8945 11.4917 16.832 11.519C16.3867 11.7065 16.168 11.7495 15.6484 11.7495C15.168 11.7534 15.0898 11.7417 14.7773 11.6401C14.5898 11.5776 14.3398 11.4683 14.2188 11.3979C14.0977 11.3237 13.9844 11.2651 13.9688 11.2651C13.9531 11.2651 13.8398 11.3237 13.7188 11.3979C13.5977 11.4683 13.3477 11.5776 13.1602 11.6401C12.8516 11.7417 12.7617 11.7534 12.3086 11.7534C11.8867 11.7534 11.75 11.7378 11.5078 11.6636C11.125 11.5425 10.7617 11.3511 10.4648 11.1089C10.332 10.9995 10.2188 10.9136 10.2109 10.9175C10.2031 10.9175 10.0938 11.0034 9.96484 11.1089Z" fill="black"/>
<path d="M9.26172 14.9956L9.16406 15.0894V16.6753V18.2573H10.3945H11.625V16.7144C11.625 15.6714 11.6094 15.144 11.582 15.0815C11.5039 14.9136 11.4062 14.8979 10.3516 14.8979H9.35547L9.26172 14.9956Z" fill="black"/>
</svg>
