<svg width="21" height="21" viewBox="0 0 21 21" fill="none" xmlns="http://www.w3.org/2000/svg">
<path d="M19.7973 0.553192H0.640625V19.7114H19.7973V0.553192Z" stroke="black"/>
<path d="M3.48583 11.1155C3.44056 11.1453 3.40278 11.1851 3.37543 11.2318C3.34808 11.2785 3.33189 11.3309 3.32812 11.3849C3.33183 11.4389 3.34799 11.4913 3.37535 11.538C3.4027 11.5847 3.44052 11.6245 3.48583 11.6542L3.63763 11.7771H17.1506L17.3024 11.6542C17.3477 11.6245 17.3855 11.5847 17.4129 11.538C17.4402 11.4913 17.4564 11.4389 17.4601 11.3849C17.4563 11.3309 17.4402 11.2785 17.4128 11.2318C17.3855 11.1851 17.3477 11.1453 17.3024 11.1155L17.1506 10.9926H3.63763L3.48583 11.1155Z" fill="black"/>
<path d="M3.48583 13.4572C3.44052 13.4869 3.4027 13.5267 3.37535 13.5735C3.34799 13.6202 3.33183 13.6726 3.32812 13.7266C3.33183 13.7806 3.34799 13.833 3.37535 13.8797C3.4027 13.9264 3.44052 13.9662 3.48583 13.9959L3.63763 14.1188H17.1506L17.3024 13.9959C17.3477 13.9662 17.3855 13.9264 17.4129 13.8797C17.4402 13.833 17.4564 13.7806 17.4601 13.7266C17.4564 13.6726 17.4402 13.6202 17.4129 13.5735C17.3855 13.5267 17.3477 13.4869 17.3024 13.4572L17.1506 13.3343H3.63763L3.48583 13.4572Z" fill="black"/>
<path d="M3.45126 15.7998C3.41381 15.8343 3.38363 15.8759 3.36249 15.9221C3.34135 15.9684 3.32967 16.0184 3.32812 16.0692C3.32967 16.12 3.34135 16.17 3.36249 16.2163C3.38363 16.2625 3.41381 16.3041 3.45126 16.3386L3.56933 16.4615H8.19424L8.31231 16.3386C8.35044 16.3048 8.38096 16.2633 8.40186 16.2169C8.42276 16.1704 8.43356 16.1201 8.43356 16.0692C8.43356 16.0183 8.42276 15.968 8.40186 15.9215C8.38096 15.8751 8.35044 15.8336 8.31231 15.7998L8.19424 15.6769H3.56933L3.45126 15.7998Z" fill="black"/>
<path d="M5.40625 3.01257V8.70007H4.03516V3.01257H5.40625ZM7.11719 3.01257V4.07117H2.36328V3.01257H7.11719ZM8.78656 5.71179L9.99359 4.95789C10.1551 4.85372 10.254 4.75606 10.2905 4.66492C10.3295 4.57117 10.3491 4.48002 10.3491 4.39148C10.3491 4.28471 10.31 4.18445 10.2319 4.0907C10.1564 3.99434 10.0496 3.94617 9.91156 3.94617C9.81 3.94617 9.72406 3.9696 9.65375 4.01648C9.58604 4.06075 9.53396 4.12065 9.4975 4.19617C9.46365 4.27169 9.44672 4.35632 9.44672 4.45007C9.44672 4.56726 9.47927 4.68575 9.54437 4.80554C9.60948 4.92533 9.69542 5.05164 9.80219 5.18445C9.91156 5.31726 10.0327 5.46309 10.1655 5.62195L12.8412 8.70007H11.3725L9.19281 6.22351C9.01312 5.99434 8.85687 5.78341 8.72406 5.5907C8.59385 5.39799 8.49229 5.21049 8.41937 5.0282C8.34646 4.84591 8.31 4.65841 8.31 4.4657C8.31 4.16622 8.3751 3.9019 8.50531 3.67273C8.63812 3.44096 8.82432 3.25997 9.06391 3.12976C9.30609 2.99695 9.58995 2.93054 9.91547 2.93054C10.2176 2.93054 10.4793 2.99304 10.7006 3.11804C10.9246 3.24304 11.0978 3.40971 11.2202 3.61804C11.3426 3.82377 11.4037 4.05033 11.4037 4.29773C11.4037 4.4696 11.3712 4.63236 11.3061 4.78601C11.241 4.93966 11.1511 5.08028 11.0366 5.20789C10.9246 5.33549 10.7957 5.45138 10.6498 5.55554L9.34516 6.4657C9.29307 6.5308 9.2501 6.59721 9.21625 6.66492C9.185 6.73002 9.16156 6.79643 9.14594 6.86414C9.13292 6.93184 9.12641 7.00476 9.12641 7.08289C9.12641 7.2183 9.15505 7.33809 9.21234 7.44226C9.26964 7.54382 9.34516 7.62325 9.43891 7.68054C9.53526 7.73783 9.63943 7.76648 9.75141 7.76648C9.96234 7.76648 10.1655 7.72091 10.3608 7.62976C10.5587 7.53601 10.7358 7.4045 10.892 7.23523C11.0483 7.06596 11.172 6.86414 11.2631 6.62976C11.3543 6.39539 11.3998 6.13757 11.3998 5.85632H12.5014C12.5014 6.16361 12.4702 6.45658 12.4077 6.73523C12.3478 7.01127 12.2475 7.26648 12.1069 7.50085C11.9689 7.73523 11.7827 7.94096 11.5483 8.11804C11.5353 8.12585 11.5105 8.14148 11.4741 8.16492C11.4402 8.18575 11.4155 8.20007 11.3998 8.20789C11.1264 8.4032 10.8569 8.54773 10.5912 8.64148C10.3256 8.73523 10.0157 8.7821 9.66156 8.7821C9.27875 8.7821 8.94802 8.71309 8.66937 8.57507C8.39333 8.43705 8.17979 8.24695 8.02875 8.00476C7.87771 7.76257 7.80219 7.48523 7.80219 7.17273C7.80219 6.95138 7.84385 6.75867 7.92719 6.5946C8.01052 6.42794 8.12641 6.27429 8.27484 6.13367C8.42328 5.99304 8.59385 5.85242 8.78656 5.71179ZM17.202 6.77429H18.5692C18.551 7.17013 18.4442 7.51908 18.2489 7.82117C18.0536 8.12325 17.7828 8.35893 17.4364 8.5282C17.0927 8.69486 16.6864 8.7782 16.2177 8.7782C15.8374 8.7782 15.4976 8.7144 15.1981 8.58679C14.9012 8.45919 14.6486 8.27559 14.4403 8.03601C14.2346 7.79643 14.077 7.50606 13.9677 7.16492C13.8609 6.82377 13.8075 6.43966 13.8075 6.01257V5.70398C13.8075 5.2769 13.8635 4.89278 13.9755 4.55164C14.0901 4.20789 14.2515 3.91622 14.4598 3.67664C14.6708 3.43445 14.9234 3.24955 15.2177 3.12195C15.5119 2.99434 15.8387 2.93054 16.1981 2.93054C16.6929 2.93054 17.1109 3.01908 17.452 3.19617C17.7932 3.37325 18.0575 3.61674 18.245 3.92664C18.4325 4.23393 18.5432 4.58419 18.577 4.97742H17.2098C17.2046 4.76388 17.1682 4.58549 17.1005 4.44226C17.0328 4.29643 16.926 4.18705 16.7802 4.11414C16.6343 4.04122 16.4403 4.00476 16.1981 4.00476C16.0289 4.00476 15.8817 4.03601 15.7567 4.09851C15.6317 4.16101 15.5276 4.25997 15.4442 4.39539C15.3609 4.5308 15.2984 4.70658 15.2567 4.92273C15.2177 5.13627 15.1981 5.39408 15.1981 5.69617V6.01257C15.1981 6.31466 15.2164 6.57247 15.2528 6.78601C15.2893 6.99955 15.3479 7.17403 15.4286 7.30945C15.5093 7.44486 15.6135 7.54513 15.7411 7.61023C15.8713 7.67273 16.0302 7.70398 16.2177 7.70398C16.426 7.70398 16.6018 7.67143 16.745 7.60632C16.8882 7.53861 16.9989 7.43705 17.077 7.30164C17.1552 7.16361 17.1968 6.98783 17.202 6.77429Z" fill="black"/>
</svg>
