<svg width="68" height="16" viewBox="0 0 68 16" fill="none" xmlns="http://www.w3.org/2000/svg">
<path d="M67.013 0H0L3.72294 8L0 16H67.013L63.29 8L67.013 0Z" fill="#FF0000"/>
<path d="M11.5367 3.46875V12H9.78474V3.46875H11.5367ZM14.1617 3.46875V4.8457H7.20076V3.46875H14.1617ZM15.1637 3.46875H18.3453C18.9976 3.46875 19.5582 3.56641 20.0269 3.76172C20.4996 3.95703 20.8629 4.24609 21.1168 4.62891C21.3707 5.01172 21.4976 5.48242 21.4976 6.04102C21.4976 6.49805 21.4195 6.89062 21.2633 7.21875C21.1109 7.54297 20.8941 7.81445 20.6129 8.0332C20.3355 8.24805 20.0094 8.41992 19.6344 8.54883L19.0777 8.8418H16.3121L16.3004 7.4707H18.357C18.6656 7.4707 18.9215 7.41602 19.1246 7.30664C19.3277 7.19727 19.4801 7.04492 19.5816 6.84961C19.6871 6.6543 19.7398 6.42773 19.7398 6.16992C19.7398 5.89648 19.689 5.66016 19.5875 5.46094C19.4859 5.26172 19.3316 5.10938 19.1246 5.00391C18.9176 4.89844 18.6578 4.8457 18.3453 4.8457H16.9215V12H15.1637V3.46875ZM19.9332 12L17.9879 8.19727L19.8453 8.18555L21.814 11.918V12H19.9332ZM27.5621 3.46875H29.314V9.10547C29.314 9.76172 29.1734 10.3145 28.8922 10.7637C28.6148 11.2129 28.2301 11.5508 27.7379 11.7773C27.2496 12.0039 26.6871 12.1172 26.0504 12.1172C25.4137 12.1172 24.8472 12.0039 24.3512 11.7773C23.859 11.5508 23.4722 11.2129 23.191 10.7637C22.9137 10.3145 22.775 9.76172 22.775 9.10547V3.46875H24.5328V9.10547C24.5328 9.48828 24.5933 9.80078 24.7144 10.043C24.8355 10.2852 25.0094 10.4629 25.2359 10.5762C25.4664 10.6895 25.7379 10.7461 26.0504 10.7461C26.3707 10.7461 26.6422 10.6895 26.8648 10.5762C27.0914 10.4629 27.2633 10.2852 27.3804 10.043C27.5015 9.80078 27.5621 9.48828 27.5621 9.10547V3.46875ZM35.2027 9.76758C35.2027 9.61523 35.1793 9.47852 35.1324 9.35742C35.0894 9.23242 35.0074 9.11914 34.8863 9.01758C34.7652 8.91211 34.5953 8.80859 34.3765 8.70703C34.1578 8.60547 33.8746 8.5 33.5269 8.39062C33.1402 8.26562 32.773 8.125 32.4254 7.96875C32.0816 7.8125 31.7769 7.63086 31.5113 7.42383C31.2496 7.21289 31.0426 6.96875 30.8902 6.69141C30.7418 6.41406 30.6676 6.0918 30.6676 5.72461C30.6676 5.36914 30.7457 5.04688 30.9019 4.75781C31.0582 4.46484 31.2769 4.21484 31.5582 4.00781C31.8394 3.79688 32.1715 3.63477 32.5543 3.52148C32.941 3.4082 33.3648 3.35156 33.8258 3.35156C34.4547 3.35156 35.0035 3.46484 35.4722 3.69141C35.941 3.91797 36.3043 4.22852 36.5621 4.62305C36.8238 5.01758 36.9547 5.46875 36.9547 5.97656H35.2086C35.2086 5.72656 35.1558 5.50781 35.0504 5.32031C34.9488 5.12891 34.7926 4.97852 34.5816 4.86914C34.3746 4.75977 34.1129 4.70508 33.7965 4.70508C33.4918 4.70508 33.2379 4.75195 33.0347 4.8457C32.8316 4.93555 32.6793 5.05859 32.5777 5.21484C32.4762 5.36719 32.4254 5.53906 32.4254 5.73047C32.4254 5.875 32.4605 6.00586 32.5308 6.12305C32.6051 6.24023 32.7144 6.34961 32.859 6.45117C33.0035 6.55273 33.1812 6.64844 33.3922 6.73828C33.6031 6.82812 33.8472 6.91602 34.1246 7.00195C34.5894 7.14258 34.9976 7.30078 35.3492 7.47656C35.7047 7.65234 36.0015 7.84961 36.2398 8.06836C36.4781 8.28711 36.6578 8.53516 36.7789 8.8125C36.9 9.08984 36.9605 9.4043 36.9605 9.75586C36.9605 10.127 36.8883 10.459 36.7437 10.752C36.5992 11.0449 36.3902 11.293 36.1168 11.4961C35.8433 11.6992 35.5172 11.8535 35.1383 11.959C34.7594 12.0645 34.3355 12.1172 33.8668 12.1172C33.4449 12.1172 33.0289 12.0625 32.6187 11.9531C32.2086 11.8398 31.8355 11.6699 31.4996 11.4434C31.1676 11.2168 30.9019 10.9277 30.7027 10.5762C30.5035 10.2246 30.4039 9.80859 30.4039 9.32812H32.1676C32.1676 9.59375 32.2086 9.81836 32.2906 10.002C32.3726 10.1855 32.4879 10.334 32.6363 10.4473C32.7887 10.5605 32.9683 10.6426 33.1754 10.6934C33.3863 10.7441 33.6168 10.7695 33.8668 10.7695C34.1715 10.7695 34.4215 10.7266 34.6168 10.6406C34.816 10.5547 34.9625 10.4355 35.0562 10.2832C35.1539 10.1309 35.2027 9.95898 35.2027 9.76758ZM41.9703 3.46875V12H40.2183V3.46875H41.9703ZM44.5953 3.46875V4.8457H37.6344V3.46875H44.5953ZM51.3219 10.6289V12H46.7808V10.6289H51.3219ZM47.3551 3.46875V12H45.5972V3.46875H47.3551ZM50.7301 6.94336V8.2793H46.7808V6.94336H50.7301ZM51.316 3.46875V4.8457H46.7808V3.46875H51.316ZM54.9664 12H53.109L53.1207 10.6289H54.9664C55.4273 10.6289 55.816 10.5254 56.1324 10.3184C56.4488 10.1074 56.6871 9.80078 56.8472 9.39844C57.0113 8.99609 57.0933 8.50977 57.0933 7.93945V7.52344C57.0933 7.08594 57.0465 6.70117 56.9527 6.36914C56.8629 6.03711 56.7281 5.75781 56.5484 5.53125C56.3687 5.30469 56.148 5.13477 55.8863 5.02148C55.6246 4.9043 55.3238 4.8457 54.984 4.8457H53.0738V3.46875H54.984C55.5543 3.46875 56.0758 3.56641 56.5484 3.76172C57.025 3.95313 57.4371 4.22852 57.7847 4.58789C58.1324 4.94727 58.4 5.37695 58.5875 5.87695C58.7789 6.37305 58.8746 6.92578 58.8746 7.53516V7.93945C58.8746 8.54492 58.7789 9.09766 58.5875 9.59766C58.4 10.0977 58.1324 10.5273 57.7847 10.8867C57.441 11.2422 57.0289 11.5176 56.5484 11.7129C56.0719 11.9043 55.5445 12 54.9664 12ZM54.1051 3.46875V12H52.3472V3.46875H54.1051Z" fill="white"/>
</svg>
