<svg width="21" height="21" viewBox="0 0 21 21" fill="none" xmlns="http://www.w3.org/2000/svg">
<rect width="21" height="21" fill="#E5E5E5"/>
<g id="Other Icon">
<g id="Verified">
<path id="Verified_2" d="M17.2878 0.558528C13.447 3.66914 10.023 7.35994 7.11681 11.5222C6.89081 11.8427 6.72981 12.0145 6.69481 11.9925C6.65981 11.9704 5.57381 11.1345 4.27781 10.1389L1.92081 8.32945L1.78981 8.43959C1.71981 8.49466 1.37281 8.86031 1.02081 9.25348L0.382812 9.9616L1.16681 11.151C3.08181 14.0508 5.22681 17.477 6.18681 19.1532C6.47781 19.6676 6.73481 20.1103 6.75481 20.1323C6.97612 19.8304 7.1713 19.5063 7.33781 19.1643C10.0031 14.1692 13.0031 9.40004 16.3128 4.89663C17.2149 3.67666 18.1812 2.5161 19.2068 1.42088L20.3878 0.132324H19.1168L17.8458 0.137836L17.2878 0.558528Z" fill="#00DBB8"/>
</g>
</g>
</svg>
