<svg width="21" height="13" viewBox="0 0 21 13" fill="none" xmlns="http://www.w3.org/2000/svg">
<rect width="21" height="13" fill="#E5E5E5"/>
<g id="Other Icon">
<g id="VyaparDost" clip-path="url(#clip0_0_1)">
<g id="Group 194">
<path id="Path 111" d="M7.80967 0.132331H6.74927C5.52647 0.130472 4.33331 0.518046 3.33495 1.24141C2.78323 1.64175 2.30195 2.13525 1.91165 2.70083C1.81406 2.84199 1.72242 2.98798 1.63672 3.13879C2.14331 2.85091 2.7132 2.70017 3.29251 2.70083H3.33557C3.92897 2.70746 4.5103 2.87349 5.0215 3.18229C5.54515 2.86615 6.14206 2.69986 6.74987 2.70083H7.81027C8.14257 2.70083 8.46126 2.5656 8.69623 2.32487C8.9312 2.08414 9.0632 1.75765 9.0632 1.41722C9.06336 1.24849 9.03106 1.08141 8.96813 0.925485C8.90519 0.769562 8.81286 0.62786 8.69644 0.508523C8.58001 0.389186 8.44176 0.294535 8.2896 0.229985C8.13744 0.165435 7.97436 0.132248 7.80967 0.132331Z" fill="#FF0000"/>
<path id="Path 112" d="M10.4206 4.73056C10.2013 4.73061 9.98589 4.78959 9.79582 4.9016C9.60576 5.01361 9.4477 5.17474 9.33742 5.36891L6.8771 9.69679C6.8771 9.69679 6.33275 9.67159 6.28723 9.66529C5.83942 9.60342 5.40819 9.45045 5.01893 9.21537C4.50768 9.52406 3.92639 9.69004 3.33299 9.69679H3.28995C2.71078 9.69794 2.14096 9.54716 1.63477 9.25883C1.72047 9.40923 1.81211 9.55522 1.9097 9.69679C2.29992 10.2619 2.781 10.755 3.33239 11.155C4.27736 11.8391 5.39767 12.2236 6.55417 12.2609C6.61568 12.2609 6.68273 12.2641 6.7467 12.2641H7.32796C7.62912 12.264 7.92499 12.183 8.18606 12.0292C8.44713 11.8754 8.66427 11.6541 8.81582 11.3875L11.5019 6.66133C11.6128 6.46631 11.6716 6.24481 11.6723 6.0191C11.673 5.79339 11.6157 5.57145 11.5061 5.37568C11.3964 5.1799 11.2384 5.0172 11.0478 4.90394C10.8572 4.79069 10.6409 4.73088 10.4206 4.73056Z" fill="#FF0000"/>
<path id="Path 113" d="M3.3411 9.17C3.70232 9.16492 4.05935 9.09011 4.3935 8.94946C4.92583 8.7254 5.38113 8.34426 5.70156 7.8545C6.02199 7.36473 6.19307 6.78841 6.19307 6.1988C6.19307 5.60919 6.02199 5.03292 5.70156 4.54315C5.38113 4.05338 4.92583 3.67224 4.3935 3.44819C4.05954 3.30676 3.70243 3.2315 3.3411 3.22638H3.29128C2.64492 3.22642 2.01704 3.44738 1.5071 3.8543C0.997169 4.26122 0.634316 4.83083 0.476045 5.47288V5.47665C0.461283 5.5321 0.449598 5.58755 0.439141 5.64426C0.371849 6.01138 0.371849 6.38811 0.439141 6.75523C0.448983 6.81005 0.461293 6.86428 0.474825 6.91784V6.92161C0.632323 7.56452 0.994931 8.13508 1.50508 8.54276C2.01522 8.95045 2.64367 9.17188 3.29066 9.17188L3.3411 9.17Z" fill="#FF0000"/>
</g>
<g id="Group 195">
<path id="Path 114" d="M18.7199 2.70082C18.3289 2.1354 17.8473 1.64195 17.2954 1.2414C16.6462 0.771328 15.911 0.440391 15.134 0.26844C14.7852 0.191004 14.4303 0.146498 14.0736 0.135478C14.0121 0.135478 13.945 0.132324 13.8811 0.132324H13.301C12.9999 0.132396 12.704 0.213365 12.4429 0.36717C12.1819 0.520975 11.9647 0.742233 11.8132 1.00886L9.1271 5.73502C9.01626 5.93016 8.95761 6.15182 8.95704 6.37759C8.95646 6.60337 9.01399 6.82532 9.12383 7.02106C9.23367 7.21679 9.39194 7.37939 9.58268 7.49248C9.77342 7.60557 9.98989 7.66516 10.2103 7.66521C10.4295 7.66516 10.6449 7.60614 10.835 7.49413C11.0251 7.38212 11.1831 7.22102 11.2934 7.02686L13.7537 2.69894C13.7537 2.69894 14.2987 2.71849 14.4986 2.75567C14.891 2.82908 15.2677 2.97287 15.6113 3.1804C16.1223 2.87159 16.7034 2.70556 17.2966 2.69894H17.3403C17.9201 2.69874 18.4903 2.8506 18.9967 3.14006C18.9093 2.99134 18.8177 2.84198 18.7199 2.70082Z" fill="#00B598"/>
<path id="Path 115" d="M17.3382 9.69678H17.2927C16.6995 9.6901 16.1184 9.52415 15.6074 9.21539C15.0833 9.53155 14.486 9.69776 13.8778 9.69678H12.8174C12.4851 9.69678 12.1664 9.83205 11.9314 10.0728C11.6965 10.3135 11.5645 10.64 11.5645 10.9805C11.5645 11.3209 11.6965 11.6474 11.9314 11.8881C12.1664 12.1288 12.4851 12.2641 12.8174 12.2641H13.8778C14.826 12.2645 15.7604 12.0315 16.6024 11.5847C17.4443 11.1379 18.1692 10.4904 18.716 9.69678C18.8144 9.55562 18.9062 9.40862 18.9915 9.2557C18.4861 9.54469 17.917 9.6965 17.3382 9.69678Z" fill="#00B598"/>
<path id="Path 116" d="M20.1919 5.64618C20.1821 5.59073 20.1698 5.53527 20.1562 5.48045C19.9999 4.83633 19.6377 4.2643 19.1273 3.85549C18.6169 3.44667 17.9876 3.22455 17.3398 3.22449C17.3232 3.22449 17.3059 3.22449 17.2893 3.22449C16.9282 3.22938 16.5712 3.30465 16.2375 3.4463C15.7051 3.67038 15.2497 4.05161 14.9291 4.54149C14.6086 5.03137 14.4375 5.60781 14.4375 6.19756C14.4375 6.78732 14.6086 7.36376 14.9291 7.85364C15.2497 8.34352 15.7051 8.72471 16.2375 8.9488C16.5714 9.08979 16.9283 9.16484 17.2893 9.16999C17.3059 9.16999 17.3232 9.16999 17.3398 9.16999C17.9874 9.16977 18.6164 8.94776 19.1267 8.53922C19.6371 8.13068 19.9994 7.55907 20.1562 6.9153C20.1698 6.86047 20.1821 6.80629 20.1919 6.75083C20.258 6.38657 20.258 6.01294 20.1919 5.64868V5.64618Z" fill="#00B598"/>
</g>
<path id="Path 117" d="M10.9442 3.80673C10.7249 3.80679 10.5095 3.8658 10.3195 3.97781C10.1294 4.08982 9.97134 4.25092 9.86106 4.44508L8.60261 6.66073C8.49236 6.8556 8.43407 7.07673 8.4336 7.30196C8.43312 7.5272 8.49046 7.74861 8.59989 7.94396C8.70931 8.13932 8.86696 8.30175 9.05701 8.41496C9.24706 8.52818 9.46283 8.5882 9.68268 8.589C9.90195 8.58895 10.1174 8.52998 10.3074 8.41796C10.4975 8.30595 10.6556 8.14482 10.7658 7.95066L12.0249 5.735C12.1352 5.54009 12.1935 5.3189 12.1939 5.09362C12.1944 4.86833 12.137 4.64687 12.0275 4.4515C11.918 4.25613 11.7602 4.09371 11.5701 3.98054C11.38 3.86737 11.1641 3.80742 10.9442 3.80673Z" fill="#095256"/>
<path id="Path 117 - Outline" d="M10.9442 3.80738C10.7249 3.80743 10.5095 3.86641 10.3194 3.97842C10.1293 4.09043 9.97129 4.25157 9.86101 4.44573L8.60256 6.66134C8.51578 6.80722 8.45827 6.96938 8.43342 7.1383C8.40857 7.30723 8.41686 7.47955 8.45782 7.64515C8.49878 7.81075 8.57159 7.96631 8.67196 8.10273C8.77233 8.23915 8.89827 8.35371 9.04238 8.43965C9.1865 8.52559 9.3459 8.58119 9.51126 8.60323C9.67661 8.62527 9.8446 8.6133 10.0054 8.568C10.1662 8.52269 10.3165 8.44495 10.4476 8.33938C10.5787 8.23381 10.6879 8.10254 10.7689 7.95319L12.0279 5.73753C12.1388 5.54239 12.1974 5.32077 12.198 5.095C12.1986 4.86922 12.1411 4.64727 12.0312 4.45153C11.9214 4.2558 11.7631 4.0932 11.5724 3.98011C11.3816 3.86702 11.1652 3.80743 10.9448 3.80738M10.9448 3.24027C11.2628 3.24019 11.5753 3.32603 11.8506 3.48919C12.126 3.65235 12.3544 3.88703 12.5129 4.16953C12.6715 4.45204 12.7544 4.7724 12.7535 5.09827C12.7526 5.42413 12.6678 5.74397 12.5077 6.02553L11.2486 8.24115C11.089 8.52083 10.8608 8.75293 10.5867 8.91442C10.3125 9.07591 10.0019 9.16118 9.68571 9.1618C9.36764 9.16188 9.05518 9.076 8.77985 8.91284C8.50453 8.74968 8.27609 8.515 8.11756 8.2325C7.95904 7.94999 7.87604 7.62967 7.87696 7.3038C7.87788 6.97794 7.96269 6.6581 8.1228 6.37653L9.38125 4.16092C9.54063 3.88088 9.76872 3.6484 10.0429 3.48657C10.317 3.32474 10.6277 3.23916 10.9442 3.23834L10.9448 3.24027Z" fill="white"/>
</g>
</g>
<defs>
<clipPath id="clip0_0_1">
<rect width="19.8529" height="12.1324" fill="white" transform="translate(0.388672 0.132324)"/>
</clipPath>
</defs>
</svg>
