<svg width="25" height="25" viewBox="0 0 25 25" fill="none" xmlns="http://www.w3.org/2000/svg">
<rect width="25" height="25" fill="#E5E5E5"/>
<g id="Other Icon">
<g id="Wallet" clip-path="url(#clip0_0_1)">
<path id="Wallet_2" d="M21.1426 18.1323V19.1323C21.1426 20.2323 20.2426 21.1323 19.1426 21.1323H5.14258C4.03258 21.1323 3.14258 20.2323 3.14258 19.1323V5.13232C3.14258 4.03232 4.03258 3.13232 5.14258 3.13232H19.1426C20.2426 3.13232 21.1426 4.03232 21.1426 5.13232V6.13232H12.1426C11.0326 6.13232 10.1426 7.03232 10.1426 8.13232V16.1323C10.1426 17.2323 11.0326 18.1323 12.1426 18.1323H21.1426ZM12.1426 16.1323H22.1426V8.13232H12.1426V16.1323ZM16.1426 13.6323C15.3126 13.6323 14.6426 12.9623 14.6426 12.1323C14.6426 11.3023 15.3126 10.6323 16.1426 10.6323C16.9726 10.6323 17.6426 11.3023 17.6426 12.1323C17.6426 12.9623 16.9726 13.6323 16.1426 13.6323Z" fill="black"/>
</g>
</g>
<defs>
<clipPath id="clip0_0_1">
<rect width="24" height="24" fill="white" transform="translate(0.142578 0.132324)"/>
</clipPath>
</defs>
</svg>
