<svg width="21" height="21" viewBox="0 0 21 21" fill="none" xmlns="http://www.w3.org/2000/svg">
<rect width="21" height="21" fill="#E5E5E5"/>
<g id="Other Icon">
<g id="Whatsapp">
<path id="Whatsapp_2" d="M17.2422 3.04238C16.3254 2.11631 15.2334 1.38205 14.0298 0.882435C12.8263 0.382818 11.5353 0.127844 10.2322 0.132384C4.77219 0.132384 0.322188 4.58238 0.322188 10.0424C0.322188 11.7924 0.782188 13.4924 1.64219 14.9924L0.242188 20.1324L5.49219 18.7524C6.94219 19.5424 8.57219 19.9624 10.2322 19.9624C15.6922 19.9624 20.1422 15.5124 20.1422 10.0524C20.1422 7.40238 19.1122 4.91238 17.2422 3.04238ZM10.2322 18.2824C8.75219 18.2824 7.30219 17.8824 6.03219 17.1324L5.73219 16.9524L2.61219 17.7724L3.44219 14.7324L3.24219 14.4224C2.41993 13.1094 1.98333 11.5916 1.98219 10.0424C1.98219 5.50238 5.68219 1.80238 10.2222 1.80238C12.4222 1.80238 14.4922 2.66238 16.0422 4.22238C16.8097 4.98635 17.4179 5.89505 17.8316 6.89581C18.2453 7.89657 18.4562 8.96949 18.4522 10.0524C18.4722 14.5924 14.7722 18.2824 10.2322 18.2824ZM14.7522 12.1224C14.5022 12.0024 13.2822 11.4024 13.0622 11.3124C12.8322 11.2324 12.6722 11.1924 12.5022 11.4324C12.3322 11.6824 11.8622 12.2424 11.7222 12.4024C11.5822 12.5724 11.4322 12.5924 11.1822 12.4624C10.9322 12.3424 10.1322 12.0724 9.19219 11.2324C8.45219 10.5724 7.96219 9.76238 7.81219 9.51238C7.67219 9.26238 7.79219 9.13238 7.92219 9.00238C8.03219 8.89238 8.17219 8.71238 8.29219 8.57238C8.41219 8.43238 8.46219 8.32238 8.54219 8.16238C8.62219 7.99238 8.58219 7.85238 8.52219 7.73238C8.46219 7.61238 7.96219 6.39238 7.76219 5.89238C7.56219 5.41238 7.35219 5.47238 7.20219 5.46238H6.72219C6.55219 5.46238 6.29219 5.52238 6.06219 5.77238C5.84219 6.02238 5.20219 6.62238 5.20219 7.84238C5.20219 9.06238 6.09219 10.2424 6.21219 10.4024C6.33219 10.5724 7.96219 13.0724 10.4422 14.1424C11.0322 14.4024 11.4922 14.5524 11.8522 14.6624C12.4422 14.8524 12.9822 14.8224 13.4122 14.7624C13.8922 14.6924 14.8822 14.1624 15.0822 13.5824C15.2922 13.0024 15.2922 12.5124 15.2222 12.4024C15.1522 12.2924 15.0022 12.2424 14.7522 12.1224Z" fill="black"/>
</g>
</g>
</svg>
